<?xml version='1.0' encoding='utf-8'?>
<svg xmlns="http://www.w3.org/2000/svg" version="1.1" id="Layer_1" x="0px" y="0px" width="612px"
    height="792px" viewBox="0 0 612 792" enable-background="new 0 0 612 792">
    <path fill="#3FB2E6"
        d="M191.714,323.337c-36.569,0-152.116,0-152.116,0s13.642-58.855,59.174-29.428 c0,0,36.002-37.756,53.415-25.541c0,0,31.202,23.108,32.257,26.268c0,0,21.871-37.241,28.809-28.701s7.482,57.401,7.482,57.401 H191.714z" />
    <path fill="#3FB2E6"
        d="M391.87,394.789c36.569,0,152.116,0,152.116,0s-13.642-58.855-59.174-29.428 c0,0-36.002-37.756-53.415-25.541c0,0-31.202,23.108-32.257,26.268c0,0-21.871-37.241-28.809-28.701s-7.482,57.401-7.482,57.401 H391.87z" />
    <path fill="#3FB2E6"
        d="M406.355,582.533c48.886,0,203.35,0,203.35,0s-18.236-69.143-79.104-34.571c0,0-48.128-44.355-71.405-30.006 c0,0-41.712,27.146-43.121,30.859c0,0-29.237-43.751-38.512-33.718s-10.003,67.436-10.003,67.436H406.355z" />
    <path fill="#3FB2E6"
        d="M38.572,454.674c36.569,0,152.116,0,152.116,0s-13.642-58.855-59.174-29.428 c0,0-36.002-37.756-53.415-25.541c0,0-31.202,23.107-32.257,26.268c0,0-21.871-37.241-28.809-28.701 c-6.938,8.541-7.482,57.402-7.482,57.402H38.572z" />
    <path fill="#3FB2E6"
        d="M541.605,155c-36.569,0-152.116,0-152.116,0s13.642-58.855,59.174-29.428c0,0,36.002-37.756,53.415-25.541 c0,0,31.202,23.108,32.257,26.268c0,0,21.871-37.241,28.809-28.701S570.626,155,570.626,155H541.605z" />
    <path fill="#3F3616" stroke="#000000" stroke-miterlimit="10"
        d="M617.023,754.572l-83.996-40.498 c-116.994-47.998-143.503-29.14-143.503-29.14c-112.005-15.641-211.979-6.858-211.979-6.858c-194.99-32.998-107.995,0-107.995,0 s52.712,13.832,96.103,30.915c0,0,140.357-20.082,194.619,0c0,0,214.754,32.081,250.752,59.08" />
    <path fill="#332D14" stroke="#000000" stroke-width="0.75" stroke-miterlimit="10"
        d="M188,201c0,0,94-90,209,0c0,0,44-16,55-46 c0,0,8,83-14,103c0,0,6,72-74,116c0,0,107,113,18,262c0,0-12.773,25.359-31.01,24.692" />
    <path fill="#332D14" stroke="#000000" stroke-width="0.75" stroke-miterlimit="10"
        d="M395.584,201c0,0-94-90-209,0c0,0-44-16-55-46 c0,0-8,83,14,103c0,0-6,72,74,116c0,0-107,113-18,262c0,0,12.72,17.666,38.75,22.995" />
    <path fill="#FFFFFF" stroke="#000000" stroke-miterlimit="10" d="M205,480c0,0,17,27,42,0" />
    <path fill="#F7F7F7" stroke="#000000" stroke-miterlimit="10"
        d="M320.709,513.603c0,0,17,27,42,0" />
    <path fill="#FFFFFF" stroke="#000000" stroke-miterlimit="10"
        d="M236.709,513.603c0,0,17,27,42,0" />
    <path fill="#F7F7F7" stroke="#000000" stroke-miterlimit="10" d="M347.823,480c0,0,17,27,42,0" />
    <path fill="#FFFFFF" stroke="#000000" stroke-miterlimit="10" d="M278.709,480c0,0,17,27,42,0" />
    <path fill="#F7F7F7" stroke="#000000" stroke-miterlimit="10" d="M205,555.191c0,0,17,27,42,0" />
    <path fill="#F7F7F7" stroke="#000000" stroke-miterlimit="10"
        d="M347.824,555.191c0,0,17,27,41.999,0" />
    <path fill="none" stroke="#000000" stroke-miterlimit="10" d="M346.569,659" />
    <path fill="#E0A337"
        d="M274.994,658.37c0,14.669-4.499,26.564-10.038,26.564c-3.329,0-6.277-4.285-8.101-10.882 c-1.823,6.597-4.779,10.882-8.101,10.882c-5.547,0-10.045-11.896-10.045-26.564c0-14.66,4.498-26.556,10.045-26.556 c3.329,0,6.278,4.285,8.101,10.882c1.816-6.597,4.772-10.882,8.101-10.882C270.495,631.814,274.994,643.71,274.994,658.37z" />
    <path fill="#E0A337"
        d="M352.25,658.366c0,14.669-4.498,26.564-10.037,26.564c-3.329,0-6.277-4.285-8.102-10.882 c-1.823,6.597-4.779,10.882-8.101,10.882c-5.547,0-10.045-11.896-10.045-26.564c0-14.66,4.498-26.556,10.045-26.556 c3.328,0,6.277,4.285,8.101,10.882c1.816-6.597,4.772-10.882,8.102-10.882C347.752,631.811,352.25,643.706,352.25,658.366z" />
    <path fill="#6F471C"
        d="M377.077,390.685c0,0,70.8,21.103,102.8,85.103c0,0,7.854,92.049-79.943,124.746 C399.934,600.533,435.488,472.369,377.077,390.685z" />
    <path fill="#F5F3EA" stroke="#000000" stroke-miterlimit="10"
        d="M401.185,256.882c0,26.23-24.566,47.5-54.863,47.5 c-22.812,0-42.378-12.06-50.648-29.21c-8.27,17.15-27.836,29.21-50.648,29.21c-30.308,0-54.864-21.27-54.864-47.5 s24.556-47.5,54.864-47.5c22.812,0,42.378,12.06,50.648,29.21c8.27-17.15,27.836-29.21,50.648-29.21 C376.618,209.382,401.185,230.652,401.185,256.882z" />
    <circle fill="#171713" stroke="#000000" stroke-miterlimit="10" cx="247" cy="256.882" r="28" />
    <circle fill="#171713" stroke="#000000" stroke-miterlimit="10" cx="350.989" cy="256.882"
        r="28" />
    <circle fill="#F9F9FA" stroke="#000000" stroke-miterlimit="10" cx="256.5" cy="244" r="9.5" />
    <circle fill="#F9F9FA" stroke="#000000" stroke-miterlimit="10" cx="358.24" cy="244" r="9.5" />
    <path fill="#EAD725" d="M275,317c0,0,17-23,38,0l-19,36L275,317z" />
    <path fill="#6F471C"
        d="M206.291,390.997c0,0-72.588,19.357-106.15,82.552c0,0-3.584,91.828,83.384,126.672 C183.524,600.221,145.891,471.222,206.291,390.997z" />
    <path fill="#332D14"
        d="M248.332,632.261l45.629-134.246L342,632.261c0,0-6.226,2.685-7.868,10.774c0,0-5.509-21.168-14.729-3.159 l-46.504,3.159c0,0-4.774-12.134-7.866-10.774c0,0-5.117-0.02-7.867,10.774C257.166,643.035,254.078,631.311,248.332,632.261z" />
    <path fill="#332D14"
        d="M275.062,658.995h41.179c0,0,1.276-20.867,2.852-20.785s-45.864,3.115-45.864,3.115" />
    <path fill="#F7F7F7" stroke="#000000" stroke-miterlimit="10"
        d="M275.179,553.524c0,0,17,27,42,0" />
    <path fill="#F7F7F7" stroke="#000000" stroke-miterlimit="10"
        d="M312.615,582.533c0,0,17,27,41.999,0" />
    <path fill="#F7F7F7" stroke="#000000" stroke-miterlimit="10"
        d="M236.71,582.533c0,0,17,27,41.999,0" />
    <path fill="#43A047" stroke="#000000" stroke-miterlimit="10"
        d="M65.045,677.485c0,0-13.25,45.057,20.236,65.367 C85.281,742.853,99.067,706.263,65.045,677.485z" />
    <path fill="#43A047" stroke="#000000" stroke-miterlimit="10"
        d="M117.849,614.806c0,0-46.31,7.811-49.913,46.809 C67.936,661.614,106.868,657.992,117.849,614.806z" />
    <path fill="#43A047" stroke="#000000" stroke-miterlimit="10"
        d="M65.647,677.485c0,0,15.438,44.354,54.49,41.39 C120.138,718.875,110.062,681.095,65.647,677.485z" />
    <path fill="#43A047" stroke="#000000" stroke-miterlimit="10"
        d="M139.022,636.164c0,0-45.844-10.193-63.859,24.582 C75.163,660.746,112.596,672.042,139.022,636.164z" />
    <ellipse fill="#EAD88B" cx="48" cy="666.767" rx="7" ry="18.164" />
    <path fill="#E48CBB" d="M45.202,651.627c0,0-6-17.603,7-25.603S45.202,651.627,45.202,651.627z" />
    <path fill="#E48CBB"
        d="M45.27,710.551c-12.32,9.013,4.935-26.079,4.935-26.079S57.59,701.539,45.27,710.551" />
    <path fill="#E48CBB"
        d="M14.75,674.442C2.184,665.776,41,670.515,41,670.515S27.316,683.107,14.75,674.442" />
    <path fill="#E48CBB"
        d="M41,666.071c0,0-18.19-3.867-18.398-19.13C22.394,631.678,41,666.071,41,666.071z" />
    <path fill="#E48CBB"
        d="M44.772,677.654c0,0-7.393,17.064-22.395,14.245C7.375,689.081,44.772,677.654,44.772,677.654z" />
    <path fill="#3FB2E6"
        d="M49.576,80C105.933,80,284,80,284,80s-21.023-58.855-91.191-29.428c0,0-55.483-37.756-82.317-25.541 c0,0-48.086,23.108-49.712,26.268c0,0-33.704-37.241-44.396-28.701S4.852,80,4.852,80H49.576z" />
</svg>