<?xml version='1.0' encoding='utf-8'?>
<svg xmlns="http://www.w3.org/2000/svg" enable-background="new 195.1876 133.5105 1535.8125 1575.4512" version="1.1" viewBox="195.1876 133.5105 1535.8125 1575.4512">
	<path d="m863.82 268.85c24.26-5.83 48.49-11.76 72.75-17.56 13.54 30.82 15.22 66.64 4.33 98.52-10.89 32.7-34.75 60.8-65.18 76.97-34.05 18.47-76.1 21.24-112.32 7.56-30.33-11.21-56.29-33.65-71.91-61.94-9.86-17.69-15.62-37.63-16.87-57.84 36.1-8.7 72.2-17.36 108.26-26.21-8.84 8.7-14.01 21.11-13.13 33.56 0.58 11.64 6.24 22.86 15.17 30.32 7.75 6.55 17.88 10.23 28.03 10.05 12.02 0 23.88-5.47 31.76-14.53 6.68-7.6 10.62-17.61 10.65-27.74 0.34-13.57-6.37-27.05-17.35-35.01-4.02-3.11-8.75-5.09-13.47-6.89 13.18-2.64 26.18-6.23 39.28-9.26z" fill="#fff"/>
	<path d="m981.13 325.86c-3.71-25.16-0.2-51.33 10.08-74.58 37.3 8.91 74.5 18.24 111.86 26.88-10.59 3.49-20.07 10.65-25.38 20.56-6.6 11.74-7.1 26.64-1.36 38.82 4.54 9.85 13 17.82 23.11 21.76 10.5 4.21 22.66 3.96 33-0.61 13.54-5.81 23.56-19.09 25.24-33.75 1.8999-13.34-3.1801-27.23-12.84-36.55 36.02 8.74 72.04 17.48 108.09 26.1-1.5701 34.79-17.89 68.45-43.45 92-15.56 14.46-34.54 25.28-54.99 31.09-19.58 5.73-40.45 6.75-60.57 3.53-28.03-4.68-54.48-18.34-74.44-38.57-20.56-20.57-34.31-47.87-38.35-76.68z" fill="#fff"/>
	<path d="m700.95 215.99c24.54-30.27 62.01-49.68 100.96-51.89 36.96-2.62 74.7 10.02 102.55 34.47 16.36 14.09 29.32 32.02 37.86 51.83 14.29-0.45 28.6-0.17 42.87 0.69 11.37-27.3 31.55-50.79 56.75-66.25 28.41-17.67 63.18-24.53 96.21-19.44 36.89 5.45 71.14 26.26 93.12 56.37 11.47 15.54 19.77 33.44 24.06 52.29 4.87 20.85 4.63 42.73 0.25 63.64 33.58 18.77 65.62 40.23 96.59 63.04 31.58 23.41 61.82 48.6 90.77 75.18 30.95 28.74 60.94 58.65 87.99 91.12-23.91 28.87-50.4 55.48-77.47 81.37-65.56 61.5-137.87 116.41-217.34 158.74 26.53 50.97 47.36 105.31 57.44 162.02 6.8199-4.27 13.07-9.42 19.76-13.91 37.11-26.07 76.07-49.71 117.37-68.55 37.79-17.05 77.83-30.49 119.38-33.73 24.94-1.77 50.59 0.6 73.87 10.17 15.66 6.41 30 16.06 41.71 28.3 15.93 16.24 26.66 37.19 31.74 59.29 5.28 22.84 5.0499 46.64 1.77 69.76-6.01 41.39-21.05 80.92-39.34 118.34-33.82 68.13-78.98 130.03-128.54 187.48-25.11 28.76-51.15 56.77-78.91 83-60.09 55.42-132.33 96.48-208.47 125.5-28.93 11.12-58.54 20.34-88.46 28.36 46.82 2.2798 93.56 7.2198 139.7 15.57 25.62 4.7 51.09 10.44 75.93 18.35 15.16 4.97 30.32 10.5 43.93 18.98 6.21 4.16 12.75 8.9701 15.46 16.24 1.92 5.05 0.24 10.88-3.3999 14.72-5.26 5.5499-12.41 8.7899-19.47 11.39-17.19 6.09-35.36 8.74-53.41 10.83-50.71 5.25-101.87 3.87-152.63-0.01-43.99-3.67-87.85-9.53-130.98-19.02-21.04-4.73-41.96-10.26-62.17-17.82-9.81-3.73-19.51-7.92-28.41-13.52-5.88-3.75-11.55-8.27-14.98-14.46-7.94 7.46-17.81 12.36-27.6 16.91-16.91 7.5901-34.57 13.37-52.35 18.52-45.23 12.91-91.57 21.53-138.1 28.13-49.35 6.7-99.12 11.07-148.95 10.7-21.6-0.37-43.31-1.2599-64.56-5.3799-9.09-1.9601-18.43-4.2101-26.26-9.4301-4.52-2.96-8.16-8.3199-6.84-13.92 1.77-7.4399 8.29-12.34 14.23-16.49 15.53-10 33.01-16.4 50.39-22.38 40.12-13.14 81.51-22.01 123.08-29.14 34.89-5.85 70.01-10.32 105.27-13.17-80.56-19.19-159.23-48.58-229.95-92.05-35.93-22.08-69.68-47.8-99.88-77.25-52.16-51.66-100.47-107.4-142.17-167.87-21.91-31.96-41.93-65.29-58.58-100.3-11.66-24.59-21.61-50.05-28.62-76.36-8.69-33.11-13.03-68.26-5.78-102.08 3.86-17.98 11.31-35.3 22.43-50 12.39-16.48 28.98-29.81 47.86-38.15 21.96-9.83 46.4-13.12 70.31-12.11 33.75 1.4 66.76 10.28 98.2 22.23 52.17 20.09 100.64 48.74 146.28 80.8 8.78 6.02 17.17 12.6 25.92 18.67 9.24-55.07 28.6-108.03 53.55-157.85-56.14-27.98-108.75-62.71-158.04-101.41-32.87-25.82-64.23-53.53-94.1-82.77-21.08-20.92-41.8-42.3-60.68-65.24 23.8-28.69 50.05-55.26 77.03-80.94 64.46-60.67 135.62-114.68 213.52-156.97-6.6501-39.76 4.5499-82.1 30.33-113.14m51.73-33.34h-0.38c-15.48 7.43-29.58 17.74-41.26 30.33-24.06 25.59-37.51 60.74-36.66 95.86 17.64-4.37 35.47-8.21 52.97-13.03 19.33-4.07 38.44-9.24 57.7-13.7 36.49-8.98 73.15-17.37 109.56-26.68 13.23-2.66 26.31-6.3 39.5-9.32-15.8-32.41-44.94-58.49-79.36-69.45-15.49-5.72-32.22-7.64-48.67-7.2-18.41 0.79-36.87 4.92-53.4 13.19m281.42 14.59c-17.28 12.56-30.98 29.79-40.52 48.85 86.6 20.88 173.16 41.88 259.77 62.73 0.55-30.15-8.86-60.82-27.57-84.61-1.3301-2.8-3.74-4.94-5.64-7.35-13.66-15.89-31.03-28.55-50.33-36.72-43.94-18.95-98.03-12.61-135.71 17.1m-170.28 71.61c-13.1 3.03-26.1 6.62-39.28 9.26 4.72 1.8 9.45 3.78 13.47 6.89 10.98 7.96 17.69 21.44 17.35 35.01-0.03 10.13-3.97 20.14-10.65 27.74-7.88 9.06-19.74 14.53-31.76 14.53-10.15 0.18-20.28-3.5-28.03-10.05-8.93-7.46-14.59-18.68-15.17-30.32-0.88-12.45 4.29-24.86 13.13-33.56-36.06 8.85-72.16 17.51-108.26 26.21 1.25 20.21 7.01 40.15 16.87 57.84 15.62 28.29 41.58 50.73 71.91 61.94 36.22 13.68 78.27 10.91 112.32-7.56 30.43-16.17 54.29-44.27 65.18-76.97 10.89-31.88 9.21-67.7-4.33-98.52-24.26 5.8-48.49 11.73-72.75 17.56m117.31 57.01c4.04 28.81 17.79 56.11 38.35 76.68 19.96 20.23 46.41 33.89 74.44 38.57 20.12 3.22 40.99 2.2 60.57-3.53 20.45-5.81 39.43-16.63 54.99-31.09 25.56-23.55 41.88-57.21 43.45-92-36.05-8.62-72.07-17.36-108.09-26.1 9.66 9.32 14.74 23.21 12.84 36.55-1.6801 14.66-11.7 27.94-25.24 33.75-10.34 4.57-22.5 4.82-33 0.61-10.11-3.94-18.57-11.91-23.11-21.76-5.74-12.18-5.24-27.08 1.36-38.82 5.3101-9.91 14.79-17.07 25.38-20.56-37.36-8.64-74.56-17.97-111.86-26.88-10.28 23.25-13.79 49.42-10.08 74.58m-36.23-69.99c1.45 6.48 4.08 12.64 5.3199 19.19 9.13 39.69-0.03 83.1-24.46 115.7-19.95 27.18-49.89 46.82-82.79 54.24-38.77 8.97-81.18 0.79-113.62-22.3-29.35-20.56-50.51-52.47-57.66-87.62-12.24 6.45-24.2 13.43-36.02 20.61-61.45 37.45-118.45 81.95-171.02 131.02-27.04 25.46-53.23 51.88-77.22 80.26 7.24 9.22 15.39 17.67 23.24 26.37 50.57 54.09 106.34 103.34 166.54 146.47 46.13 32.87 95.05 62 146.76 85.25 42 18.8 85.83 33.73 130.97 42.89 52.78 10.8 107.31 13.46 160.78 6.6 83.31-10.27 162.96-41.06 235.73-82.19 70.28-39.77 134.78-89.21 193.96-144 27.24-25.94 53.98-52.51 78.21-81.32-2.9399-3.59-6.03-7.05-9.08-10.53-48.8-54.66-103.22-104.26-161.77-148.3-31.4-23.64-64.36-45.18-98.32-64.95-3.24 8.67-5.84 17.63-10.15 25.89-8.99 17.99-21.64 34.21-37.25 46.93-29.78 24.78-69.98 36.4-108.39 31.33-24.18-2.91-47.52-12.4-67.07-26.89-22.57-16.74-39.99-40.29-49.36-66.78-11.23-31.18-10.53-66.11 0.57-97.23-12.63-0.5301-25.26-1.0201-37.9-0.6401m229.28 580.91c-69.83 29.43-145.14 47.68-221.19 47.09-46.44-0.05-92.65-7.41-137.42-19.49l-0.08-0.16c-40.52-11.15-79.77-26.65-117.47-45.17-13.69 27.26-26 55.37-35.09 84.5-1.94 4.75-3.26 9.72-4.75 14.63-14.33 48.13-21.43 98.59-18.99 148.82 2.22 46.01 11.85 91.57 27.35 134.91l0.09-0.8c-0.02 2.77 1.5 5.3 2.33 7.91 25.15 68.33 62.87 131.45 106.78 189.3 47.17 61.74 101.21 118.16 160.24 168.64 2.45 1.92 4.5 4.7001 7.73 5.3401 9.44 2.49 19.86 5.3199 26.06 13.48 6.07-5.9501 15.15-6.98 21.16-12.92 18.62-15.62 36.69-31.88 54.23-48.7 55.77-53.43 106.62-112.3 149.05-176.93 9.8201-15.19 19.58-30.54 27.97-46.55 6.73-11.07 12.4-22.76 18.19-34.34 20.04-41.12 35.84-84.44 45.24-129.26 9.74-46.95 12.62-95.61 5.89-143.16-1.4399-15.78-4.79-31.4-8.2-46.88-9.9701-42.95-25.78-84.41-45.38-123.86-2.4501-4.27-4.11-9.18-7.0601-13.03-18.66 9.3501-37.42 18.55-56.68 26.63m-830.18 22.08c-16.1 1.51-32.03 5.55-46.61 12.62-28.2 13.57-50.28 39.07-59.83 68.86-11.16 34.02-8.2 70.92-0.03 105.25 6.56 27.39 16.62 53.84 28.45 79.37 16.39 34.97 36.1 68.31 57.79 100.24 41.4 60.7 89.61 116.56 141.68 168.33 28.45 28.06 60.18 52.72 93.91 74.11 68.53 43.28 144.93 73.08 223.39 92.74 10.08 2.39 20.12 5.05 30.32 6.92 38.28-2.1001 76.89-3.1101 115.01 1.9299-0.81-3.52-4.37-5.1799-6.75-7.54-27.54-24.04-53.86-49.5-78.87-76.17-51.65-54.77-97.9-114.91-135.17-180.42-1.45 2.8301-5.58 6.5701-8.29 2.99-38.16-50.81-78.26-100.96-127.45-141.62-28.53-23.36-59.93-43.29-93.52-58.53-18.91-8.72-38.59-15.59-58.43-21.83-0.94-4.04 3.19-8.84 7.37-7.09 38.01 11.33 74.53 27.77 107.99 49.07 28.86 18.36 55.27 40.41 79.18 64.83 27.34 26.93 51.51 56.82 75.2 86.95 4.11 5.6901 8.24 11.43 12.98 16.64-2.08-5.28-5.16-10.07-7.63-15.16-2.25-4.28-4.07-8.8099-6.83-12.79-1.08-4.0601-3.36-7.65-5.04-11.46-30.79-66.56-50.5-139.31-49.57-213.03-0.16-21.12 2.08-42.15 4.86-63.04-3.57-3.54-7.98-6.09-11.87-9.26-53.63-39.05-110.98-74.16-173.8-96.32-34.71-11.92-71.56-20.03-108.44-16.59m1157 8.25c-58.55 15.76-112.46 45.02-162.92 78.07-14.65 9.91-29.4 19.74-43.29 30.71 6.36 38.4 7.6899 77.65 3.5699 116.36-4.8199 46.29-17.09 91.61-34.35 134.76-1.85 5.3199-4.73 10.28-6.2 15.71-4.26 8.27-7.85 16.89-11.74 25.34 5.11-6.7401 10.85-13.11 15.2-20.38 3.6901-3.16 6.04-7.62 9.28-11.23 18.53-23.29 37.71-46.12 58.48-67.46 27.02-27.67 56.78-52.88 89.79-73.15 33.42-20.7 69.7-36.77 107.49-47.58 2.6699 2.66 0.76 7.4399-2.54 8.52-4.6799 1.6599-9.52 2.86-14.17 4.59-36.86 12.03-71.92 29.45-103.97 51.24-31.18 21.11-58.84 46.98-84.4 74.52-26.54 28.76-50.71 59.63-74.21 90.9-1.49 2.36-4.28 1.4299-6.3199 0.5-41.6 81.29-98.02 154.27-161.42 219.69-12.93 13.74-26.73 26.62-40.34 39.67-12.16 11.54-25.06 22.29-37.28 33.75 5.82-0.63 11.47-2.21 17.25-3.13 37.05-5.9 74.66-6.83 112.11-6.1 5.62 0.2899 10.93-1.86 16.35-3.03 36.7-9.33 72.84-20.92 107.97-35.09 71.09-28.57 138.35-68.08 194.62-120.37 28.35-27.03 55.08-55.73 80.68-85.37 48.52-56.83 92.65-117.99 125.67-185.22 17.05-35.53 31.2-72.89 37.16-112 3.0601-21.25 3.5701-43.08-0.3899-64.25-3.4301-17.36-10.11-34.2-20.48-48.6-11.35-15.98-26.88-28.91-44.54-37.39-18.98-8.96-40.1-13-61.03-12.96-22.32-0.4099-44.49 3.4101-66.03 8.9801m-416.71 701.17c-9.78 0.01-19.52 0.9099-29.28 1.51-20.24 1.83-40.61 4.14-60.16 9.95-7.83 2.52-15.91 5.36-22.14 10.92-3.5 3.0299-4.69 8.61-1.91 12.51 4.29 6.46 11.25 10.44 17.84 14.19 25.15 13.12 52.87 20.24 80.32 26.77 71.55 15.78 144.9 22.56 218.1 23.1 15.32-0.6 30.67-0.52 45.97-1.72 21.98-1.74 44.14-3.84 65.41-10.01 7.0399-2.1899 14.18-4.58 20.36-8.6899 3.62-2.6101 7.8099-6.4901 6.7-11.43-1.49-5.96-6.83-9.75-11.48-13.23-11.78-7.8201-25.1-12.96-38.38-17.63-24.23-8.21-49.19-14.06-74.28-18.91-47.62-9.04-95.92-14.31-144.31-16.74-24.23-0.9999-48.52-1.7599-72.76-0.5899m-388.28 18.01c-43.18 7.23-86.23 16.12-127.91 29.69-17.44 6.01-35.14 12.18-50.64 22.4-4.61 3.33-9.94 6.83-11.6 12.61-0.87 4.12 2.87 7.21 5.93 9.23 7.72 4.39 16.54 6.3101 25.16 8.0601 14.67 2.53 29.53 3.98 44.42 4.33 8.54 0.02 17.06 0.89 25.61 0.62 52.59-0.52 105.08-5.51 157.06-13.37 40.43-6.39 80.74-14.13 120.06-25.6 20.02-5.78 39.92-12.35 58.62-21.63 6.54-3.52 13.18-7.17 18.52-12.42 2.92-2.61 2.92-6.83 4.44-10.21-1.85-2.4301-3.85-4.86-6.62-6.24-6.95-3.76-14.7-5.71-22.37-7.33-28.54-5.3501-57.72-5.3401-86.65-5.01-51.62 1.1-103.06 6.78-154.03 14.87z" fill="#000200"/>
	<path d="m751.62 584.61c1.04-0.07 2.1-0.13 3.16-0.18 1.04 18.23-6.33 36.51-18.24 50.17-0.84 0.9-1.85 2.29-0.56 3.31 38.04 37.1 87.49 60.85 138.74 73.4 26.16 6.49 53.01 10.13 79.93 11.22 49.36 1.77 99.23-4.64 145.91-21.04 39.91-13.96 77.74-35.42 107.61-65.63-3.78-5.58-8.3201-10.68-11.05-16.91-5.28-10.71-8.63-22.77-7.7-34.78 0.72 0.15 2.1599 0.45 2.88 0.6 0.98 10.71 2.5299 21.62 7.59 31.29 10.7 23.19 34.66 39.33 60.1 40.98 2.27 0.44 6.6901-0.5099 5.48 3.27-5.7999 1.13-11.77-0.23-17.48-1.34-12.16-2.7-23.42-8.7599-32.93-16.73-27.24 27.33-60.67 48.02-96.37 62.37-40.24 16.19-83.34 24.88-126.6 27-52.39 2.53-105.45-4.31-154.97-21.84-40.4-14.35-78.5-36.3-109.07-66.6-13.61 11.22-31.09 18.01-48.83 17.58-0.02-1.12-0.03-2.23-0.02-3.33 18.61-0.43 37.22-7.53 50.38-20.88 14.14-13.29 21.87-32.64 22.04-51.93z" fill="#000200"/>
	<path d="m752.68 182.65c16.53-8.27 34.99-12.4 53.4-13.19 16.45-0.44 33.18 1.48 48.67 7.2-5.47 0.77-10.53-1.6-15.77-2.64-10.23-1.75-20.54-3.36-30.95-2.8-10.49-0.61-20.63 2.36-30.83 4.26-6.41 1.27-12.32 4.16-18.42 6.36-1.95 0.77-4.05 0.87-6.1 0.81z" fill="#93BD57"/>
	<path d="m1034.1 197.24c37.68-29.71 91.77-36.05 135.71-17.1 19.3 8.17 36.67 20.83 50.33 36.72 1.9 2.41 4.3099 4.55 5.64 7.35 0.1599 4.79 4.25 7.76 6.3199 11.71 4.0801 7.5 8.65 14.86 10.95 23.16 1.51 5.33 4.23 10.33 4.8099 15.92 0.61 5.73 2.89 11.2 2.88 17.01 0.1 4.67 0.05 9.35 0.05 14.02-6.3101-0.93-12.53-2.39-18.63-4.22-4.5601-1.41-9.4301-1.58-13.86-3.42-5.64-2.58-12.04-2.11-17.85-4.15-10.88-3.43-22.34-4.57-33.09-8.42-6.8199-1.85-13.84-2.8-20.69-4.47-6.6001-1.97-13.49-2.73-19.96-5.14-8.4399-1.89-16.87-3.86-25.3-5.79-6.9401-2.56-14.37-3.24-21.41-5.44-14.41-3.1-28.57-7.25-43.01-10.22-12.22-3.18-24.66-5.54-36.79-9.03-2.9-0.85-2.34-4.53-0.98-6.49 6.11-9.92 12.51-19.88 21.09-27.89 4.58-4.73 10.59-8.15 13.79-14.11z" fill="#8CC63E"/>
	<path d="m777.2 175.48c10.2-1.9 20.34-4.87 30.83-4.26 10.41-0.56 20.72 1.05 30.95 2.8 5.24 1.04 10.3 3.41 15.77 2.64 34.42 10.96 63.56 37.04 79.36 69.45-13.19 3.02-26.27 6.66-39.5 9.32-5.57-1.21-10.84 1.24-16.23 2.12-6.47 1.08-12.49 3.89-18.98 4.83-9.14 1.37-17.86 4.69-27 5.94-5.75 0.4-10.74 3.67-16.41 4.44-6.72 1.9-13.83 2.25-20.32 4.96-3.88 1.37-8.06 1.5-11.98 2.72-12.88 4.02-26.26 6.05-39.19 9.86-5.71 1.91-12.1 1.88-17.15 5.51-17.5 4.82-35.33 8.66-52.97 13.03-0.85-35.12 12.6-70.27 36.66-95.86 11.68-12.59 25.78-22.9 41.26-30.33h0.38c2.05 0.06 4.15-0.04 6.1-0.81 6.1-2.2 12.01-5.09 18.42-6.36z" fill="#8CC63E"/>
	<path d="m1174.2 836.78c19.26-8.08 38.02-17.28 56.68-26.63 2.9501 3.85 4.61 8.7599 7.0601 13.03 19.6 39.45 35.41 80.91 45.38 123.86 3.4099 15.48 6.76 31.1 8.2 46.88-2.21 11.64 2.26 23.31 1.47 35.02-0.78 18.05 1.2101 36.25-1.5399 54.18-0.54 10.2-1.0701 20.51-3.5601 30.47-3.23 22.87-8.41 45.51-15.71 67.42-2.91 10.82-6.49 21.54-11.43 31.61-1.1799 2.77-1.29 5.85-2.4299 8.64-3.66 8.12-6.4 16.63-10.48 24.57-6.33 13.28-11.87 26.95-19.11 39.78-2.5299 4.85-6.0699 9.4301-6.5299 15.07-8.39 16.01-18.15 31.36-27.97 46.55-42.43 64.63-93.28 123.5-149.05 176.93-17.54 16.82-35.61 33.08-54.23 48.7-6.01 5.9401-15.09 6.97-21.16 12.92-6.2-8.16-16.62-10.99-26.06-13.48-3.23-0.64-5.28-3.42-7.73-5.3401-59.03-50.48-113.07-106.9-160.24-168.64-43.91-57.85-81.63-120.97-106.78-189.3-0.83-2.61-2.35-5.14-2.33-7.91 0.47-2.42 0.66-4.9299-0.57-7.15-3.66-7.6699-5.3-16.05-7.91-24.09-1.51-6.6899-4.1-13.1-5.16-19.89-0.95-5.72-3.25-11.13-3.83-16.92-0.62-6.1101-2.43-12-3.2-18.08-0.62-4.6799-1.23-9.36-1.9901-14.02-1.02-5.96-0.53-12.07-1.79-17.99-1.89-8.52-0.3-17.28-1.45-25.88 3.93 1.99 7.55 4.49 11.13 7.05 1.33 1.25 3.19 0.59 4.81 0.5599 49.52 29.01 106.41 40.47 159.56 60.71-8.67 13.19-15.87 27.78-18.25 43.51-1.3 8.63-0.45 18.63 6.02 25.13 4.97 4.7999 12.16 7.21 19.03 6.1499 10.87-1.5699 20.36-8.76 26.42-17.71 11.01-17.12 13.42-37.87 16-57.61 8.95 13.95 21.42 25.27 34.72 34.99 8.75 6.27 17.79 12.55 28.14 15.84 7 2.23 15.34 2.62 21.56-1.89 5.44-3.6799 8.36-10.02 9.3-16.35 0.8-5.61 0.94-11.35 0.06-16.94-1.44-8.05-6.5-14.86-12.06-20.62-9.17-9.67-19.74-17.89-30.73-25.4-0.08-0.9401-0.14-1.87-0.2-2.78-4.72-2.47-9.2-5.35-13.61-8.3199-1.35-0.9601-2.76-1.91-3.58-3.37 0.35-1.2001 1.71-1.6001 2.65-2.23 4.59-2.38 9.29-4.66 13.32-7.9401 1.21-0.91 1.37-2.5699 2-3.8199 10.78-8.92 20.3-19.49 27.48-31.53 5.36-9.4401 9.25-20.35 7.94-31.34-1.08-9.38-8.01-17.57-16.79-20.75-6.75-2.31-14.04-0.15-20.06 3.14-12.37 6.76-22.05 17.27-31.67 27.36-12.73 13.68-24.56 28.42-33.47 44.91-21.23 1-42.46-3.09-62.65-9.46-42.22-13.86-79.61-39.34-112.68-68.57-2.55-2.4-5.14-4.76-8.1-6.65-2.78 1.6-6.9 5.32-3.84 8.57 28.34 25.99 59.86 49 94.98 64.96 29.02 13.14 60.86 21.01 92.85 19.66 2.73 0.11 5.24-1.7899 5.77-4.49 1.24-4.89 4.37-8.9 7.0699-13.04 5.63-8.25 11.9-16.03 18.31-23.67 7.46-8.98 14.97-18.08 24.16-25.37 6.01-4.67 12.96-8.77 20.71-9.3701 3.41-0.34 6.8799 0.81 9.52 2.97 5.99 4.88 9.47 12.86 8.6 20.59-0.67 6.5601-3.69 12.58-7 18.19-7.35 12.2-17.26 22.84-28.85 31.1-7.58 5.33-16.19 9.14-25.32 10.82-3.59 0.28-6.89 5.8101-3.04 8.04 16.69 11.54 34.08 22.16 49.66 35.22 6.75 5.5901 13.06 11.93 17.55 19.52 5.48 8.83 6.1 20.71 0.25 29.52-2.2401 3.26-6.72 3.79-10.32 3.0699-8.15-1.5599-15.39-5.9099-22.33-10.24-16.03-10.66-31.34-23.06-42.44-38.96-2.43-2.97-5.97 0.3101-7.54 2.51 0.25-1.78 0.49-3.54 0.71-5.3-3.41-1.0699-7.5 0.91-8.06 4.5901-2.62 16.66-4.66 33.66-11 49.42-3.54 8.41-9.9 16.23-18.65 19.49-8.83 3.25-20.43-1.6-22.77-11.08-2.16-9.4401 0.89-19.03 3.97-27.9 4.63-12.96 11.79-25.92 23.88-33.23 2.87-1.54 2.62-5.08 1.85-7.75-5.09 0.5-8.87 4.1899-12.7 7.1899-7.53-2.9099-15.15-5.5499-22.72-8.3199-0.69-1.46-1.4901-2.91-3.2401-3.1-11.08-3.0701-21.77-7.42-32.98-10.06 0.92-0.47 1.84-0.9099 2.78-1.35-6.32 0.66-11.94-3.54-18.27-2.17-20.94-6.5699-41.65-14-61.61-23.16-13.98-6.63-27.76-13.91-40.2-23.15l1.63-0.58c-2.34-1.24-5-1.3101-7.57-1.16-0.58-5.05 0.46-10.08 0.38-15.13 0.1-5.6901-0.45-11.47 0.82-17.07 1.58-6.55 1.03-13.34 1.96-19.97 0.47-5.42 2.7-10.52 2.99-15.97 0.79-10.21 3.26-20.17 5.71-30.07 0.9-6.85 3.59-13.26 4.78-20.04 0.59-0.13 1.2-0.25 1.82-0.36-0.9301-8.04 5.41-14.87 3.65-22.98 9.09-29.13 21.4-57.24 35.09-84.5 37.7 18.52 76.95 34.02 117.47 45.17l0.08 0.16c0.29 0.51 0.87 1.55 1.16 2.06 5.41 1.36 10.79 2.88 16.14 4.49 5.27 0.79 10.49 1.86 15.62 3.34 9.8 1.91 19.57 4.09 29.49 5.26 7.99 1.21 16.04 1.99 23.97 3.53 10.71 0.22 21.31 1.97 32.03 2.09 11.67 0.12 23.35 0.08 35.03 0.0099 8.66-0.08 17.4 0.55 25.97-1.03 4.17-0.8 8.42-1.04 12.66-0.68 4.98 0.52 9.43-2.43 14.37-2.54 7.86-0.5 15.55-2.3199 23.34-3.41 8.48-1.24 16.61-4.46 25.26-4.58 8.65-3.43 18.06-4.28 26.81-7.46 9.5599-2.69 19.14-5.31 28.53-8.58 6.7201-1.96 13.34-4.24 19.78-7.01 10.34-3.27 20.05-8.17 30.19-11.99-0.4299-0.27-1.3099-0.82-1.7398-1.1m63.3 118.75c-16.84 26.12-35.9 51.02-58.59 72.35-26.35 24.94-58.16 45.26-93.79 53.61-17.13-18.27-38.27-32.28-59.89-44.66-9.29-4.97-19.46-9.4199-30.21-9.0399-8.91 0.22-17.53 5.4399-21.73 13.3-3.4 6.42-3.2 14.13-1.19 20.95 3.54 11.89 11.56 22.03 21.33 29.5 15.64 12.47 34.7 21.85 54.99 22.63-9.17 10.23-18.24 20.58-26.74 31.37-8.3 11.18-17.33 22.62-20.35 36.54-2.34 10.02-1.75 21.5 4.64 29.97 3.31 4.13 7.52 8.2899 13.03 8.97 5.85 0.88 11.56-1.6 16.42-4.64 7.98-5.11 14.6-12.01 20.84-19.07 12.16-14.03 22.6-29.82 28.9-47.37 6.47 14.97 12.79 30.22 22.5 43.45 3.71 4.88 7.62 9.7999 12.84 13.16 7.59 4.99 17.25 7.21 26.15 4.9199 7.92-2.08 15.12-7.96 17.77-15.84 2.7899-8.5601 0.23-17.71-3.41-25.6-6.38-13.03-15.65-24.68-27.02-33.71 21.78-15.59 44.66-29.53 67.04-44.22 30.13-19.74 59.77-41.26 82.88-69.2 2.25-2.22 0.7999-7-2.83-5.76-3.5 1.88-5.52 5.74-8.3301 8.5-14.16 15.62-30.37 29.27-47.4 41.65-31.66 23-65.94 42.09-97.6 65.1-3.74-1.66-7.53-3.79-11.7-3.86-2.99 0.61-6.79 5.5699-3.67 7.8099 14.9 3.85 25.68 15.81 34.54 27.7 4.9199 6.88 9.5499 14.4 10.96 22.88 0.98 5.2899-0.7999 11.5-5.63 14.37-5 2.7899-11.04 3.1899-16.6 2.2899-7.67-1.39-13.61-7.0399-18.33-12.88-11.9-14.55-18.76-32.28-26.09-49.37-3.1699-0.6799-5.46 1.67-6.7899 4.24-2.78 0.2301-5.92 1.3-6.78 4.28-5.1901 14.76-14.2 27.76-23.86 39.91-5.6901 6.95-11.54 14-19.09 19-4.0099 2.5-8.8999 4.6799-13.68 3.27-4.81-1.39-7.97-5.74-10.02-10.05-3.17-7.16-4.82-15.53-2.2-23.12 2.72-8.21 7.93-15.26 12.9-22.22 11.29-16.09 25.11-30.15 37.66-45.21 2.26-1.9701 1.25-6.7101-2.24-5.8601-17.21 1.3-33.78-5.6-47.98-14.73-8.88-5.8199-17.68-12.24-24-20.91-3.83-5.5-7.09-11.96-6.54-18.86 0.33-5.61 3.04-11.79 8.5699-13.99 5.14-1.9099 10.85-0.8999 15.97 0.61 8.64 2.8 16.86 6.8 24.67 11.41 14.6 9.04 28.82 18.85 41.67 30.28 3.36 3.49 8.12 6.2 9.22 11.28 14.41-2.24 28.25-7.51 41.49-13.56 17.75-8.3099 34.18-19.27 49.22-31.8 29.37-24.52 53.51-54.72 74.08-86.83 1.29-1.59 1.3201-3.5 0.72-5.37-2.4598-0.0397-5.4298-0.1097-6.7198 2.4303z" fill="#8CC63E"/>
	<path d="m993.58 246.09c9.54-19.06 23.24-36.29 40.52-48.85-3.2 5.96-9.21 9.38-13.79 14.11-8.58 8.01-14.98 17.97-21.09 27.89-1.36 1.96-1.92 5.64 0.98 6.49 12.13 3.49 24.57 5.85 36.79 9.03 14.44 2.97 28.6 7.12 43.01 10.22 7.04 2.2 14.47 2.88 21.41 5.44 8.4299 1.93 16.86 3.9 25.3 5.79 6.4701 2.41 13.36 3.17 19.96 5.14 6.85 1.67 13.87 2.62 20.69 4.47 10.75 3.85 22.21 4.99 33.09 8.42 5.8101 2.04 12.21 1.57 17.85 4.15 4.4299 1.84 9.2999 2.01 13.86 3.42 6.1 1.83 12.32 3.29 18.63 4.22 0-4.67 0.0499-9.35-0.05-14.02 0.01-5.81-2.27-11.28-2.88-17.01-0.58-5.59-3.2999-10.59-4.8099-15.92-2.3-8.3-6.87-15.66-10.95-23.16-2.0699-3.95-6.16-6.92-6.3199-11.71 18.71 23.79 28.12 54.46 27.57 84.61-86.61-20.85-173.17-41.85-259.77-62.73z" fill="#94BD55"/>
	<path d="m878.38 257.55c5.39-0.88 10.66-3.33 16.23-2.12-36.41 9.31-73.07 17.7-109.56 26.68-19.26 4.46-38.37 9.63-57.7 13.7 5.05-3.63 11.44-3.6 17.15-5.51 12.93-3.81 26.31-5.84 39.19-9.86 3.92-1.22 8.1-1.35 11.98-2.72 6.49-2.71 13.6-3.06 20.32-4.96 5.67-0.77 10.66-4.04 16.41-4.44 9.14-1.25 17.86-4.57 27-5.94 6.49-0.94 12.51-3.75 18.98-4.83z" fill="#92BF58"/>
	<path d="m748.57 1093.2c6.33-1.37 11.95 2.8301 18.27 2.17-0.94 0.4401-1.86 0.88-2.78 1.35 11.21 2.64 21.9 6.99 32.98 10.06 1.75 0.1899 2.55 1.64 3.2401 3.1-17.18-5.75-34.51-11.03-51.71-16.68z" fill="#92BF58"/>
	<path d="m944.9 255.87c12.64-0.38 25.27 0.11 37.9 0.64-11.1 31.12-11.8 66.05-0.57 97.23 9.37 26.49 26.79 50.04 49.36 66.78 19.55 14.49 42.89 23.98 67.07 26.89 38.41 5.07 78.61-6.55 108.39-31.33 15.61-12.72 28.26-28.94 37.25-46.93 4.3099-8.26 6.9099-17.22 10.15-25.89 33.96 19.77 66.92 41.31 98.32 64.95 58.55 44.04 112.97 93.64 161.77 148.3 3.0499 3.48 6.14 6.94 9.08 10.53-24.23 28.81-50.97 55.38-78.21 81.32-59.18 54.79-123.68 104.23-193.96 144-72.77 41.13-152.42 71.92-235.73 82.19-53.47 6.86-108 4.2-160.78-6.6-45.14-9.16-88.97-24.09-130.97-42.89-51.71-23.25-100.63-52.38-146.76-85.25-60.2-43.13-115.97-92.38-166.54-146.47-7.85-8.7-16-17.15-23.24-26.37 23.99-28.38 50.18-54.8 77.22-80.26 52.57-49.07 109.57-93.57 171.02-131.02 11.82-7.18 23.78-14.16 36.02-20.61 7.15 35.15 28.31 67.06 57.66 87.62 32.44 23.09 74.85 31.27 113.62 22.3 32.9-7.42 62.84-27.06 82.79-54.24 24.43-32.6 33.59-76.01 24.46-115.7-1.24-6.5499-3.87-12.71-5.32-19.19m-193.28 328.74c-0.17 19.29-7.9 38.64-22.04 51.93-13.16 13.35-31.77 20.45-50.38 20.88-0.01 1.1 0 2.21 0.02 3.33 17.74 0.43 35.22-6.36 48.83-17.58 30.57 30.3 68.67 52.25 109.07 66.6 49.52 17.53 102.58 24.37 154.97 21.84 43.26-2.12 86.36-10.81 126.6-27 35.7-14.35 69.13-35.04 96.37-62.37 9.5099 7.97 20.77 14.03 32.93 16.73 5.71 1.11 11.68 2.47 17.48 1.34 1.2101-3.78-3.21-2.83-5.48-3.27-25.44-1.65-49.4-17.79-60.1-40.98-5.0601-9.67-6.61-20.58-7.59-31.29-0.7201-0.15-2.16-0.45-2.88-0.6-0.9301 12.01 2.4199 24.07 7.7 34.78 2.73 6.23 7.27 11.33 11.05 16.91-29.87 30.21-67.7 51.67-107.61 65.63-46.68 16.4-96.55 22.81-145.91 21.04-26.92-1.09-53.77-4.73-79.93-11.22-51.25-12.55-100.7-36.3-138.74-73.4-1.29-1.02-0.28-2.41 0.56-3.31 11.91-13.66 19.28-31.94 18.24-50.17-1.0599 0.05-2.1199 0.11-3.1599 0.18z" fill="#006837"/>
	<path d="m344 858.86c36.88-3.44 73.73 4.67 108.44 16.59 62.82 22.16 120.17 57.27 173.8 96.32 3.89 3.17 8.3 5.72 11.87 9.26-2.78 20.89-5.02 41.92-4.86 63.04-0.93 73.72 18.78 146.47 49.57 213.03 1.68 3.8101 3.96 7.4 5.04 11.46 0.61 3.1599 1.79 6.1899 2.44 9.35-0.24 0.49-0.72 1.47-0.96 1.96-23.69-30.13-47.86-60.02-75.2-86.95-23.91-24.42-50.32-46.47-79.18-64.83-33.46-21.3-69.98-37.74-107.99-49.07-4.18-1.75-8.31 3.0499-7.37 7.09 19.84 6.24 39.52 13.11 58.43 21.83 33.59 15.24 64.99 35.17 93.52 58.53 49.19 40.66 89.29 90.81 127.45 141.62 2.71 3.5801 6.84-0.1599 8.29-2.99 37.27 65.51 83.52 125.65 135.17 180.42 25.01 26.67 51.33 52.13 78.87 76.17 2.38 2.3601 5.94 4.02 6.75 7.54-38.12-5.04-76.73-4.03-115.01-1.9299-10.2-1.87-20.24-4.53-30.32-6.92-78.46-19.66-154.86-49.46-223.39-92.74-33.73-21.39-65.46-46.05-93.91-74.11-52.07-51.77-100.28-107.63-141.68-168.33-21.69-31.93-41.4-65.27-57.79-100.24-11.83-25.53-21.89-51.98-28.45-79.37-8.17-34.33-11.13-71.23 0.03-105.25 9.55-29.79 31.63-55.29 59.83-68.86 14.58-7.07 30.51-11.11 46.61-12.62z" fill="#006837"/>
	<path d="m1501 867.11c21.54-5.57 43.71-9.39 66.03-8.98 20.93-0.04 42.05 4 61.03 12.96 17.66 8.48 33.19 21.41 44.54 37.39 10.37 14.4 17.05 31.24 20.48 48.6 3.96 21.17 3.45 43 0.3899 64.25-5.96 39.11-20.11 76.47-37.16 112-33.02 67.23-77.15 128.39-125.67 185.22-25.6 29.64-52.33 58.34-80.68 85.37-56.27 52.29-123.53 91.8-194.62 120.37-35.13 14.17-71.27 25.76-107.97 35.09-5.4199 1.17-10.73 3.3199-16.35 3.03-37.45-0.73-75.06 0.2-112.11 6.1-5.78 0.92-11.43 2.5-17.25 3.13 12.22-11.46 25.12-22.21 37.28-33.75 13.61-13.05 27.41-25.93 40.34-39.67 63.4-65.42 119.82-138.4 161.42-219.69 2.0399 0.9299 4.83 1.86 6.3199-0.5 23.5-31.27 47.67-62.14 74.21-90.9 25.56-27.54 53.22-53.41 84.4-74.52 32.05-21.79 67.11-39.21 103.97-51.24 4.65-1.73 9.4901-2.9301 14.17-4.59 3.3-1.0801 5.21-5.86 2.54-8.52-37.79 10.81-74.07 26.88-107.49 47.58-33.01 20.27-62.77 45.48-89.79 73.15-20.77 21.34-39.95 44.17-58.48 67.46-3.24 3.6101-5.59 8.0701-9.28 11.23-1.85 1.12-3.54 2.47-4.98 4.08 0.89-2.95 1.25-6 1.52-9.04 1.47-5.4299 4.35-10.39 6.2-15.71 17.26-43.15 29.53-88.47 34.35-134.76 4.12-38.71 2.79-77.96-3.5699-116.36 13.89-10.97 28.64-20.8 43.29-30.71 50.46-33.05 104.37-62.31 162.92-78.07z" fill="#006837"/>
	<path d="m1084.3 1568.3c24.24-1.17 48.53-0.41 72.76 0.59 48.39 2.4301 96.69 7.7 144.31 16.74 25.09 4.85 50.05 10.7 74.28 18.91 13.28 4.6699 26.6 9.8099 38.38 17.63 4.65 3.48 9.99 7.27 11.48 13.23 1.11 4.9399-3.08 8.8199-6.7 11.43-6.1801 4.11-13.32 6.5-20.36 8.6899-21.27 6.17-43.43 8.27-65.41 10.01-15.3 1.2-30.65 1.12-45.97 1.72-73.2-0.54-146.55-7.3199-218.1-23.1-27.45-6.53-55.17-13.65-80.32-26.77-6.59-3.75-13.55-7.73-17.84-14.19-2.78-3.9-1.59-9.4801 1.91-12.51 6.23-5.5601 14.31-8.4 22.14-10.92 19.55-5.8099 39.92-8.12 60.16-9.95 9.7602-0.6002 19.5-1.5001 29.28-1.5101z" fill="#006837"/>
	<path d="m695.98 1586.3c50.97-8.0901 102.41-13.77 154.03-14.87 28.93-0.3301 58.11-0.3401 86.65 5.01 7.67 1.62 15.42 3.5699 22.37 7.33 2.77 1.38 4.77 3.8099 6.62 6.24-1.52 3.38-1.52 7.6-4.44 10.21-5.34 5.25-11.98 8.9-18.52 12.42-18.7 9.28-38.6 15.85-58.62 21.63-39.32 11.47-79.63 19.21-120.06 25.6-51.98 7.86-104.47 12.85-157.06 13.37-8.55 0.27-17.07-0.6-25.61-0.62-14.89-0.35-29.75-1.7999-44.42-4.33-8.62-1.75-17.44-3.67-25.16-8.0601-3.06-2.02-6.8-5.11-5.93-9.23 1.66-5.78 6.99-9.28 11.6-12.61 15.5-10.22 33.2-16.39 50.64-22.4 41.68-13.57 84.73-22.46 127.91-29.69z" fill="#006837"/>
	<path d="m952.99 883.87c76.05 0.59 151.36-17.66 221.19-47.09 0.4299 0.28 1.3099 0.83 1.74 1.1-10.14 3.82-19.85 8.72-30.19 11.99-6.4399 2.77-13.06 5.05-19.78 7.01-9.3899 3.27-18.97 5.89-28.53 8.58-8.75 3.18-18.16 4.03-26.81 7.46-8.65 0.12-16.78 3.34-25.26 4.58-7.7899 1.09-15.48 2.91-23.34 3.41-4.94 0.11-9.39 3.06-14.37 2.54-4.24-0.36-8.49-0.12-12.66 0.68-8.57 1.58-17.31 0.95-25.97 1.03-11.68 0.07-23.36 0.11-35.03-0.0099-10.72-0.12-21.32-1.87-32.03-2.09-7.93-1.54-15.98-2.32-23.97-3.53-9.92-1.17-19.69-3.35-29.49-5.26-5.13-1.48-10.35-2.55-15.62-3.34-5.35-1.61-10.73-3.13-16.14-4.49-0.29-0.51-0.87-1.55-1.16-2.06 44.77 12.08 90.98 19.44 137.42 19.49z" fill="#91C05A"/>
	<path d="m1293 1028.9c0.79-11.71-3.6799-23.38-1.47-35.02 6.73 47.55 3.85 96.21-5.89 143.16-9.4 44.82-25.2 88.14-45.24 129.26-5.79 11.58-11.46 23.27-18.19 34.34 0.46-5.64 4-10.22 6.5299-15.07 7.24-12.83 12.78-26.5 19.11-39.78 4.0801-7.9399 6.8201-16.45 10.48-24.57 1.1399-2.79 1.25-5.87 2.4299-8.64 4.9401-10.07 8.52-20.79 11.43-31.61 7.2999-21.91 12.48-44.55 15.71-67.42 2.49-9.96 3.02-20.27 3.5601-30.47 2.7499-17.93 0.7597-36.13 1.5398-54.18z" fill="#91C05A"/>
	<path d="m893.91 1079.5c8.3701-3.21 16.09-7.91 23.11-13.47-0.63 1.25-0.79 2.9099-2 3.8199-4.03 3.28-8.73 5.5601-13.32 7.9401-0.94 0.6299-2.3 1.0299-2.65 2.23 0.82 1.46 2.23 2.4099 3.58 3.37 4.41 2.97 8.89 5.85 13.61 8.3199 0.06 0.91 0.12 1.84 0.2 2.78-7.42-5.1299-15.03-9.9799-22.53-14.99z" fill="#91C05A"/>
	<path d="m658.18 918.18c1.49-4.91 2.81-9.88 4.75-14.63 1.76 8.11-4.58 14.94-3.65 22.98-0.6201 0.11-1.23 0.23-1.82 0.36-1.19 6.78-3.88 13.19-4.78 20.04-2.45 9.9-4.92 19.86-5.71 30.07-0.29 5.45-2.52 10.55-2.99 15.97-0.93 6.63-0.38 13.42-1.96 19.97-1.27 5.6-0.72 11.38-0.82 17.07 0.08 5.05-0.96 10.08-0.38 15.13 2.57-0.15 5.23-0.08 7.57 1.16l-1.63 0.58c-3.79-1.35-7.82 2.39-7.22 6.23 5.09 4.67 11.35 7.85 17.13 11.59-1.62 0.03-3.48 0.6901-4.81-0.5599-3.58-2.5601-7.2-5.0601-11.13-7.05 1.15 8.6-0.44 17.36 1.45 25.88 1.26 5.92 0.77 12.03 1.79 17.99 0.76 4.66 1.3701 9.3401 1.9901 14.02 0.77 6.0801 2.58 11.97 3.2 18.08 0.58 5.7899 2.88 11.2 3.83 16.92 1.06 6.79 3.65 13.2 5.16 19.89 2.61 8.04 4.25 16.42 7.91 24.09 1.23 2.2201 1.04 4.73 0.57 7.15l-0.09 0.8c-15.5-43.34-25.13-88.9-27.35-134.91-2.4401-50.23 4.6599-100.69 18.99-148.82z" fill="#91BF4F"/>
	<path d="m1237.5 955.53c1.29-2.54 4.26-2.47 6.72-2.4301 0.6001 1.87 0.5701 3.78-0.72 5.37-20.57 32.11-44.71 62.31-74.08 86.83-15.04 12.53-31.47 23.49-49.22 31.8-13.24 6.05-27.08 11.32-41.49 13.56-1.1-5.0801-5.86-7.79-9.22-11.28-12.85-11.43-27.07-21.24-41.67-30.28-7.8101-4.61-16.03-8.61-24.67-11.41-5.12-1.5099-10.83-2.5199-15.97-0.61-5.53 2.2001-8.24 8.38-8.5699 13.99-0.55 6.9 2.71 13.36 6.54 18.86 6.32 8.6699 15.12 15.09 24 20.91 14.2 9.13 30.77 16.03 47.98 14.73 3.49-0.85 4.5 3.89 2.24 5.8601-12.55 15.06-26.37 29.12-37.66 45.21-4.97 6.96-10.18 14.01-12.9 22.22-2.62 7.59-0.97 15.96 2.2 23.12 2.05 4.3101 5.21 8.66 10.02 10.05 4.78 1.4099 9.67-0.77 13.68-3.27 7.55-5 13.4-12.05 19.09-19 9.6599-12.15 18.67-25.15 23.86-39.91 0.86-2.98 4-4.0499 6.78-4.28 1.33-2.5699 3.62-4.9199 6.7899-4.24 7.3301 17.09 14.19 34.82 26.09 49.37 4.72 5.8401 10.66 11.49 18.33 12.88 5.5599 0.9 11.6 0.5 16.6-2.2899 4.8301-2.87 6.61-9.0801 5.63-14.37-1.41-8.4801-6.04-16-10.96-22.88-8.86-11.89-19.64-23.85-34.54-27.7-3.12-2.24 0.6801-7.2 3.67-7.8099 4.1699 0.0699 7.96 2.2 11.7 3.86 31.66-23.01 65.94-42.1 97.6-65.1 17.03-12.38 33.24-26.03 47.4-41.65 2.8101-2.76 4.8301-6.62 8.3301-8.5 3.6299-1.24 5.08 3.54 2.83 5.76-23.11 27.94-52.75 49.46-82.88 69.2-22.38 14.69-45.26 28.63-67.04 44.22 11.37 9.03 20.64 20.68 27.02 33.71 3.64 7.89 6.2 17.04 3.41 25.6-2.65 7.88-9.85 13.76-17.77 15.84-8.9 2.29-18.56 0.0701-26.15-4.9199-5.22-3.3601-9.13-8.28-12.84-13.16-9.71-13.23-16.03-28.48-22.5-43.45-6.3 17.55-16.74 33.34-28.9 47.37-6.24 7.0599-12.86 13.96-20.84 19.07-4.86 3.04-10.57 5.52-16.42 4.64-5.51-0.6801-9.72-4.84-13.03-8.97-6.39-8.4701-6.98-19.95-4.64-29.97 3.02-13.92 12.05-25.36 20.35-36.54 8.5001-10.79 17.57-21.14 26.74-31.37-20.29-0.78-39.35-10.16-54.99-22.63-9.77-7.4701-17.79-17.61-21.33-29.5-2.01-6.8201-2.21-14.53 1.19-20.95 4.2-7.86 12.82-13.08 21.73-13.3 10.75-0.38 20.92 4.0699 30.21 9.0399 21.62 12.38 42.76 26.39 59.89 44.66 35.63-8.35 67.44-28.67 93.79-53.61 22.69-21.33 41.75-46.23 58.59-72.35z" fill="#010300"/>
	<path d="m663.18 981.73c-3.06-3.25 1.06-6.97 3.84-8.57 2.96 1.89 5.55 4.25 8.1 6.65 33.07 29.23 70.46 54.71 112.68 68.57 20.19 6.37 41.42 10.46 62.65 9.46 8.91-16.49 20.74-31.23 33.47-44.91 9.62-10.09 19.3-20.6 31.67-27.36 6.02-3.29 13.31-5.45 20.06-3.14 8.78 3.18 15.71 11.37 16.79 20.75 1.31 10.99-2.58 21.9-7.94 31.34-7.18 12.04-16.7 22.61-27.48 31.53-7.02 5.5599-14.74 10.26-23.11 13.47 7.5 5.01 15.11 9.86 22.53 14.99 10.99 7.51 21.56 15.73 30.73 25.4 5.56 5.76 10.62 12.57 12.06 20.62 0.88 5.59 0.74 11.33-0.06 16.94-0.94 6.3301-3.86 12.67-9.3 16.35-6.22 4.51-14.56 4.12-21.56 1.89-10.35-3.2899-19.39-9.5699-28.14-15.84-13.3-9.72-25.77-21.04-34.72-34.99-2.58 19.74-4.99 40.49-16 57.61-6.06 8.95-15.55 16.14-26.42 17.71-6.8701 1.0601-14.06-1.35-19.03-6.1499-6.47-6.5-7.32-16.5-6.02-25.13 2.38-15.73 9.58-30.32 18.25-43.51-53.15-20.24-110.04-31.7-159.56-60.71-5.78-3.74-12.04-6.9199-17.13-11.59-0.6-3.84 3.43-7.58 7.22-6.23 12.44 9.24 26.22 16.52 40.2 23.15 19.96 9.1599 40.67 16.59 61.61 23.16 17.2 5.65 34.53 10.93 51.71 16.68 7.5699 2.77 15.19 5.41 22.72 8.3199 3.83-3 7.61-6.6899 12.7-7.1899 0.77 2.67 1.02 6.21-1.85 7.75-12.09 7.3101-19.25 20.27-23.88 33.23-3.08 8.87-6.1299 18.46-3.97 27.9 2.34 9.48 13.94 14.33 22.77 11.08 8.75-3.26 15.11-11.08 18.65-19.49 6.34-15.76 8.38-32.76 11-49.42 0.56-3.6801 4.65-5.66 8.06-4.5901-0.22 1.76-0.46 3.52-0.71 5.3 1.57-2.2 5.11-5.48 7.54-2.51 11.1 15.9 26.41 28.3 42.44 38.96 6.94 4.3301 14.18 8.6801 22.33 10.24 3.6 0.7201 8.08 0.1901 10.32-3.0699 5.85-8.8101 5.23-20.69-0.25-29.52-4.4901-7.59-10.8-13.93-17.55-19.52-15.58-13.06-32.97-23.68-49.66-35.22-3.85-2.23-0.55-7.76 3.04-8.04 9.13-1.6799 17.74-5.49 25.32-10.82 11.59-8.26 21.5-18.9 28.85-31.1 3.31-5.61 6.33-11.63 7-18.19 0.87-7.73-2.61-15.71-8.6-20.59-2.64-2.16-6.11-3.31-9.52-2.97-7.75 0.6-14.7 4.7-20.71 9.3701-9.19 7.29-16.7 16.39-24.16 25.37-6.41 7.64-12.68 15.42-18.31 23.67-2.7 4.14-5.83 8.15-7.0699 13.04-0.53 2.7001-3.04 4.6-5.77 4.49-31.99 1.35-63.83-6.52-92.85-19.66-35.12-15.96-66.64-38.97-94.98-64.96z" fill="#010300"/>
	<path d="m1246 1268.1c3.89-8.4501 7.48-17.07 11.74-25.34-0.27 3.04-0.63 6.0901-1.52 9.04 1.4399-1.61 3.13-2.96 4.98-4.08-4.35 7.27-10.09 13.64-15.2 20.38z" fill="#11603A"/>
	<path d="m687.86 1268.6c2.76 3.98 4.58 8.5099 6.83 12.79 2.47 5.09 5.55 9.88 7.63 15.16-4.74-5.21-8.87-10.95-12.98-16.64 0.24-0.49 0.72-1.47 0.96-1.96-0.65-3.16-1.83-6.19-2.44-9.3499z" fill="#0F5E3D"/>
</svg>