<?xml version="1.0" encoding="UTF-8"?>
<svg viewBox="0 0 762 540" xmlns="http://www.w3.org/2000/svg">
 <g transform="translate(12.429 -239.51)">
  <g transform="translate(42.857 -28.571)">
   <path d="m-55.286 538.08c0-270 0-270 381-270s381 0 381 270 0 270-381 270-381 0-381-270z" fill="#dddfd8"/>
   <path d="m204.47 761.04c-18.48-3.111-28.785-22.984-29.282-56.466-0.29621-19.958-1.5274-25.415-3.3843-15-0.68642 3.85-1.9008 9.025-2.6985 11.5-0.79776 2.475-1.6992 7.875-2.0031 12-0.68097 9.2418-1.8524 12.482-5.4348 15.033-1.5302 1.0896-3.7196 3.9176-4.8654 6.2845-4.5345 9.367-13.922 13.916-35.238 17.075-5.3071 0.78644-10.627 1.9529-11.821 2.5922-23.79 12.732-50.43-1.1381-59.511-30.984-0.92038-3.025-2.5181-7.525-3.5505-10-3.093-7.4149-3.328-13.484-0.87115-22.5 3.5452-13.01 3.6061-15.282 0.44192-16.485-3.6327-1.3811-3.5385-1.4452-3.5385 2.4074 0 8.6052-25.024 19.442-31.931 13.828-4.5492-3.6976-13.037-42.633-15.097-69.25-1.7383-22.466-2.9965-37.007-4.0669-47-0.55967-5.225-1.4523-23.225-1.9835-40s-1.2181-33.255-1.5262-36.623c-1.0274-11.23-4.4214-10.682 61.39-9.9052 50.268 0.59342 120.17-0.73218 154.21-2.9247 3.575-0.2302 16.175-0.90486 28-1.4992s25.123-1.5233 29.552-2.0642c20.302-2.4797 26.394-0.87933 27.785 7.299 1.7015 10.001 2.8656 27.063 2.4439 35.821-0.64142 13.32-0.79124 13.181 13.066 12.172 13.498-0.98237 50.525-1.0016 68.153-0.0354 23.188 1.2709 45.872 2.8363 62.69 4.326 20.117 1.7819 19.962 1.7835 20.725-0.20459 0.34585-0.90127 1.0938-5.9638 1.6621-11.25 5.5294-51.434 5.6017-49.255-2.1429-64.596-10.09-19.987-9.3443-22.911 6.2634-24.547 4.5664-0.47883 11.903-1.3802 16.303-2.0031 12.333-1.7459 24.38 0.57116 28.447 5.4713 0.78041 0.94034 3.249 2.6384 5.4858 3.7735 15.386 7.8076 17.801 14.124 9.1138 23.835-3.4417 3.8472-6.8328 44.209-5.195 61.832 0.46376 4.9899 0.24208 8.2732-0.75371 11.163-1.0382 3.0133-1.1054 4.2012-0.25445 4.4982 1.2099 0.42234 12.597 2.9336 21.156 4.6655 6.9295 1.4022 9.4892 4.382 9.5368 11.102 0.0202 2.8568 0.60434 8.1235 1.2981 11.704 0.72712 3.7525 1.1028 11.05 0.88705 17.23-0.42697 12.23-1.6378 10.796 13.778 16.326 45.282 16.244 82.531 45.412 86.072 67.4 0.53153 3.3005 2.0828 8.1006 3.4473 10.667 8.2847 15.581-11.836 20.008-58.477 12.864-5.7789-0.88507-18.118-1.7007-27.581-1.8231-19.031-0.2462-20.813-0.7644-24.58-7.1488-2.2506-3.8144-3.0552-4.089-16.314-5.5675-10.678-1.1907-11.678-0.94688-9.5917 2.3385 16.116 25.375 4.4795 43.477-29.204 45.429-11.44 0.663-17.102-0.91336-22.814-6.3522-4.0563-3.862-5.957-4.2047-7.7143-1.3908-3.2589 5.2183-16.021 9.3099-24.423 7.83-5.962-1.0502-6.0739-1.0269-8.2631 1.7187-3.7423 4.6933-14.204-0.99103-18.45-10.025-1.1647-2.4778-2.3899-4.5051-2.7227-4.5051-1.529 0-9.3847 9.1257-9.3847 10.902 0 12.613-36.729 14.251-47.19 2.104-2.6119-3.0329-5.1332-5.0051-6.3991-5.0054-11.616-3e-3 -16.069-19.211-7.5022-32.361 2.2501-3.4536 4.0912-6.8019 4.0912-7.4405 0-2.1365-16.117 0.46237-27.307 4.4032-3.744 1.3185-8.8223 2.3973-11.285 2.3973-6.7655 0-9.0397 2.0467-11.51 10.358-3.0787 10.359-9.2064 20.833-16.705 28.551-1.7313 1.7821-5.9757 8.4106-8.6436 13.499-3.8532 7.3485-8.4265 9.5281-22.36 10.656-6.7087 0.5433-13.35 1.426-14.759 1.9616-2.9519 1.1223-10.81 1.0956-17.674-0.06zm25.99-36.898c20.709-15.002 20.322-48.059-0.56266-48.067-5.6816-2e-3 -15.184 5.8044-15.184 9.278 0 0.48799-1.3801 4.3339-3.0669 8.5464-8.5548 21.365 3.7545 41.151 18.814 30.242zm-115.95-9.483c19.425-10.176 19.149-43.409-0.3553-42.849-13 0.37326-13.14 0.50092-23.59 21.499-5.148 10.345-3.9077 18.826 3.1659 21.648 3.8516 1.5367 17.654 1.3384 20.779-0.29864zm290.12-10.625c0.0418-3.047 0.75493-8.1462 1.5846-11.332 1.9834-7.6148 1.9663-7.6284-9.5676-7.6284-11.315 0-11.368 0.0597-5.9144 6.6411 4.6808 5.6483 8.9734 13.776 8.9734 16.99 0 1.2312 0.50227 3.5054 1.1162 5.0537 1.5356 3.8729 3.6968-1.6468 3.8078-9.7248zm-36.935 9.5532c1.6102-1.9402 1.8932-11.672 0.35505-12.212-1.9204-0.67393-8.344 5.6623-8.344 8.2305 0 4.5402 5.3234 7.193 7.989 3.9811zm121.11-8.619c2.8725-3.075 3.9526-7.8942 1.7692-7.8942-3.0434 0-7.868 4.2402-7.868 6.9149 0 5.0538 1.9936 5.3739 6.0988 0.97935zm-260.56-129.66c1.7652-1.2429 1.7785-42.174 0.0139-42.851-1.5969-0.61279-22.999 2.1557-35.307 4.5674-0.66044 0.1294-0.10698 4.5005 1.2101 9.5572 0.80308 3.0832 1.9531 9.2927 2.5556 13.799 1.3508 10.102 6.417 13.03 25.984 15.017 1.925 0.19551 3.725 0.42059 4 0.50019s0.96955-0.18588 1.5434-0.58996zm-173.74-2.1543c10.981-1.0493 13.482-5.4949 11.155-19.83-1.9877-12.25-5.429-14.039-16.811-8.7402-2.9421 1.3696-7.1187 2.4902-9.2814 2.4902-5.1338 0-5.439 0.98183-4.2258 13.593 1.3884 14.431 1.0597 14.217 19.163 12.487zm78.932-3.5804c0.13131-1.65 0.98657-8.9114 1.9006-16.136 1.7648-13.951 1.4947-17.022-1.3977-15.889-0.95786 0.37503-6.5332 1.0418-12.39 1.4817s-11.194 1.1374-11.862 1.55c-1.9434 1.2011 0.81652 16.378 4.8456 26.647 2.4235 6.1766 18.44 8.1653 18.903 2.3471zm292.42-135.43c-6.3111-5.3306-9.7485-7.4345-14.929-9.1374-8.5076-2.7966-13.988-5.966-20.545-11.881-5.1848-4.6773-5.1848-4.6773-17.841-5.8989-6.9608-0.67191-15.061-1.8992-18-2.7273-10.507-2.9602-12.937-2.9165-19.407 0.34849-11.718 5.9141-31.322 9.8384-43.437 8.6953-4.5855-0.43265-10.034 0.0167-18.5 1.5257-38.009 6.7751-79.337 0.78972-97.323-14.095-12.375-10.241-15.582-11.002-26.677-6.3318-13.604 5.7265-38.423 10.427-55.058 10.427-3.6282 0-5.9185 0.58688-7.6715 1.9658-27.635 21.738-80.986 1.4754-74.784-28.402 2.2302-10.743 5.9803-11.087 8.0229-0.73682 3.6658 18.576 9.4694 23.908 27.142 24.936 16.7 0.9717 17.326-0.46167 3.3398-7.6552-34.497-17.743-31.786-53.04 4.8871-63.627 12.708-3.6685 23.561-0.45951 34.586 10.226 6.9353 6.7218 7.1694 6.7482 9.0009 1.0182 7.1369-22.329 45.919-23.38 61.256-1.6613 1.7207 2.4367 1.7207 2.4367 5.884-1.9183 19.387-20.279 58.141-12.922 64.455 12.236 1.0367 4.1305 2.1533 4.0834 7.8771-0.33254 19.055-14.701 52.085-17.584 68.01-5.9357 2.4716 1.8077 5.1858 2.8869 7.2609 2.8869 13.348 0 34.672 23.008 34.55 37.278-0.0652 7.6331 5.6866 10.345 23.036 10.861 7.3159 0.21754 7.4022 0.10527 7.9122-10.287 0.7425-15.132 13.15-28.238 24.125-25.484 9.0668 2.2756 15.987 19.282 12.668 31.135-1.5414 5.5051-0.9426 6.3845 2.5022 3.6748 11.558-9.0916 33.77-8.6072 43.402 0.94663 14.561 14.442 6.8019 29.081-17.197 32.444-4.7933 0.67171-4.7933 0.67171-4.1351 5.0608 1.437 9.5823-3.4177 9.7324-14.412 0.44581zm23.339-20.685c9.073-3.6322 9.8651-6.6673 2.6789-10.264-13.27-6.6424-34.594 1.2185-28.412 10.474 2.2921 3.432 16.934 3.3125 25.733-0.20997zm-36.395-7.4976c0.33162-3.0842 0.92068-6.1217 1.309-6.75 1.1827-1.9137-0.18244-1.304-5.2791 2.3576-2.6794 1.925-5.3805 3.5-6.0023 3.5-2.3223 0-1.0168 3.0995 2.1194 5.032 5.3882 3.3202 7.1507 2.3911 7.853-4.1396zm-166.1-0.14245c-5.6e-4 -0.6875-2.3071-2.5452-5.1256-4.1283-6.8764-3.8622-12.381-9.7289-14.478-15.43-2.3978-6.5188-2.8678-6.8133-6.285-3.9378-4.0615 3.4176-14.968 7.3561-24.11 8.7068-13.327 1.969-14 2.1164-14 3.0678 0 1.448 9.0184 5.6809 17.161 8.0549 12.77 3.723 46.84 6.3901 46.838 3.6666zm39.604-7c13.04-5.1936 21.499-16.116 18.992-24.522-0.93969-3.1502-2.0204-8.6353-2.4015-12.189-1.3089-12.204-17.733-16.227-42.193-10.335-32.416 7.8089-36.571 34.305-7 44.639 14.476 5.0587 24.153 5.7732 32.603 2.4077zm33.897-0.66324c6.6654-2.3439 6.7465-4.0784 0.38156-8.1628-4.9433-3.1721-5.2694-3.2479-6.2974-1.4639-0.59629 1.0348-2.5467 3.5466-4.3342 5.5819-5.5123 6.2762-1.0752 8.0272 10.25 4.0448zm79.803-5.7803c6.4754-3.2637 8.3959-8.7075 5.6343-15.971-4.0994-10.782-19.345-0.20789-17.494 12.134 0.98943 6.598 4.2739 7.6606 11.86 3.8371zm-312.83-1.877c8.8015-9.497 7.0733-30.597-3.3856-41.335-20.347-20.889-58.238-1.0499-45.606 23.878 7.1962 14.201 40.884 26.205 48.992 17.457zm33.522 0.49408c8.4788-1.7689 9-1.9643 9-3.3752 0-0.77746-1.0125-1.7242-2.25-2.1039-3.9633-1.2159-14.118-7.6986-18.407-11.75-4.7484-4.4863-6.3433-4.185-6.3433 1.1983 0 2.0758-0.50732 6.3003-1.1274 9.3878-1.8976 9.4487 0.9463 10.436 19.127 6.6435zm217.34-5.3663c0.60491-1.5764-0.47005-6.0639-2.2486-9.3873-1.2709-2.3747-14.641-14.17-16.062-14.17-1.0179 0-1.162 13.243-0.15954 14.66 4.0677 5.7515 17.242 12.098 18.47 8.8971zm-140.69-6.0642c34.34-4.8434 31.455-42.849-3.1364-41.326-20.255 0.89177-26.54 7.9676-25.612 28.833 0.71584 16.091 1.335 16.36 28.749 12.493zm-45.276-1.5706c8.1495-6.4104 6.6368-27.165-2.5872-35.498-15.625-14.116-45.568-6.0765-42.298 11.357 3.114 16.599 33.617 33.005 44.885 24.142z" fill="#215bbf"/>
   <path d="m204.5 761.05c-18.894-3.1835-31.107-28.544-28.21-58.576 0.39713-4.1166 0.094-7.7729-0.93053-11.223-1.0741-3.6169-1.2531-6.0461-0.61052-8.2865 0.49997-1.7433 0.69925-3.5091 0.44284-3.9239-4.394-7.1096 27.57-29.945 46.183-32.993 19.868-3.2539 44.548 1.5222 51.617 9.9891 3.1343 3.7538 3.8584 1.5453 3.2116-9.796-1.1799-20.691-1.3369-23.694-1.4122-27.01-0.0548-2.4133-0.9634-4.1777-3.2526-6.3161-3.0116-2.8132-3.1019-3.1067-1.7397-5.6512 1.4579-2.7232 1.7801-17.585 0.54598-25.184-0.31262-1.925-0.81886-5.075-1.125-7-2.4999-15.721-1.33-27.824 3.2026-33.134 4.4721-5.2392 4.4721-5.2392 3.9824-13.75-0.26935-4.6811-0.0903-9.5616 0.39779-10.846 0.93125-2.4494-0.33146-9.7574-2.4612-14.245-2.0633-4.347-23.435-5.4885-49.626-2.6505-3.9047 0.4231-25.153 1.1227-65.5 2.1566-6.05 0.15504-20.225 0.54154-31.5 0.8589-19.88 0.55957-73.368 0.61283-83.5 0.0831-31.318-1.6373-40.146 0.66305-40.328 10.508-0.07255 3.9289-0.34287 7.4848-0.6007 7.902-0.59843 0.96828 1.097 32.342 2.492 46.116 1.3099 12.933 1.4261 14.574 2.8323 40 0.62358 11.275 1.7427 23.65 2.487 27.5s1.8922 10.15 2.5509 14c4.6183 26.993 7.8068 30.768 19.754 23.384 8.2851-5.1205 13.084 3.4415 5.634 10.053-4.433 3.934-17.492 9.0955-22.961 9.0752-6.8795-0.0256-8.648-4.3474-15.35-37.512l-3.0519-15.09c-0.56712-2.7995-1.0006-6.8495-0.96328-9 0.08428-4.8573-0.71261-17.106-1.5881-24.41-0.36259-3.025-0.7909-8.425-0.95179-12-0.1609-3.575-0.81781-11.225-1.4598-17-1.8771-16.885-2.5912-36.323-2.039-55.5 0.11085-3.85-0.50919-10.292-1.3779-14.315-3.2264-14.944-0.75993-20.065 9.0005-18.689 2.244 0.31654 6.969 0.54133 10.5 0.49952 35.98-0.42598 89.859-0.3634 97.92 0.11373 2.475 0.1465 6.075 0.23895 8 0.20545 5.1658-0.0899 44.307-1.448 53-1.839 4.125-0.18553 13.125-0.56 20-0.83216s14.3-0.75191 16.5-1.0661c4.1086-0.58678 5.8432-0.65562 9.75-0.38698 5.5282 0.38014 35.73-1.2782 38.345-2.1055 1.5977-0.50543 9.5241-1.1821 17.614-1.5037 19.532-0.77639 18.428-1.8983 20.865 21.195 0.65463 6.2018 0.97096 15.83 0.70297 21.395-0.68475 14.22-0.79903 14.129 16.507 13.154 22.304-1.2561 81.166-0.4012 83.784 1.2168 0.65802 0.40668 6.6493 0.88113 13.314 1.0544 12.911 0.33555 33.374 1.9715 42.901 3.4298 9.5393 1.4602 8.8131 2.8397 11.858-22.527 4.0542-33.774 3.4353-42.885-3.8912-57.282-9.3145-18.303-8.5114-20.226 9.301-22.271 4.4281-0.50822 10.452-1.3794 13.386-1.9359 11.572-2.1946 21.058-0.82163 27.062 3.9171 1.925 1.5192 5.075 3.5699 7 4.5572 14.813 7.5974 17.125 13.97 8.5469 23.559-3.4417 3.8472-6.8328 44.209-5.195 61.832 0.46376 4.9899 0.24208 8.2732-0.75371 11.163-1.038 3.0127-1.1052 4.2-0.25445 4.4936 9.6394 3.3269 17.228 5.3828 21.899 5.9325 6.9942 0.82315 8.7411 2.8109 8.7937 10.006 0.0202 2.7651 0.60434 7.9567 1.2981 11.537 0.72164 3.7243 1.1033 11.036 0.89199 17.088-0.43956 12.591-0.66285 12.326 14.773 17.5 5.225 1.7513 12.389 4.827 15.92 6.835s9.7123 5.0214 13.736 6.6964c27.717 11.539 52.593 35.311 55.438 52.977 0.54406 3.3783 2.0954 8.2203 3.4473 10.76 7.6713 14.41-14.85 19.916-54.349 13.287-9.6005-1.6113-18.259-2.2992-31.084-2.4696-19.605-0.26058-21.564-0.7962-24.636-6.7365-1.9936-3.8553-3.9831-4.5733-16.484-5.9488-11.123-1.224-12.106-0.99849-10.013 2.2967 16.116 25.375 4.4795 43.477-29.204 45.429-11.44 0.663-17.102-0.91336-22.814-6.3522-4.0563-3.862-5.957-4.2047-7.7143-1.3908-3.2589 5.2183-16.021 9.3099-24.423 7.83-5.962-1.0502-6.0739-1.0269-8.2631 1.7187-3.7393 4.6896-13.495-0.5274-18.145-9.7028-1.3454-2.6551-2.7133-4.8274-3.0396-4.8274-1.5203 0-9.3729 9.1336-9.3729 10.902 0 12.592-36.811 14.267-46.967 2.1378-3.0206-3.6078-4.9367-5.0396-6.744-5.0396-9.5995 0-14.985-20.266-7.6897-28.936 1.3202-1.569 2.4004-3.1435 2.4004-3.4989s1.0017-2.001 2.226-3.657c4.5476-6.151-9.071-5.8075-27.533 0.69446-3.744 1.3185-8.8223 2.3973-11.285 2.3973-6.7655 0-9.0397 2.0467-11.51 10.358-3.0787 10.359-9.2064 20.833-16.705 28.551-1.7313 1.7821-5.9757 8.4106-8.6436 13.499-3.8532 7.3485-8.4265 9.5281-22.36 10.656-6.7087 0.5433-13.35 1.426-14.759 1.9616-2.9483 1.1209-10.81 1.0959-17.647-0.0561zm22.826-33.012c18.002-6.8443 25.956-38.98 12.192-49.256-6.9425-5.1834-24.802-0.50427-24.802 6.498 0 0.53187-1.3711 4.3911-3.0468 8.5761-7.5299 18.805 1.9077 39.41 15.657 34.182zm140.31-12.708c3.5565-2.9067 3.6678-14.25 0.13992-14.25-2.4922 0-8.0596 6.2885-8.0596 9.1036 0 5.3236 4.2911 8.112 7.9196 5.1464zm37.679-10.849c0.82537-5.4455 1.9653-11.385 2.5331-13.199 1.6875-5.3912 0.21687-6.2016-11.255-6.2016-10.826 0-11.248 0.31002-7.0988 5.2152 6.2135 7.345 10.221 14.71 10.221 18.785 0 10.655 3.7543 7.5714 5.599-4.5992zm85.368 0.93014c2.1912-3.7138 2.1257-8.331-0.11823-8.331-2.723 0-7.849 4.2448-7.849 6.4998 0 6.6177 4.529 7.6586 7.9672 1.8312zm15.033-158.26c0-0.51254-1.35-1.8932-3-3.0681-3.3929-2.416-4.0435-10.292-1.9826-24 1.3018-8.6588 2.3515-33.394 1.5523-36.578-0.62098-2.4742-0.83405-2.5302-9.3526-2.461-4.7944 0.039-10.067-0.0488-11.717-0.19502-3-0.26589-3-0.26589-3.2519 9.2341-0.13855 5.225-0.72156 13.55-1.2956 18.5s-1.4728 13.95-1.9973 20-1.0665 11.881-1.2044 12.957c-0.383 2.9899 4.2876 4.6925 15.141 5.5195 14.413 1.0982 17.108 1.1125 17.108 0.0911zm-8.5982-83.026c6.0609-2.598 5.2424-4.3498-3.2306-6.9143-17.286-5.2319-26.715-4.2118-20.935 2.2649 5.2174 5.8469 16.368 7.9921 24.166 4.6494zm-418.59 292.49c-13.266-3.6537-25.476-19.382-29.634-38.175-0.50453-2.2802-1.6507-5.1928-2.547-6.4725-2.3832-3.4025-1.2419-23.287 1.5113-26.332 0.47242-0.5225 0.86572-2.0975 0.874-3.5 0.0595-10.072 16.443-31.239 28.826-37.243 3.6623-1.7755 7.5865-4.1903 8.7205-5.3662 1.5237-1.58 4.2642-2.4548 10.5-3.3518 4.641-0.6676 10.688-1.709 13.438-2.3143 47.676-10.493 75.999 22.7 58.543 68.612-0.59947 1.5767-1.3413 6.2972-1.6485 10.49-0.68607 9.363-1.847 12.597-5.4407 15.156-1.5302 1.0896-3.7196 3.9176-4.8654 6.2845-4.5345 9.367-13.922 13.916-35.238 17.075-5.3071 0.78644-10.627 1.9529-11.821 2.5922-7.1471 3.825-22.136 5.0471-31.219 2.5455zm32.925-39.454c12.948-3.7133 20.741-21.631 16.384-37.667-1.8333-6.7478-3.9648-7.9479-13.627-7.6721-13.054 0.37262-13.183 0.48934-23.639 21.499-8.2614 16.601 2.6569 29.066 20.881 23.84zm27.765-126.18c-2.6582-0.90406-20.367-3.8176-33.824-5.565-6.8192-0.88546-8.1155-3.0841-6.0242-10.218 1.4349-4.895 1.4314-5.7951-0.0401-10.352-0.88645-2.7447-1.6117-6.4394-1.6117-8.2104s-0.92017-6.023-2.0448-9.4489c-5.6726-17.28-3.4009-22.1 10.417-22.105 5.5702-2e-3 14.178-0.61046 19.128-1.3517 25.903-3.8786 31.468 0.0442 27.959 19.71-1.9289 10.81-2.4645 28.277-1.1696 38.146 1.1474 8.7443-3.8685 12.429-12.789 9.3953zm-5.7-17.095c0.66239-0.66239 1.211-3.9105 1.2244-7.25 0.0134-3.3275 0.45848-7.9303 0.98897-10.228 2.577-11.164 1.693-20.205-1.8401-18.821-0.92032 0.36062-6.4649 1.0156-12.321 1.4555-14.727 1.1063-14.923 1.501-9.6875 19.544 1.1171 3.85 2.2619 7.9988 2.544 9.2195 0.76095 3.2922 2.7662 4.5156 9.6156 5.8665 8.1312 1.6037 8.0872 1.6027 9.4759 0.21401zm105 17.67c-0.29162-0.29162-4.9791-0.96338-10.417-1.4928s-13.711-1.6906-18.386-2.5803-11.584-1.9134-15.353-2.2749c-8.873-0.85094-11.106-3.0973-9.9699-10.029 0.94987-5.795 0.86749-7.067-1.3737-21.211-1.817-11.467-3.187-14.881-5.9716-14.881-2.3409 0-6.3321-4.7211-6.3321-7.4901 0-3.3132 6.4306-6.2613 16.5-7.5644 3.85-0.49821 10.6-1.5871 15-2.4197 41.468-7.8472 43.114-6.7155 42.787 29.419-0.17427 19.224 0.054 23.927 1.25 25.752 4.3272 6.6042-2.624 19.883-7.7337 14.773zm-8.3284-36.167c0.0302-25.367 0.7366-23.948-11.146-22.379-6.6604 0.87952-23.764 3.5174-26.079 4.0222-0.65934 0.14377-0.10763 4.5035 1.2101 9.5628 0.80308 3.0832 1.9647 9.2906 2.5813 13.794 1.3898 10.15 1.0994 9.8278 11.697 12.987 22.348 6.6618 21.706 7.1934 21.736-17.987zm-200.02 33.834c-12.397-7.56-13.692-54.057-1.466-52.638 5.8907 0.68369 7.4326 0.16133 20.971-7.1044 20.495-10.999 32.854 2.9822 32.641 36.928-0.13561 21.654 0.75422 20.647-19.603 22.184-4.125 0.31136-9.525 0.98016-12 1.4862-7.8231 1.5996-17.154 1.2109-20.543-0.85582zm31.365-15.79c4.287-0.76942 4.8693-2.5249 4.7588-14.347-0.15973-17.079-4.3628-20.573-17.43-14.49-2.9421 1.3696-7.1187 2.4902-9.2814 2.4902-5.1363 0-5.4393 0.97918-4.2212 13.64 1.4583 15.159 4.4414 16.607 26.174 12.706zm369.68-135.48c-2.2-1.6461-5.35-4.2613-7-5.8115-3.7157-3.491-5.9354-4.6455-14.592-7.5898-7.8755-2.6786-15.069-7.2072-19.477-12.261-3.0691-3.5189-3.0691-3.5189-16.5-4.8845-7.387-0.75109-16.131-2.0978-19.431-2.9926-10.512-2.8504-12.63-2.7987-19.099 0.46627-11.682 5.8957-31.303 9.8185-43.401 8.677-4.5855-0.43265-10.034 0.0167-18.5 1.5257-36.935 6.5838-76.765 1.2103-95.921-12.941-3.0686-2.2669-5.5792-4.5483-5.5792-5.0697 0-4.5946-13.808-6.0756-22.5-2.4133-10.081 4.2476-18.534 6.593-26.957 7.48-4.4234 0.46582-11.193 1.3042-15.043 1.863s-9.5268 1.0308-12.615 1.0488c-4.0316 0.0235-6.3199 0.58707-8.1142 1.9985-27.488 21.622-78.063 3.0422-73.88-27.142 1.3826-9.9771 5.3105-12.441 6.5798-4.1268 2.4855 16.281 7.9563 24.123 18.703 26.808 3.48 0.86966 7.9357 1.9962 9.9016 2.5034 12.795 3.3012 16.833-3.2843 5.2206-8.5142-21.497-9.682-29.775-24.164-24.345-42.594 3.6438-12.367 30.565-26.029 43.331-21.988 1.77 0.56021 4.4204 1.2589 5.8896 1.5526 3.7066 0.74095 10.742 6.3137 13.968 11.064 3.6469 5.3699 5.7978 5.1811 7.5005-0.65827 5.8144-19.941 49.477-23.17 59.103-4.3709 2.3528 4.5948 3.2869 4.6595 8.2023 0.56808 2.5051-2.0852 5.9376-4.4989 7.6276-5.3637s3.6577-2.2771 4.3724-3.1384c0.81697-0.98439 3.0182-1.592 5.9272-1.6362 2.5452-0.0387 5.4438-0.39211 6.4414-0.78546 4.9953-1.9696 24.686 1.9078 24.686 4.8611 0 0.52469 1.7098 1.8263 3.7996 2.8924 4.0968 2.09 9.8751 10.226 10.899 15.345 0.89004 4.4502 2.4308 4.3073 10.438-0.96773 15.388-10.138 46.855-16.307 54.034-10.594 0.73105 0.58177 3.0034 1.3593 5.0497 1.7279s4.9713 1.7096 6.5 2.98 4.7853 2.6227 7.237 3.0052c16.021 2.4994 34.36 22.43 34.244 37.217-0.0618 7.897 2.8703 9.6236 19.151 11.277 12.868 1.3072 12.645 1.399 12.656-5.1976 0.0214-12.762 0.90942-15.653 6.5381-21.281 2.8737-2.8737 5.3888-5.7131 5.5891-6.3097 1.1568-3.4463 15.393-2.4071 18.244 1.3319 10.869 14.251 6.2022 39.568-7.2944 39.568-2.4477 0-0.82314 3.1777 3.0642 5.9937 6.5476 4.7431 7.85 3.9078 7.85-5.035 0-12.399 30.694-22 43.431-13.585 20.265 13.389 13.541 32.513-12.724 36.194-4.7933 0.67171-4.7933 0.67171-4.1351 5.0608 1.1576 7.7196-2.2767 9.3252-9.0716 4.241zm18.674-23.669c1.959-1.2107 4.3103-2.2013 5.2251-2.2013 4.5825 0 2.4054-6.0564-3.1829-8.8541-13.409-6.7129-34.436 1.0951-28.423 10.554 2.5357 3.989 20.195 4.3244 26.381 0.5011zm-204.42-6.7532c3.4247-0.73997 2.6901-3.2802-1.5-5.1866-8.8608-4.0316-12.048-7.0276-15.73-14.786-4.0205-8.4724-3.7567-8.2955-7.5762-5.0817-3.911 3.2908-14.939 7.2368-23.944 8.5672-13.212 1.952-14 2.1162-14 2.9184 0 1.2262 10.445 8.1209 12.302 8.1209 0.91069 0 4.4778 0.90756 7.9268 2.0168 10.363 3.3329 34.108 5.249 42.521 3.4313zm44.879-8.8335c13.253-7.2366 18.183-15.62 15.411-26.203-1.122-4.2836-2.04-9.4855-2.04-11.56 0-4.0542-3.5684-8.4999-7.5-9.344-10.45-2.2435-14.824-2.6647-21.475-2.0675-27.046 2.4286-42.875 13.74-40.586 29.005 2.5395 16.935 38.485 29.837 56.19 20.169zm32.121 0.27386c6.0633-2.5927 5.6925-4.9163-1.4355-8.9945-5.3865-3.0818-5.7415-3.1549-6.75-1.389-0.58548 1.0251-2.752 3.7437-4.8145 6.0413-6.7247 7.4912 0.2148 9.8091 13 4.3422zm76.773-4.3333c8.0225-3.352 10.346-9.1466 6.9387-17.302-4.6105-11.035-19.828-2.2381-18.088 10.456 1.1507 8.3949 3.6982 9.9593 11.149 6.8462zm-315.43-0.56428c23.274-6.4652 5.4528-55.095-19.711-53.786-26.103 1.3584-39.351 31.009-18.627 41.69 2.0594 1.0614 5.2907 3.5396 7.1805 5.5071 1.9795 2.0608 4.8231 3.8374 6.7081 4.191 1.7996 0.33761 4.9784 1.2225 7.0639 1.9665 4.5289 1.6156 12.417 1.8112 17.385 0.43122zm39.407-2.0224c9.405-1.7538 11.017-4.6525 3.8947-7.0031-4.9533-1.6348-14.295-7.4623-18.421-11.491-4.9292-4.8133-5.6163-4.4566-6.31 3.2762-0.33304 3.7125-0.8977 8.8491-1.2548 11.415-0.86991 6.2499 4.248 7.1311 22.092 3.8036zm215.86-5.4602c2.1035-5.4816-13.055-24.508-19.526-24.508-2.2581 0-0.52719 14.276 1.9839 16.362 1.415 1.1757 3.7228 3.3131 5.1283 4.7499 4.7275 4.8324 11.185 6.5988 12.414 3.3958zm-145.36-4.793c5.0377-0.16669 7.7373-0.88367 12-3.1871 3.025-1.6346 6.7108-3.5142 8.1907-4.1768 20.339-9.1073 4.992-37.311-19.679-36.164-20.061 0.93264-26.131 7.5144-25.649 27.813 0.40759 17.164 0.55671 17.386 11.107 16.536 4.1418-0.33343 10.455-0.70303 14.03-0.82133zm-42.368-1.7792c6.3197-2.3621 9.3782-22.85 4.5128-30.229-10.057-15.253-23.943-18.81-40.875-10.472-8.7873 4.3276-10.774 16.194-3.9677 23.694 1.2832 1.4138 3.0839 3.7829 4.0016 5.2647 2.0952 3.383 12.064 9.2902 18.957 11.234 8.8946 2.5076 11.794 2.5924 17.371 0.50816z" fill="#218a43"/>
   <path d="m203.05 759.15c-19.349-4.8152-27.252-23.479-26.981-63.717 0.18672-27.713 1.1099-29.248 24.715-41.111 26.381-13.258 62.902-12.154 72.298 2.1863 3.2122 4.9025 3.8906 3.1855 3.2328-8.1823-0.34217-5.9125-0.86557-15.475-1.1631-21.25-0.35634-6.9163-1.0603-11.295-2.0626-12.83-1.1077-1.6962-1.6242-5.9122-1.8986-15.5-0.35381-12.361-0.55623-14.796-1.9674-23.67-2.4999-15.721-1.33-27.824 3.2026-33.134 4.4721-5.2392 4.4721-5.2392 3.9824-13.75-0.26935-4.6811-0.0903-9.5616 0.39779-10.846 0.93125-2.4494-0.33146-9.7574-2.4612-14.245-2.0633-4.347-23.435-5.4885-49.626-2.6505-3.9047 0.4231-25.153 1.1227-65.5 2.1566-6.05 0.15504-20.225 0.54143-31.5 0.85866-30.912 0.86969-71.909 0.7116-86.434-0.3333-8.0295-0.57762-13.598-0.57519-14.684 6e-3 -0.96276 0.51566-5.7979 0.93723-10.745 0.93723-11.238 0-11.789 0.45917-11.965 9.9819-0.07255 3.9289-0.34287 7.4848-0.6007 7.902-0.79851 1.292 1.9237 47.967 3.1563 54.116 0.38583 1.925 0.76914 5.3 0.85179 7.5 0.72413 19.275 2.7004 46.295 3.8033 52 0.74427 3.85 1.8922 10.15 2.5509 14 4.6183 26.993 7.8068 30.768 19.754 23.384 4.844-2.9938 7.5229-2.2323 7.9784 2.2678 0.49303 4.8703-4.7814 9.1458-16.048 13.009-12.133 4.1599-15.931 3.2891-17.182-3.9394-0.35444-2.0467-1.7314-7.5463-3.0599-12.221-3.5037-12.329-7.0115-33.349-8.3442-50-0.63828-7.975-1.5951-19.45-2.1264-25.5s-1.6235-18.591-2.4273-27.868-1.4162-26.153-1.3608-37.5c0.07772-15.925-0.27404-22.219-1.5419-27.59-3.0393-12.874-0.23686-16.033 13.09-14.752 4.3095 0.41415 9.4104 0.51834 11.335 0.23152s10.925-0.47886 20-0.42675c87.67 0.50339 99.964 0.40268 134.5-1.1019 20.063-0.87405 32.825-1.447 42.895-1.9257 5.9924-0.28487 15.892-0.72416 22-0.97619s19.565-1.2024 29.906-2.112c20.351-1.7901 20.818-1.7536 23.154 1.8123 2.462 3.7575 4.8678 27.129 4.1525 40.338-0.77497 14.309-1.337 13.816 14.629 12.856 21.218-1.2752 36.43-1.216 64.263 0.25029 14.85 0.78231 31.725 1.5911 37.5 1.7973 10.531 0.37609 28.992 1.9637 40.834 3.5117 10.122 1.3232 9.2578 2.9085 12.293-22.545 4.0466-33.933 3.4394-42.904-3.8771-57.282-9.3145-18.303-8.5114-20.226 9.301-22.271 4.4281-0.50822 10.452-1.3794 13.386-1.9359 10.818-2.0517 23.322 0.42401 28.12 5.5679 1.3433 1.44 4.5157 3.6738 7.0498 4.9638 12.212 6.217 14.158 12.504 6.3464 20.504-3.7709 3.8618-3.7709 3.8618-4.0934 15.157-0.17739 6.2125-0.78836 18.639-1.3577 27.615s-0.80172 16.697-0.51634 17.159c1.6018 2.5918 0.67917 12.307-1.4412 15.175-2.8312 3.8294-3.3027 3.5391 10.605 6.5287 19.201 4.1275 19.285 4.1555 19.748 6.6044 2.642 13.966 3.7819 26.8 3.1597 35.576-0.81778 11.535-1.1623 11.03 10.021 14.699 45.836 15.038 90.374 49.894 90.415 70.762 3e-3 1.5521 1.1623 4.7957 2.576 7.2081 7.692 13.125-12.688 19.333-46.07 14.033-16.307-2.5891-32.703-3.8366-43.621-3.3191-12.128 0.57484-15.427-0.53486-18.341-6.17-1.9635-3.797-3.4849-4.572-11.538-5.8776-19.69-3.1923-22.052-2.6118-16.452 4.0429 11.429 13.582 9.2996 29.4-4.9667 36.897-17.073 8.9722-36.501 8.6515-46.048-0.75997-4.5665-4.5019-4.5665-4.5019-9.777 0.0562-8.0787 7.067-16.234 8.9132-26.458 5.9896-1.6017-0.45804-2.8588 0.0798-4.6147 1.9744-6.3641 6.867-22.405-8.5738-17.816-17.149 0.55054-1.0287 1.5425-6.7926 2.2044-12.809s1.849-12.216 2.6379-13.779c2.336-4.6252 1.3409-5.2912-8.8686-5.9362-15.796-0.99791-17.59 0.22309-11.092 7.5488 11.853 13.362 13.964 24.315 6.3758 33.082-2.1249 2.4552-4.1362 5.5504-4.4695 6.8784-1.7661 7.0368-29.222 12.73-38.654 8.0155-1.9239-0.96165-5.073-3.886-6.9982-6.4984-2.7233-3.6957-4.1196-4.75-6.2908-4.75-9.1544 0-15.322-17.768-9.1874-26.465 2.0691-2.9335 2.6842-3.871 6.2092-9.4639 4.43-7.0288-9.5901-6.8418-31.128 0.41519-4.8017 1.6179-8.8543 2.418-10.348 2.043-4.2847-1.0754-8.6601 3.2723-10.726 10.658-2.4208 8.6547-5.4282 14.282-12.26 22.941-6.3433 8.0398-12.274 16.985-12.274 18.514 0 0.92637-4.54 5.4814-8.2838 8.3112-3.2717 2.473-40.868 5.7435-47.384 4.1219zm24.278-31.116c17.245-6.5565 26.426-41.681 13.165-50.37-15.409-10.096-32.775 5.389-32.775 29.225 0 15.35 9.0854 25.147 19.61 21.145zm140.34-12.718c4.4315-3.5884 4.0124-15.24-0.54819-15.24-7.685 0-11.439 12.099-4.904 15.805 2.6602 1.5085 2.9251 1.481 5.4522-0.56527zm122.95-9.7969c2.4514-4.1549 2.7621-9.2511 0.61421-10.075-2.0553-0.78868-7.6908 2.6906-9.4581 5.8394-3.9128 6.971 4.775 11.132 8.8439 4.2359zm-32.901-14.384c0-5.6839-0.81329-6.5042-5.5649-5.6128-4.2371 0.7949-4.271 1.631-0.26775 6.6124 4.344 5.4055 5.8326 5.1504 5.8326-0.99962zm-139-17.669c9.3911-1.8358 17.101-2.5694 31-2.9494 10.175-0.27816 23.225-0.97395 29-1.5462 9.3151-0.92305 29.744-0.51501 40 0.79895 18.432 2.3615 44.002 0.92588 54.876-3.081 4.992-1.8396 9.5299-2.0494 13.725-0.63483 3.4536 1.1646 36.52 5.0224 43.048 5.0224 4.5704 0 4.5704 0 3.9653-3.75-3.1634-19.604-2.5754-44.682 1.0927-46.604 2.5427-1.3323 2.5427-1.3323-0.58186-3.5571-3.5284-2.5124-3.9466-5.5644-2.083-15.202 5.7839-29.913-0.96723-35.893-45.042-39.897-22.831-2.0741-35.63-3.5556-38.032-4.4022-0.80722-0.28449-8.4427-0.99505-16.968-1.579-8.525-0.58398-17.525-1.2402-20-1.4582-10.769-0.94859-22.766-1.8964-26-2.0541-1.925-0.0939-12.275-0.71735-23-1.3855-38.509-2.3992-73.847 0.3064-75.252 5.7614-0.47759 1.8544-2.2472 5.8149-3.9325 8.8011-3.4747 6.1569-3.4813 5.8447 0.54785 25.827 1.3308 6.6 2.2356 12.307 2.0107 12.683s0.28519 6.6229 1.1336 13.883 1.3012 13.961 1.0062 14.891c-0.49516 1.5601 0.91648 9.8498 3.3281 19.544 0.5473 2.2 1.3103 8.05 1.6955 13 1.034 13.287-0.54303 12.778 24.463 7.8901zm187-126.32c0-0.51254-1.35-1.8932-3-3.0681-3.3929-2.416-4.0435-10.292-1.9826-24 1.3018-8.6588 2.3515-33.394 1.5523-36.578-0.62098-2.4742-0.83405-2.5302-9.3526-2.461-4.7944 0.039-10.067-0.0488-11.717-0.19502-3-0.26589-3-0.26589-3.2519 9.2341-0.13855 5.225-0.72156 13.55-1.2956 18.5s-1.4728 13.95-1.9973 20-1.0665 11.881-1.2044 12.957c-0.383 2.9899 4.2876 4.6925 15.141 5.5195 14.413 1.0982 17.108 1.1125 17.108 0.0911zm-8.5982-83.026c6.0609-2.598 5.2424-4.3498-3.2306-6.9143-17.286-5.2319-26.715-4.2118-20.935 2.2649 5.2174 5.8469 16.368 7.9921 24.166 4.6494zm-416.31 291.31c-12.579-2.7253-21.825-11.833-27.641-27.226-2.0004-5.2945-4.5857-12.101-5.7451-15.126-2.75-7.1751-2.7368-16.342 0.037-25.5 1.166-3.85 2.4396-8.756 2.8302-10.902 1.5969-8.7752 17.118-26.868 27.272-31.791 3.6623-1.7755 7.5865-4.1903 8.7205-5.3662 1.5237-1.58 4.2642-2.4548 10.5-3.3518 4.641-0.6676 10.688-1.709 13.438-2.3143 48.123-10.592 72.273 16.653 58.007 65.442-0.75852 2.5941-1.6702 7.9941-2.0259 12-0.8707 9.8057-1.9926 13.046-5.3851 15.555-1.5747 1.1642-3.8506 4.1566-5.0574 6.6496-2.3007 4.7526-7.1656 9.5794-9.655 9.5794-0.80472 0-3.2357 0.90431-5.4022 2.0096s-9.342 2.9164-15.946 4.0247-16.104 3.354-21.111 4.9904c-9.9182 3.2411-13.14 3.4285-22.836 1.3278zm30.647-38.277c13.472-3.8637 21.242-23.244 16.064-40.067-2.8186-9.1573-26.535-9.7918-29.363-0.78553-0.39319 1.2522-2.1716 4.5608-3.952 7.3525-7.9516 12.468-10.357 25.712-5.3669 29.547 5.4801 4.2106 15.571 5.9744 22.618 3.9535zm26.657-126.45c-2.2592-0.73144-8.5592-1.8763-14-2.5441s-11.823-1.9034-14.183-2.7457-5.3836-1.2572-6.7195-0.92191c-4.2364 1.0633-5.7798-2.677-3.8381-9.3009 1.4349-4.895 1.4314-5.7951-0.0401-10.352-0.88645-2.7447-1.6117-6.4394-1.6117-8.2104s-0.92017-6.023-2.0448-9.4489c-5.6724-17.279-3.401-22.099 10.417-22.107 5.5702-3e-3 12.828-0.46849 16.128-1.034 27.537-4.7191 34.485-0.36703 30.959 19.394-1.9289 10.81-2.4645 28.277-1.1696 38.146 1.1959 9.1141-3.7993 12.394-13.897 9.1249zm-4.3453-17.625c0.69143-1.3621 2.4593-15.788 3.6916-30.122 0.61552-7.1604 1.0315-7.0064-14.725-5.4522-17.719 1.7479-17.366 1.1342-12.05 20.947 3.2436 12.089 4.104 13.304 10.274 14.502 2.8943 0.56211 6.1623 1.2227 7.2623 1.4679 3.0893 0.68872 4.7156 0.29497 5.547-1.343zm104.76 18.47c-0.29162-0.29162-4.9791-0.96338-10.417-1.4928s-13.711-1.6906-18.386-2.5803-11.584-1.9134-15.353-2.2749c-8.873-0.85094-11.106-3.0973-9.9699-10.029 0.94987-5.795 0.86749-7.067-1.3737-21.211-1.817-11.467-3.187-14.881-5.9716-14.881-2.3409 0-6.3321-4.7211-6.3321-7.4901 0-3.3132 6.4306-6.2613 16.5-7.5644 3.85-0.49821 10.6-1.5871 15-2.4197 41.468-7.8472 43.114-6.7155 42.787 29.419-0.17427 19.224 0.054 23.927 1.25 25.752 4.3272 6.6042-2.624 19.883-7.7337 14.773zm-8.0268-36.573c0.34189-26.225 1.1045-24.771-12.09-23.047-20.892 2.7304-24.244 3.2098-25.436 3.6383-1.4581 0.52381-1.6742 6.8507-0.3203 9.3804 0.51133 0.95544 1.6582 6.6634 2.5486 12.684 1.9606 13.258 1.6472 12.916 15.139 16.505 20.313 5.4039 19.833 5.8602 20.159-19.161zm-200.32 34.24c-6.509-3.9693-8.1651-10.124-8.9997-33.448-0.73355-20.499-0.07143-21.849 9.0955-18.534 3.4457 1.246 3.4921 1.2326 10.947-3.1688 28.308-16.713 41.346-6.4554 41.103 32.336-0.13561 21.654 0.75422 20.647-19.603 22.184-4.125 0.31136-9.525 0.98016-12 1.4862-7.8231 1.5996-17.154 1.2109-20.543-0.85582zm31.669-15.812c4.2323-0.84646 5.1456-3.958 4.6449-15.825-0.6722-15.931-5.0639-19.917-16.431-14.911-2.1121 0.93-6.5402 2.2112-9.8402 2.8472-6.9609 1.3415-7.6304 3.6214-5.5667 18.956 1.512 11.235 6.8738 12.997 27.193 8.9328zm367.12-137.48c-2.8875-2.265-5.25-4.4884-5.25-4.9408 0-1.2609-7.8767-5.4803-13.794-7.3891-7.5596-2.4386-13.142-5.7937-18.611-11.185-4.7654-4.6981-4.7654-4.6981-17.93-6.0364-7.2406-0.73606-15.865-2.074-19.165-2.9733-10.621-2.8942-13.561-2.8249-20.102 0.4739-11.723 5.9126-29.066 9.2156-46.898 8.9321-4.4-0.07-10.925 0.39047-14.5 1.0232-19.416 3.4364-49.152 3.6123-62 0.36676-20.947-5.2912-28.916-8.7339-37.148-16.048-9.2037-8.177-14.14-9.0552-25.122-4.4693-14.341 5.9887-26.859 8.5448-48.73 9.9507-8.2344 0.52931-11.363 1.1658-14.5 2.9497-33.319 18.948-77.286 2.4021-72.457-27.268 1.7554-10.785 3.7228-9.7432 6.9832 3.6991 2.6323 10.853 7.3884 17.018 14.629 18.962 13.51 3.6272 16.469 4.0128 22.169 2.889 9.9258-1.9572 9.5283-2.8468-4.4231-9.9013-25.85-13.071-33.069-33.565-17.486-49.646 17.356-17.91 41.345-17.883 57.155 0.0634 4.3054 4.8875 6.0217 4.5465 7.6439-1.5187 5.3979-20.182 45.764-22.827 57.783-3.7869 3.1126 4.9308 4.585 4.9949 9.3028 0.40545 2.0352-1.9798 5.0504-4.2825 6.7004-5.117s3.9-2.3127 5-3.285c2.0598-1.8206 9.7971-3.0401 19-2.9947 12.592 0.0621 24.799 7.9595 30.5 19.733 3.9911 8.2416 4.9264 8.9392 8.169 6.0922 18.321-16.086 52.431-20.399 69.831-8.8292 2.475 1.6457 5.5728 2.9941 6.884 2.9965 13.117 0.0236 34.087 22.238 34.107 36.132 0.0109 7.672 0.2579 7.9664 8.5094 10.141 12.637 3.3303 23.965 2.7376 24.244-1.2685 1.3236-18.977 0.97026-17.758 6.8523-23.64 2.972-2.972 5.4036-5.808 5.4036-6.3023 0-2.4213 13.045-2.3634 15.69 0.0697 11.221 10.319 10.315 30.501-1.6903 37.646-7.8853 4.6929-7.482 7.3496 1.6448 10.835 5.3568 2.0458 5.5472 1.8771 6.4414-5.707 2.0799-17.64 33.93-23.655 47.727-9.013 12.744 13.525 5.2505 26.139-17.338 29.183-9.9386 1.3393-12.116 2.3544-8.2235 3.8342 3.0721 1.168 4.2768 4.2386 2.7686 7.0567-1.6008 2.9911-3.8942 2.4947-9.7702-2.1146zm23-22.266c7.0255-3.3333 7.6531-6.0281 2.3466-10.076-13.434-10.247-43.057 1.3164-30.354 11.849 3.5766 2.9652 20.244 1.9101 28.007-1.773zm-203.49-7.5815c0.17274-0.93748-1.8347-2.625-5.353-4.5-7.28-3.8797-13.931-11.237-15.645-17.306-1.5055-5.3303-3.738-6.4257-7.0981-3.4827-4.8574 4.2544-15.156 7.9189-26.161 9.309-14.197 1.7932-15.144 2.2007-12.735 5.4795 6.0585 8.2464 65.685 17.592 66.992 10.5zm41.872-7.3855c13.253-7.2366 18.183-15.62 15.411-26.203-1.122-4.2836-2.04-9.6966-2.04-12.029 0-16.198-41.412-16.378-64.133-0.2795-15.135 10.724-5.981 31.243 17.133 38.403 4.675 1.448 8.95 2.8166 9.5 3.0412 3.8735 1.5819 19.293-0.29244 24.129-2.933zm31.991 0.33409c5.887-2.5235 5.794-4.8918-0.36991-9.4141-5.5702-4.0867-6.6777-4.2592-9.0098-1.4037-0.95711 1.172-3.476 4.1802-5.5976 6.6849-6.2205 7.344 2.1181 9.645 14.977 4.1329zm78.116-5.0629c10.357-5.0139 9.7917-22.886-0.72438-22.886-7.8016 0-13.793 8.3806-12.73 17.808 0.83228 7.384 5.248 9.0505 13.454 5.0779zm-316.64 0.10505c13.095-3.6376 13.164-32.829 0.1087-45.884-23.754-23.754-65.468 5.33-43.405 30.264 3.3675 3.8058 16.213 12.681 19.226 13.284 1.692 0.33841 4.7415 1.2098 6.7766 1.9364 4.4458 1.5874 12.359 1.7703 17.293 0.39968zm37.168-1.7751c11.531-2.0229 14.889-5.7062 7.0048-7.6849-3.7775-0.9481-10.265-5.0441-17.742-11.203-7.1038-5.8506-8.5239-5.6324-8.5239 1.31 0 2.3309-0.69472 7.2335-1.5438 10.895-2.396 10.331-1.5467 10.604 20.805 6.6829zm218.09-5.6826c2.4172-6.2992-14.958-27.432-20.732-25.216-1.8322 0.70306-1.0313 13.166 1.0601 16.497 3.8018 6.0559 18.238 12.455 19.672 8.7194zm-144.85-4.8453c4.4838-0.14032 7.3899-0.93244 11.5-3.1346 3.025-1.6208 6.8385-3.6458 8.4745-4.5 27.292-14.251-5.9113-46.804-34.528-33.851-18.873 8.5424-18.428 43.886 0.53231 42.331 4.4117-0.36175 10.721-0.74222 14.021-0.8455zm-42.868-1.7519c14.836-5.545 5.4689-40.4-12.042-44.809-37.099-9.3416-45.381 32.57-8.5904 43.475 10.816 3.2058 14.916 3.4709 20.632 1.3342z" fill="#2e3036"/>
  </g>
 </g>
</svg>
