<?xml version="1.0" encoding="UTF-8" standalone="no"?>
<svg
   xmlns:dc="http://purl.org/dc/elements/1.1/"
   xmlns:cc="http://creativecommons.org/ns#"
   xmlns:rdf="http://www.w3.org/1999/02/22-rdf-syntax-ns#"
   xmlns:svg="http://www.w3.org/2000/svg"
   xmlns="http://www.w3.org/2000/svg"
   width="105.71489mm"
   height="110.59132mm"
   viewBox="0 0 105.71489 110.59132"
   version="1.1"
   id="svg8">
  <defs
     id="defs2" />
  <metadata
     id="metadata5">
    <rdf:RDF>
      <cc:Work
         rdf:about="">
        <dc:format>image/svg+xml</dc:format>
        <dc:type
           rdf:resource="http://purl.org/dc/dcmitype/StillImage" />
        <dc:title></dc:title>
      </cc:Work>
    </rdf:RDF>
  </metadata>
  <g
     id="layer1"
     transform="translate(-51.709937,-51.358651)">
    <path
       style="fill:#ffffff;fill-opacity:1;stroke:none;stroke-width:0.264583px;stroke-linecap:butt;stroke-linejoin:miter;stroke-opacity:1"
       d="m 19.081613,33.621302 c 0.03135,-0.109087 0.06253,-0.218223 0.09354,-0.327406 0.75601,-2.661724 1.459869,-5.448104 3.22728,-7.57709 1.354329,-1.631396 3.30476,-2.771469 5.401637,-3.085739 2.096877,-0.31427 4.320053,0.215981 6.010771,1.495485 1.199337,0.907636 2.100701,2.14186 3.092954,3.272191 0.992253,1.13033 2.149961,2.205496 3.595466,2.621101 1.467581,0.421952 3.055272,0.107155 4.474436,-0.456592 1.419164,-0.563747 2.730837,-1.367645 4.131649,-1.975561 1.607412,-0.697575 3.336434,-1.133712 5.087619,-1.194842 1.751184,-0.06113 3.52444,0.25911 5.108711,1.007755 1.755214,0.829424 3.254331,2.17912 4.298471,3.815729 1.04414,1.63661 1.634744,3.553211 1.735139,5.491932 0.104788,2.023553 -0.320307,4.065182 -1.169831,5.904763 -0.849523,1.83958 -2.118015,3.477234 -3.647709,4.806062 -2.176184,1.890426 -4.946012,3.168218 -7.826943,3.266847 -1.440465,0.04931 -2.894861,-0.196182 -4.223189,-0.755572 -1.328327,-0.559391 -2.527545,-1.435434 -3.431452,-2.558075 -0.805379,-1.000271 -1.36466,-2.172369 -2.06511,-3.248727 -0.70045,-1.076358 -1.597804,-2.097336 -2.799197,-2.551025 -1.132481,-0.427665 -2.405749,-0.298693 -3.568012,0.03977 -1.162263,0.338459 -2.256605,0.875289 -3.401038,1.269856 -2.611856,0.900491 -5.449395,1.040068 -8.185131,0.654812 -1.011359,-0.142423 -2.017984,-0.356589 -2.967986,-0.731591 -0.950002,-0.375003 -1.844645,-0.916221 -2.551129,-1.653792 -0.94664,-0.988294 -1.525644,-2.320981 -1.602026,-3.68737 -0.07638,-1.366389 0.350482,-2.755304 1.181076,-3.842947 z"
       id="path1782"
       transform="translate(51.709937,51.358651)" />
    <path
       id="path1639"
       style="display:inline;fill:#f2c99d;fill-opacity:1;stroke:none;stroke-width:2.4;stroke-linejoin:round;stroke-miterlimit:4;stroke-dasharray:none;stroke-opacity:1;paint-order:stroke markers fill;stop-color:#000000"
       d="m 31.618312,10.01125 c -0.18782,0.10693 -0.44631,0.1499 -0.5023,0.39222 -0.2478,0.61761 -0.0341,1.28625 -0.10077,1.92598 0.0543,2.24451 0.0195,4.49303 0.18759,6.73344 0.0944,0.12199 0.12247,0.33161 0.26045,0.39584 0.0601,0.0117 0.12047,0.0258 0.18086,0.0403 -2.55546,0.97269 -5.03914,2.19593 -7.21764,3.86126 -2.4663,2.05292 -4.51254,4.62412 -5.87923,7.53236 -0.8498,1.66526 -1.68619,3.33776 -2.45877,5.04052 0.0144,0.21146 -0.065,0.45865 0.12248,0.61391 0.44051,0.51116 0.9794,1.00612 1.20819,1.67174 0.0561,0.21239 0.10266,0.50359 -0.0661,0.67024 -0.44261,0.29815 -1.00973,0.19848 -1.51257,0.19172 -0.42994,-0.0326 -0.86857,0.028 -1.28623,-0.108 -0.55527,-0.14962 -1.20806,-0.22858 -1.6986,0.14107 -0.46098,0.43369 -0.80641,0.81235 -1.36064,1.09709 -0.47087,0.22933 -0.39258,0.17517 -0.76378,0.55346 -0.0329,0.15302 -0.0231,-0.18015 -0.5178,0.56482 0.0609,0.2408 0.76764,0.13601 0.99012,0.24236 0.76497,0.38542 0.66549,0.68757 1.46865,0.95136 1.06817,0.21684 2.12586,-0.14687 3.1843,-0.24029 0.49301,-0.0349 1.02559,0.0317 1.4366,0.32194 0.22591,0.24861 0.11329,0.6425 -0.11937,0.84595 -0.86166,1.08241 -2.0922,1.76657 -3.27008,2.44791 -0.10804,0.17996 -0.31664,0.33251 -0.2558,0.56586 0.15623,1.49977 0.26601,3.07257 1.03818,4.40748 0.16081,0.23533 0.66693,0.97958 0.95498,0.90124 0.42498,-0.0903 0.0311,-1.28818 0.0248,-1.67329 -0.005,-0.20329 0.12144,-0.87303 0.15813,-1.07177 2.46238,2.2553 4.99113,5.36275 7.8388,7.15099 1.47287,0.91498 2.97473,1.78819 4.54442,2.52801 4.3479,2.08032 9.08043,3.35662 13.88804,3.71709 5.62866,0.49366 11.36619,-0.40542 16.58969,-2.55334 1.52107,-0.54311 2.94027,-1.36352 4.516,-1.75235 1.10923,0.18354 2.02986,0.89819 3.09955,1.20613 0.19762,-0.0426 0.44252,0.0161 0.56896,-0.17828 0.51383,-0.68337 0.69629,-1.55103 0.83044,-2.3797 0.0403,-0.5159 -0.36933,-0.93042 -0.76946,-1.19476 -0.44351,-0.2846 -0.95823,-0.44932 -1.36271,-0.7953 -0.50325,-0.34318 -1.00643,-0.68626 -1.48104,-1.03715 -1.08189,-0.80999 -2.14684,-1.756 -2.68614,-3.02565 -0.0841,-0.40096 0.3896,-0.73529 0.75809,-0.65112 0.55698,-0.0165 1.11835,-0.0375 1.67328,0.0393 1.88192,0.22957 3.63156,1.01953 5.33818,1.79989 0.3861,0.1574 0.85237,-0.1046 0.92397,-0.51418 0.10448,-0.47685 -0.0717,-0.95084 0.0372,-1.42679 0.22665,0.1143 0.48625,0.30214 0.72347,0.44701 1.02069,0.66026 1.94815,1.06785 3.1998,1.09554 0.20891,0.015 0.43198,0.0572 0.60617,-0.0703 0.19557,-0.0351 0.35088,-0.0345 0.39636,-0.18862 -0.15311,-0.0712 -0.36215,-0.24504 -0.46923,-0.44545 -0.59049,-0.90668 -0.92987,-2.04805 -1.37614,-3.03444 -0.16988,-0.12398 -0.30296,-0.3443 -0.54105,-0.308 -1.08798,-0.0438 -2.20309,-0.0159 -3.26854,-0.0543 -0.18873,-0.004 -0.36373,-0.0175 -0.57309,-0.0274 -0.50711,-0.0306 -1.01349,-0.0816 -1.51412,-0.1695 -0.0905,-0.0157 -0.28546,-0.053 -0.41393,-0.0827 -0.66652,-0.15615 -1.33675,-0.36192 -1.92133,-0.72501 -0.18211,-0.15322 -0.43217,-0.35217 -0.40152,-0.61444 0.30535,-0.41171 0.73574,-0.72051 1.16892,-0.98908 1.11521,-0.65373 2.3814,-0.97647 3.6189,-1.31104 0.5495,-0.12366 1.13411,-0.1226 1.66191,-0.32142 0.10833,-0.13306 0.34628,-0.20245 0.31678,-0.40308 0.0602,-0.32696 -0.13165,-0.62167 -0.19895,-0.93379 -0.83628,-2.80309 -1.24707,-5.71357 -2.09031,-8.51421 -0.98493,-2.4609 -2.74587,-4.51175 -4.65192,-6.31331 -0.73912,-0.69706 -1.49858,-1.37189 -2.26239,-2.04174 0.11182,0.089 0.2259,0.17631 0.32608,0.27751 0.54102,0.4714 1.06021,1.00778 1.71875,1.30844 0.18318,-0.0102 0.39969,0.0953 0.53951,-0.0656 0.26076,-0.21369 0.43569,-0.51781 0.66145,-0.76842 1.2475,-1.55248 2.45756,-3.13502 3.72174,-4.67414 0.46794,-0.56941 0.97302,-1.16455 1.47278,-1.72909 0.28312,-0.30701 0.16167,-0.87109 -0.24443,-1.00097 -0.0809,-0.0393 -0.17733,-0.0395 -0.26562,-0.0419 -0.69823,0.16659 -1.36967,0.43815 -2.02881,0.72088 -1.75841,0.77137 -3.35993,1.88761 -4.70773,3.25407 -0.58887,0.55899 -1.21917,1.11035 -1.59008,1.84743 0.0134,0.19062 -0.10135,0.41901 0.0667,0.56379 0.0351,0.0434 0.0756,0.0823 0.11576,0.12092 -0.32822,-0.28696 -0.65554,-0.575 -0.98444,-0.86093 -1.02919,-0.67405 -2.12746,-1.23564 -3.24786,-1.74098 -0.2142,0.0134 -0.4641,-0.0635 -0.61909,0.1292 -1.46268,1.32835 -2.7348,2.89627 -4.43177,3.94446 -0.47644,0.28125 -0.97574,0.54888 -1.51567,0.68109 -0.27888,0.0369 -0.65314,0.0328 -0.81958,-0.23357 -0.0786,-0.31405 -0.0106,-0.64858 0.0248,-0.96635 0.25286,-1.55217 1.13383,-2.89262 1.87895,-4.24522 0.11015,-0.22174 0.28979,-0.42438 0.26303,-0.68678 0.0495,-0.16384 -0.0298,-0.30143 -0.13849,-0.4191 -0.47531,-0.47873 -1.1826,-0.50086 -1.79575,-0.66197 -0.29361,-0.10393 -0.60833,-0.12618 -0.90021,-0.24185 -0.38654,-0.11645 -0.8735,-0.20015 -1.21026,0.0765 -0.26837,0.21443 -0.38857,0.55533 -0.59169,0.82631 -1.68272,2.59346 -3.6856,5.05002 -6.25802,6.80734 -0.67445,0.44067 -1.36997,0.94573 -2.19676,1.02267 -0.19989,0.0235 -0.46415,-0.0755 -0.44597,-0.31626 -0.18784,-1.14476 0.28453,-2.26201 0.80357,-3.25561 0.57963,-1.07752 1.17261,-2.15517 1.92856,-3.12178 0.50665,-0.6856 1.06118,-1.33793 1.55959,-2.02726 0.10873,-0.2139 0.14222,-0.46533 0.0248,-0.6842 -0.19691,-0.41498 -0.70763,-0.4914 -1.11879,-0.45733 -0.30365,0.005 -0.60729,-0.0136 -0.91158,-0.008 -0.2793,-0.005 -0.54146,0.14918 -0.71778,0.35864 -1.43189,1.43271 -2.78117,3.01073 -4.56148,4.02714 -0.45756,0.25777 -0.94249,0.47587 -1.44229,0.63252 -0.32917,0.0537 -0.76776,-0.18501 -0.70125,-0.56431 -0.0548,-1.14744 0.53679,-2.17585 0.89607,-3.22977 0.0225,-0.153 -0.0217,-0.31446 -0.0248,-0.47077 -0.10318,-0.0642 -0.19686,-0.159 -0.30231,-0.21963 0.0118,-0.003 0.0238,-0.006 0.0357,-0.009 0.15041,-0.14668 0.39098,-0.2412 0.39119,-0.48266 0.28475,-1.72307 -0.0917,-3.47993 -0.66353,-5.10511 -0.46308,-1.1433 -1.01504,-2.33899 -2.05155,-3.07372 -0.13059,-0.11454 -0.30123,-0.14238 -0.46405,-0.18086 z m -4.38992,15.96801 c 0.13885,-0.002 0.27792,0.001 0.41703,0.01 1.55987,0.0901 2.97465,0.95131 4.02508,2.06861 0.22192,0.22999 0.42707,0.47522 0.62425,0.72657 0.0535,0.0693 0.17748,0.23108 0.25218,0.34003 0.7965,1.11495 0.92453,1.01493 1.38906,2.29702 0.20599,3.1251 -0.34272,4.92035 -1.20561,5.9309 0.42527,-0.20121 0.85895,-0.45827 1.29501,-0.79323 0.0811,0.18569 0.90244,1.26118 1.11363,1.35237 0.65976,0.33997 0.5857,-0.22664 1.06402,0.37155 0.17527,0.23339 0.27046,0.56293 0.108,0.82786 -0.52088,1.22023 -1.59388,2.08608 -2.67787,2.79311 -0.13286,0.14401 -0.24993,0.10689 -0.33745,-0.0568 -0.40828,-0.51968 -0.58648,-1.17222 -0.72553,-1.80455 -0.14617,-0.36295 -0.50842,-0.54749 -0.786,-0.79788 -0.2995,-0.21443 -0.46662,-0.60705 -0.85473,-0.6873 -0.35331,-0.0971 -0.76247,0.008 -1.00976,0.28267 -1.24879,-0.42765 -2.58517,-0.18621 -3.85299,0.0104 -0.50892,0.085 -1.02407,0.12052 -1.53117,0.21342 -1.18122,0.12361 -2.32166,-0.29814 -3.44062,-0.61082 -0.46091,-0.16536 -0.87137,-0.44397 -1.24592,-0.75499 0.27981,-0.009 0.59187,-0.0281 0.82579,-0.18965 0.10642,-0.139 0.55542,0.21066 0.5147,0.008 0.0111,-0.22494 -0.39435,-0.85926 -0.46819,-1.2268 -0.32005,-1.12083 -0.74862,-2.42622 -0.55191,-3.61167 0.35358,-2.51998 2.044,-4.75794 4.27468,-5.94124 0.85372,-0.46308 1.81243,-0.742 2.78432,-0.75758 z m 5.50199,11.37295 c -3.41014,1.6135 -6.24575,-0.59281 -4.8581,1.01906 1.16179,0.17846 3.43653,0.6458 4.8581,-1.01906 z m 21.07882,-7.16287 c 2.09113,-0.0208 4.10656,0.92025 5.61878,2.33061 1.28843,1.20202 2.27491,2.74403 2.76107,4.44159 0.47282,1.80223 -0.19351,3.11616 -0.57361,4.91029 -0.20941,1.68805 -2.51052,3.59353 -3.5605,4.24212 0.60226,0.0508 1.96221,-0.0222 2.07222,0.12247 0.10487,0.18627 0.64571,-0.24573 0.85731,-0.21704 -0.59357,0.40779 -1.31868,0.60735 -2.03708,0.57 -1.70862,0.1222 -3.35087,-0.47982 -4.92838,-1.05679 -1.34434,-0.49544 -2.70994,-0.98018 -4.14187,-1.14102 -1.34825,-0.24154 -2.70882,-0.40276 -4.06642,-0.58084 0.0561,-0.30322 -0.46509,0.35243 -0.46509,0.35243 -2.14607,-5.90304 0.22325,-9.08368 0.22325,-9.08368 0,0 2.74661,-3.03255 5.04465,-4.13876 0.99173,-0.48266 2.09118,-0.75147 3.19567,-0.75138 z m 4.24574,15.92461 c -0.17825,-0.0151 -0.29859,-0.0393 -0.28991,-0.0853 -0.4288,0.4214 -0.20942,0.39371 0.28991,0.0853 z m -25.63565,-2.78897 c 0.74306,0.19042 1.26177,0.80267 1.88774,1.20561 0.53028,0.34733 1.12592,0.57797 1.69654,0.84955 0.34227,0.15059 0.687,0.29612 1.0356,0.4315 -0.39866,-0.0745 -0.79392,-0.18962 -1.18908,-0.26303 -0.14184,0.0572 -0.36365,7.9e-4 -0.44493,0.14418 -0.0983,0.16715 -0.2316,0.32746 -0.1819,0.53433 -0.0113,1.71802 -1.67846,3.2266 -3.38946,3.0639 -0.52163,-0.034 -1.04386,-0.22056 -1.41335,-0.60306 -0.76386,-0.7729 -1.04659,-1.95427 -0.83354,-3.00654 0.0817,-0.19267 -0.0222,-0.39086 -0.0414,-0.58653 -0.13933,-0.0848 -0.39168,-0.17842 -0.10025,-0.22996 1.01485,-0.40709 1.98628,-0.92177 2.89802,-1.52394 0.025,-0.007 0.0501,-0.013 0.076,-0.016 z"
       transform="translate(51.709937,51.358651)" />
    <g
       id="g1780">
      <path
         id="path1580"
         style="fill:#f2c99d;fill-opacity:1;stroke:none;stroke-width:9.07087;stroke-linejoin:round;stroke-miterlimit:4;stroke-dasharray:none;stroke-opacity:1;paint-order:stroke markers fill;stop-color:#000000"
         d="m 476.34766,398.46875 c -0.16353,-0.0113 -0.32988,-0.005 -0.50196,0.0234 -5.42143,0.25625 -10.75594,2.53395 -16.06054,3.63867 -0.65934,0.61795 -1.62453,-0.291 -1.79102,0.68359 -0.0362,0.11812 -0.0749,0.23546 -0.11133,0.35352 -0.16583,-0.33672 -0.32934,-0.67347 -0.46093,-1.01367 -0.6542,-1.25908 -1.21247,-2.70478 -2.47657,-3.47071 -0.4761,-0.13908 -0.91362,-0.22213 -1.40625,-0.10156 -0.6864,0.50925 -1.5263,0.99199 -1.66406,1.92383 -0.26608,1.53834 -0.42642,3.10075 -0.76562,4.63086 -0.14741,0.78667 -0.39556,1.58341 -0.0371,2.35156 0.002,0.0418 0.0179,0.0755 0.0234,0.11524 -0.81989,0.90071 -1.09143,2.16055 -1.61914,3.24609 -0.25549,0.61005 -0.45695,1.05807 -0.72265,1.64844 -0.14022,0.31219 -0.46425,0.97621 -0.70508,1.40625 -0.69608,1.24531 -1.54156,2.48469 -2.79492,3.22461 -2.90752,-0.86669 -5.38125,-3.06152 -8.51758,-3.17188 -0.78886,-0.0487 -1.60881,-0.002 -2.21875,0.5625 -0.92383,0.31824 -0.95378,1.36912 -1.13281,2.18164 -1.08329,4.66148 -4.43518,8.31752 -7.73047,11.59766 -1.32968,1.36581 -2.81604,2.5933 -4.0586,4.03515 -3.20575,4.85035 -3.52174,10.93593 -6.42578,15.92774 -5.66751,12.99704 -14.60254,24.65368 -26.06445,33.05859 -1.32926,0.97569 -2.87263,2.02312 -4.3457,2.9375 -1.59119,0.99383 -3.24574,1.91989 -4.83594,2.74024 -2.25291,1.14958 -4.64302,2.19655 -6.92969,3.04101 -4.35708,1.59054 -8.89455,2.79276 -13.54492,3.03125 -10.029,0.66418 -20.47549,-1.72632 -28.62891,-7.76562 -2.41026,-1.76107 -4.48937,-3.91614 -6.43554,-6.16602 -4.76914,-5.24107 -6.95276,-12.18714 -11.14063,-17.83398 -0.5865,-0.31937 -1.19112,-0.82502 -1.86523,-0.90235 -1.57897,-0.0499 -2.82279,1.48651 -2.64844,3.01563 0.12525,1.63661 0.86477,3.14075 1.23242,4.72656 7.15714,23.54589 24.01323,43.70304 45.31641,55.83789 0.60383,0.35766 1.23185,0.67602 1.83398,1.03125 -9.10234,-3.31375 -17.14909,-9.0966 -24.19922,-15.66601 -1.35292,-1.18882 -2.62332,-2.68983 -4.43945,-3.14258 -0.54232,0.10356 -1.08464,0.207 -1.62695,0.31054 -1.52421,1.48079 -1.40612,3.78359 -1.39844,5.74415 0.0162,1.4632 -0.1934,2.91271 -0.13281,4.3789 -0.13648,7.89937 -1.04667,16.15821 0.97265,23.99219 0.60155,2.32728 1.42234,4.61506 2.67774,6.67187 0.80102,1.62705 2.01933,3.37088 3.96093,3.62891 0.544,-0.22526 1.31812,-0.14118 1.71094,-0.57031 0.4542,-0.6384 0.7787,-1.32874 0.80664,-2.12305 0.0408,-0.94995 0.29691,0.39954 0.49219,0.71094 0.50276,1.22801 1.18218,2.36836 1.74805,3.5625 1.10546,1.85945 3.38747,2.7482 5.48633,2.48828 1.57211,0.41998 3.63109,0.18144 4.43554,-1.42773 0.41951,-0.8318 0.38308,-1.81789 0.0957,-2.68555 0.60864,1.02414 1.24273,2.10506 2.1504,2.8789 0.70749,0.52014 1.56447,0.79384 2.43945,0.5879 1.82452,-0.29859 2.79692,-2.16062 2.96289,-3.84961 0.53734,-4.92601 1.324,-9.86244 2.99219,-14.54883 0.84417,-2.4387 1.89054,-4.80708 3.12695,-7.07227 -0.0583,-0.58068 0.27062,-1.31024 -0.043,-1.79297 -0.14502,-0.13646 -0.28735,-0.2774 -0.42773,-0.42187 1.01463,-0.0315 2.02742,-0.40202 2.81054,-1.06641 0.48039,-0.37682 0.92739,-0.7941 1.34375,-1.24023 -7.15013,9.73153 -9.46034,22.95086 -5.66797,34.45703 0.75803,1.6871 1.68882,3.64726 3.55665,4.30664 1.64853,0.54981 3.31966,-0.80266 3.64648,-2.39648 0.6535,2.7719 2.10686,5.56542 4.61523,7.0625 1.83695,0.7607 4.14274,1.28021 5.93555,0.14257 1.33978,-0.88407 1.56688,-2.74704 0.94141,-4.13281 -0.25157,-1.06484 0.10639,-0.0143 0.33203,0.40039 0.58416,1.139 1.29783,2.2734 2.26758,3.10742 0.73852,0.25663 1.4799,0.82195 2.26562,0.39063 3.92946,-1.37409 6.56839,-4.95943 8.27735,-8.59375 1.3082,-2.59941 1.33761,-5.59237 1.36914,-8.43945 -0.0113,-1.06217 -0.0221,-2.12546 -0.041,-3.1875 0.82258,1.68578 1.6091,3.46431 2.87305,4.85937 0.7025,0.32844 1.37188,0.97091 2.19336,0.63672 8.15588,-1.71742 16.71853,-1.93864 24.46093,-5.29297 1.99393,-0.91619 4.03339,-1.87973 5.67579,-3.35937 3.06357,-2.89542 4.29543,-7.1903 4.41796,-11.29883 0.12171,-3.47796 -0.23209,-6.95352 -0.55664,-10.41016 -0.90149,-4.81538 -2.42089,-9.48368 -3.58593,-14.23633 -0.15081,-0.65155 -0.37302,-1.58522 -0.5293,-2.35156 0.82031,2.14995 1.73069,4.31756 3.05273,6.20313 0.19745,0.26691 0.79954,0.78448 1.55079,1.3789 1.20469,3.26088 2.33645,6.54702 3.04492,9.95508 0.51148,2.50557 0.8561,5.05365 0.80078,7.61523 0.23442,0.33793 0.79804,0.0468 1.17187,0.0742 0.74399,-0.14735 1.56652,-0.15908 2.24024,-0.52148 0.18777,-0.4195 0.0967,-0.93972 0.24804,-1.39063 0.49321,-3.07908 1.86234,-6.02207 3.98047,-8.33398 0.39097,-0.43254 0.80751,-0.84407 1.24414,-1.23047 -1.97121,2.927 -3.06623,6.42759 -3.24414,9.94336 -0.12775,2.64331 0.20235,5.30644 1.0586,7.81445 0.95922,2.88708 2.46573,5.62078 4.52929,7.86328 0.38744,0.21689 0.39489,-0.4151 0.45313,-0.65039 0.52078,-3.02153 1.90127,-5.85729 3.69922,-8.32421 0.17587,-0.3277 0.59295,-0.59909 0.62695,-0.97852 0.0289,-10e-4 0.0378,0.009 0.0703,0.006 0.23959,-0.28748 1.23933,-1.04862 1.20899,-1.47852 0.36509,-0.0696 0.6117,-0.45071 0.88867,-0.67382 -1.44402,2.9167 -2.58364,6.04454 -2.91406,9.29882 -0.18612,2.11704 0.19103,4.24156 0.19336,6.34375 1.79296,1.09574 3.86099,1.84254 5.95507,2.1543 0.58604,-0.0214 0.39506,-0.80571 0.41016,-1.18164 -0.11299,-4.04838 1.5219,-7.97666 3.83008,-11.24609 0.47077,-0.71547 1.08051,-1.34084 1.59961,-2.01172 -0.16058,0.32642 -0.21395,0.73826 -0.37696,1.05468 -1.39425,3.81782 -2.132,7.98147 -1.3457,12.01758 0.13445,0.37448 0.0306,0.98363 0.37696,1.1875 3.06584,-0.98407 6.02601,-2.56726 8.29687,-4.88672 1.03305,-1.04644 1.64123,-2.42165 1.95117,-3.84375 0.15173,-0.25484 0.1453,-0.5936 -0.17969,-0.70312 -2.85568,-1.52738 -5.61153,-3.23691 -8.27343,-5.08399 -0.0612,-0.0326 -0.12035,-0.0856 -0.19532,-0.0801 0.007,-0.009 0.015,-0.0179 0.0215,-0.0274 -1.0887,-0.92828 -2.30941,-1.7406 -3.40235,-2.68554 -4.30495,-3.58154 -8.23192,-7.64587 -11.49804,-12.20118 1.18389,0.59881 2.18386,0.89593 2.6289,0.29493 1.41166,-1.95368 -11.31365,-19.03839 -10.41601,-21.34961 0.35754,-1.46147 0.25646,-3.00204 0.40039,-4.49805 0.33373,-6.18917 0.43589,-12.41082 1.40625,-18.54492 0.12321,-0.7203 0.29238,-1.72607 0.4707,-2.55469 0.52872,-2.76979 1.44524,-5.43798 2.38086,-8.08984 2.52189,-7.6133 7.02456,-14.69322 12.51172,-20.35352 0.0378,-0.0388 0.0719,-0.071 0.10938,-0.10937 -0.50538,0.53456 -1.0085,1.07119 -1.49024,1.6289 -4.26599,4.92359 -7.38544,10.74937 -9.74023,16.79688 -3.90573,10.25457 -5.22359,21.414 -4.28907,32.32422 0.48768,0.69792 0.71696,1.72447 1.67579,1.90234 1.6436,0.57917 3.18907,-0.46251 4.58984,-1.18164 1.68423,-0.41382 3.28844,-1.1441 4.98828,-1.5332 8.38545,-2.22475 17.13256,-2.08937 25.73828,-2.22657 0.67858,-0.38846 1.61435,-0.4988 1.86524,-1.34961 0.51825,-1.61499 1.3026,-3.16648 2.30078,-4.56054 -0.99859,1.54131 -1.65506,3.28005 -1.8125,5.07422 0.19124,5.02132 -0.36455,6.77256 1.66797,10.55273 -0.12322,3.62147 1.98937,3.44637 3.0625,7.42969 1.14893,4.59507 6.40404,6.11706 10.18164,7.99609 4.02466,1.57947 7.82621,1.71377 11.24218,-1.72851 5.43912,-3.13146 11.53053,-6.42091 15.50977,-11.24219 0.37037,-0.44093 0.74955,-0.89914 1.12695,-1.34766 0.0257,0.57404 0.069,1.1436 0.58985,1.50586 1.50735,1.37012 3.72834,1.07297 5.47656,0.39258 1.18174,-0.45517 2.4533,-0.50918 3.69336,-0.69922 3.27084,-0.28082 6.62282,0.19412 9.82812,-0.69531 0.39428,-0.43004 1.15734,-0.66932 1.3086,-1.22461 -0.0113,-0.70371 0.28397,-1.49467 -0.32227,-2.03125 -2.66577,-2.75834 -6.30885,-4.24488 -9.40625,-6.4375 -1.04606,-0.56814 -1.99521,-1.63306 -3.27734,-1.52149 -0.48631,0.17991 -0.97267,0.35931 -1.45899,0.53907 -0.10336,0.15888 -0.22048,0.30724 -0.32812,0.46289 0.0893,-0.29291 0.16979,-0.58893 0.24023,-0.88867 0.46315,-4.09006 -4.37874,-5.38265 -7.45312,-6.27344 -3.06575,-1.25025 -6.19857,-2.77383 -9.45703,-3.48633 1.31338,-1.88976 4.84144,-3.47762 6.60547,-4.0918 3.18421,-1.17566 1.998,-5.49052 5.32421,-5.56445 3.70031,0.0265 -1.40987,-5.53665 2.26368,-5.08008 0.5311,-0.26079 0.23062,-2.17623 0.60937,-2.62305 0.78962,-1.10062 0.7477,-2.50859 1.08203,-3.77734 0.62068,-3.16955 0.83564,-6.7501 -1.02929,-9.5664 -0.61599,-0.61637 0.0863,-1.40466 -0.74805,-1.64844 0.75148,-4.12868 -2.38864,-7.50344 -7.29492,-12.43164 -1.3584,-1.41279 -7.88587,-3.63907 -8.80078,-5.375 -0.55919,-1.79619 -6.6253,-0.45027 -6.83204,-2.26758 -0.37001,-0.58485 -0.41433,-1.50119 -1.20898,-1.6543 -1.04277,-0.44918 -2.23248,-0.40477 -3.3457,-0.5918 1.65004,0.12324 3.29644,0.30679 4.92968,0.59376 5.68532,0.3065 11.28989,-1.58032 16.97657,-0.85938 3.34684,-0.25436 6.59727,1.33051 9.94922,0.72461 0.43528,-0.3885 1.21757,-0.55052 1.42382,-1.08789 0.0971,-0.75833 0.41465,-1.57423 -0.16211,-2.22461 -4.88575,-8.81231 -12.90522,-15.52674 -21.76171,-20.12695 -4.54337,-2.3342 -9.31611,-4.26439 -14.25977,-5.5625 -5.8676,-1.42553 -11.89483,-2.19722 -17.93164,-2.27149 -0.22564,-0.0302 -0.45273,-0.0253 -0.67969,-0.0215 -0.46052,-0.007 -0.89557,0.1224 -1.28515,0.33398 -0.0638,-0.10724 -0.13004,-0.21443 -0.17969,-0.32617 -0.46959,-0.18397 -0.92935,-0.37224 -1.41992,-0.40625 z M 488.5,430.23633 c -7.54414,1.27145 -14.83929,4.08953 -21.23047,8.27929 6.38011,-4.22743 13.67408,-7.06035 21.23047,-8.27929 z m 44.27539,26.04101 c -0.54415,0.0675 -0.0669,0.7284 -0.16211,1.05078 0.2561,3.10305 0.13476,6.23514 -0.75,9.24024 -0.34881,0.6574 0.52441,0.70594 0.94727,0.86328 1.55521,0.47108 3.08831,1.01976 4.63281,1.50586 0.43417,-0.33813 0.29564,-1.07898 0.46289,-1.57031 0.45508,-3.28338 0.92322,-6.61498 0.90625,-9.91797 -1.99193,-0.39217 -4.01578,-0.87314 -6.03711,-1.17188 z m -26.55664,27.63672 c 0.0277,-0.0142 0.0531,0.0535 0.0801,0.12696 -0.0585,-0.005 -0.11728,-0.006 -0.17578,-0.0117 0.0164,-0.0163 0.0358,-0.0288 0.0508,-0.0469 0.0145,-0.0385 0.0301,-0.0608 0.0449,-0.0684 z m -114.88281,22.90821 c 0.0457,0.11867 0.091,0.23717 0.13672,0.35546 0.27439,0.75663 0.51705,1.53107 0.6914,2.20118 -0.57672,0.44825 -0.63797,-0.31703 -0.62304,-0.83985 -0.0476,-0.57441 -0.13214,-1.14525 -0.20508,-1.71679 z m 91.95703,5.22265 c -1.30023,0.0151 -2.34564,0.88643 -3.58203,1.16797 -4.91626,1.85673 -10.10307,2.86088 -15.30664,3.49023 -3.37248,0.44236 -6.7725,0.70668 -10.13477,1.19922 -1.57799,0.31522 -2.46848,2.26986 -1.63086,3.66016 0.62328,1.1238 1.71251,1.87683 2.49219,2.88086 9.3552,9.91861 21.78409,17.11189 35.27148,19.47266 2.55674,0.37039 5.05433,1.5086 7.6836,1.12109 0.67956,-0.4639 1.64411,-0.71391 1.77148,-1.6543 1.5312,-4.52632 1.11677,-9.42716 2.4707,-13.99219 0.16517,-1.82228 1.4813,-3.43468 1.19727,-5.33007 -0.0729,-0.79215 -0.41467,-1.53677 -1.10156,-1.97266 -0.75394,-0.69883 -1.85808,-0.82604 -2.78516,-1.2207 -3.51296,-1.2107 -7.28645,-2.18882 -10.09179,-4.77149 -1.77578,-1.14157 -2.84003,-3.29857 -4.98438,-3.88867 -0.41167,-0.11905 -0.84093,-0.1776 -1.26953,-0.16211 z m 45.54492,7.67578 c -0.4355,-0.0389 -0.86587,-0.009 -1.2793,0.2168 -0.78327,0.25058 -1.56634,0.49957 -2.34961,0.75 v 0.002 c -1.39007,0.65224 -3.19579,0.54141 -4.2246,1.86133 -0.88502,1.00483 -0.71496,2.46397 -0.17774,3.58789 1.48116,4.95916 1.47464,10.19343 2.51367,15.24024 0.66667,0.63292 1.08335,1.71038 2.12696,1.73242 2.21147,0.35036 4.00655,-1.24334 5.90429,-2.07227 4.81164,-2.8094 9.63784,-5.83476 13.31446,-10.09179 0.0813,-0.57744 0.57521,-1.20719 0.38476,-1.75 -0.41382,-0.62363 -0.68404,-1.42738 -1.5,-1.60547 -4.70657,-2.11034 -9.16429,-4.74191 -13.40039,-7.67774 -0.43621,-0.047 -0.877,-0.15444 -1.3125,-0.19336 z"
         transform="scale(0.26458333)" />
      <path
         id="path1565"
         style="fill:#f7f0e5;fill-opacity:1;stroke:none;stroke-width:18.1417;stroke-linejoin:round;stroke-miterlimit:4;stroke-dasharray:none;stroke-opacity:1;paint-order:stroke markers fill;stop-color:#000000"
         d="m 344.07812,265.15625 c -5.08876,0.0584 -10.327,0.38804 -15.66601,1.0625 -1.08556,0.16312 -2.16597,0.36381 -3.24609,0.58594 a 10.253047,32.880465 39.240716 0 0 -2.66602,16.75586 10.253047,32.880465 39.240716 0 0 28.18945,-18.3125 c -2.17604,-0.0734 -4.37295,-0.1175 -6.61133,-0.0918 z m 14.09961,0.51953 a 10.253047,32.880465 39.240716 0 0 -3.72656,4.31641 10.253047,32.880465 39.240716 0 0 -12.85937,31.95312 10.253047,32.880465 39.240716 0 0 28.74218,-18.98047 10.253047,32.880465 39.240716 0 0 9.55274,-14 c -6.55003,-1.43456 -13.85684,-2.63753 -21.70899,-3.28906 z m 34.29493,6.5332 a 10.253047,32.880465 39.240716 0 0 -7.7461,25.13868 A 10.253047,32.880465 39.240716 0 0 412.5,279.5332 c -4.16094,-1.84221 -9.14266,-3.8126 -14.78711,-5.68359 -1.62314,-0.53803 -3.38853,-1.08966 -5.24023,-1.64063 z M 257.9668,330.69141 c -1.3552,2.61634 -3.00586,4.72965 -4.69336,6.47656 -1.9677,2.03696 -4.12404,3.72458 -5.99024,5.07031 -0.183,0.13197 -0.38856,0.2685 -0.57812,0.40234 a 32.880465,10.253048 27.007283 0 0 16.64258,-1.02539 32.880465,10.253048 27.007283 0 0 -5.38086,-10.92382 z m -6.07227,20.52343 a 10.253047,32.880465 72.21634 0 0 -8.45898,0.73633 c 0.003,0.0748 0.007,0.14733 0.002,0.23242 0.0138,0.0526 0.0348,0.14806 0.0488,0.17969 -0.0146,0.0135 -0.0491,0.0636 -0.0664,0.084 -0.16579,1.13111 -0.94034,3.0944 -1.85742,5.58789 -0.8568,2.32958 -1.61954,4.60146 -2.0957,6.89062 -0.24859,1.19509 -0.38446,2.23423 -0.42774,3.09375 -0.0725,1.43946 0.006,2.75812 0.1875,3.97266 0.0772,0.51558 0.17513,0.99368 0.28125,1.45508 a 10.253047,32.880465 72.21634 0 0 0.8711,-0.32813 c 0.11818,-1.52348 0.40671,-3.20941 0.9414,-4.86719 0.6647,-2.06083 1.54677,-3.71908 2.16211,-4.61523 0.90275,-1.31472 1.88399,-2.28139 2.5332,-2.43555 0.297,-0.0705 0.64452,0.13111 0.77149,0.15821 0.009,0.0145 0.0408,0.0491 0.0566,0.0684 0.32609,0.12614 0.67717,0.31452 0.91992,0.71094 0.61572,1.00551 0.89326,3.53883 1.13086,6.71485 0.0126,0.16818 0.0267,0.33766 0.0391,0.50586 a 10.253047,32.880465 72.21634 0 0 14.30664,-14.18165 10.253047,32.880465 72.21634 0 0 -11.3457,-3.96289 z m 211.4043,4.17774 a 10.253047,32.880465 84.653046 0 0 -25.81055,12.53906 10.253047,32.880465 84.653046 0 0 32.81055,7.22266 c -0.96005,-2.22408 -1.94325,-4.67567 -2.92969,-7.38672 -0.0878,-0.24125 -0.17717,-0.4841 -0.26562,-0.73047 -1.22816,-3.42069 -2.52597,-7.40017 -3.80469,-11.64453 z m -218.64844,12.66406 c -0.19126,0.39132 -0.38492,0.80409 -0.57422,1.23438 -0.37279,0.84738 -0.68407,1.78755 -0.95898,2.73632 a 10.253047,32.880465 72.21634 0 0 1.83398,-0.78711 c -0.0897,-0.69606 -0.16578,-1.38107 -0.22461,-2.04687 -0.0351,-0.39706 -0.0509,-0.75698 -0.0762,-1.13672 z m 187.80078,12.89453 a 32.880465,10.253048 27.007283 0 0 -6.72265,2.57227 32.880465,10.253048 27.007283 0 0 23.98242,23.72851 c 0.0365,-0.24803 0.0788,-0.4812 0.11133,-0.74023 0.4796,-3.81856 -1.08114,-9.60056 -0.48438,-11.45703 0.25204,-0.78408 1.28621,-1.23539 1.53516,-1.4961 0.33801,0.0928 1.49105,-0.0367 2.08398,0.66016 0.36773,0.43218 0.62082,1.035 0.79102,1.75 0.70329,0.85399 1.38386,1.76205 1.97656,2.73633 0.78464,1.2898 1.43878,2.79871 1.88477,4.46289 0.19878,0.74184 0.34371,1.46902 0.4414,2.1582 0.13541,0.95529 0.14042,1.8387 0.11914,2.625 0.0484,-0.92811 0.11738,-2.03806 0.27539,-3.65625 0.18064,-1.84992 0.46625,-5.89236 0.49219,-9.54687 0.0158,-2.22721 -0.0753,-4.09908 -0.21484,-5.91016 a 32.880465,10.253048 27.007283 0 0 -26.27149,-7.88672 z m -115.12305,14.25195 c -8.50549,0.16624 -16.71808,4.20494 -22.32421,10.5586 -0.72428,1.01036 -2.1119,1.91073 -2.17969,3.22266 1.71991,1.50273 4.02656,2.29156 6,3.44921 18.92082,9.72062 39.99743,15.23634 61.24609,16.09766 8.74395,-0.0668 17.59583,0.16735 26.2168,-1.47461 0.55479,-0.61401 -0.92877,-0.70163 -1.27344,-0.83203 -11.97184,-2.36709 -22.33565,-9.26423 -32.11914,-16.22461 -9.48158,-6.63716 -19.66692,-13.43948 -31.48242,-14.64648 -1.35632,-0.13356 -2.72145,-0.1856 -4.08399,-0.1504 z m 201.75586,31.90821 a 31.062485,13.256495 16.767576 0 0 -11.64257,2.15234 c 2.75246,0.95678 5.45186,2.25058 8.00976,3.86524 2.97842,1.8801 5.77238,4.16667 8.22266,6.74218 2.39133,2.51356 4.46816,5.31533 6.04297,8.2793 1.37834,2.59422 2.38121,5.34224 2.85547,8.13086 a 31.062485,13.256495 16.767576 0 0 6.16796,1.24023 c 0.0986,-4.01119 -0.15075,-8.09463 -0.83789,-12.21093 -0.0113,-0.0677 -0.021,-0.13669 -0.0273,-0.20508 -0.56068,-6.00866 -2.24786,-11.38997 -4.75586,-16.1543 a 31.062485,13.256495 16.767576 0 0 -14.03516,-1.83984 z m -95.90039,5.76758 c -4.10929,2.23442 -8.01717,4.88346 -12.26953,6.8789 -12.09157,5.95192 -25.13557,10.20685 -38.56445,11.70508 -2.8092,0.2775 -5.64608,0.27893 -8.43164,-0.0117 -0.56909,0.71952 -0.19945,1.9337 -0.61133,2.78516 -1.88209,8.71093 -9.26027,16.41544 -18.34375,17.35937 -9.19981,1.18664 -18.2941,-4.19061 -23.1875,-11.8125 -2.27578,-3.05269 -3.41326,-6.74366 -4.18945,-10.40039 -1.91115,-0.94559 -4.19632,-0.99765 -6.21485,-1.7207 -1.00502,-0.0952 -2.2124,-0.92567 -3.14453,-0.59375 0.11536,4.68957 0.97412,9.36368 1.7793,13.98437 0.0967,0.75906 0.37633,2.17971 1.39844,1.51172 1.88405,2.04875 2.97785,4.76336 4.43164,7.13282 2.73264,5.18192 5.82229,10.27072 10.21679,14.22851 6.87368,6.68878 16.31105,10.31309 25.77149,11.125 5.87659,0.15632 11.87088,0.2131 17.52734,-1.63281 18.57978,-5.45561 34.04838,-19.20111 43.45508,-35.91992 3.65449,-6.23531 6.35535,-12.96847 8.60938,-19.8125 0.45546,-1.64526 1.50357,-3.07663 1.95312,-4.69532 -0.0268,-0.0812 -0.10947,-0.11933 -0.18555,-0.11132 z m 108.63282,34.13281 c -0.78075,2.59997 -1.93726,5.08015 -3.38086,7.37109 -3.10376,4.92554 -7.48374,9.06284 -11.93164,11.78907 -1.11243,0.67949 -2.28115,1.1468 -3.47266,1.46679 a 31.062485,13.256495 16.767576 0 0 11.64648,4.88867 31.062485,13.256495 16.767576 0 0 3.25586,0.94532 c 1.50401,-2.46374 2.94427,-5.12568 4.25782,-8.00782 2.34019,-5.13474 4.18879,-10.72755 5.32421,-16.60742 a 31.062485,13.256495 16.767576 0 0 -3.30078,-1.13281 31.062485,13.256495 16.767576 0 0 -2.39843,-0.71289 z m -60.59375,24.83594 a 13.256495,31.062486 82.658754 0 0 -7.89844,0.46679 13.256495,31.062486 82.658754 0 0 -18.83789,4.99805 c 0.13743,1.19518 0.30058,2.38445 0.51562,3.55859 0.71493,3.90358 1.86758,7.62493 3.54493,10.96289 1.26891,2.5259 2.8399,5.00148 4.6582,7.38086 a 13.256495,31.062486 82.658754 0 0 11.54687,-0.36523 13.256495,31.062486 82.658754 0 0 19.33399,-5.22852 c -0.42541,-0.5123 -0.83671,-1.03349 -1.21485,-1.57617 -2.1156,-3.03622 -3.38381,-6.41564 -3.87109,-10.04101 -0.22155,-1.65569 -0.33876,-3.37927 -0.26562,-5.11914 0.0624,-1.48496 0.27558,-2.9922 0.67578,-4.48829 a 13.256495,31.062486 82.658754 0 0 -8.1875,-0.54882 z m 68.01367,11.63086 a 31.062485,13.256495 16.767576 0 0 -11.57031,2.11523 c 0.48081,0.3394 0.97752,0.71628 1.48242,1.14258 0.73581,0.62127 1.54051,1.38865 2.25976,2.27734 0.63996,0.79072 1.29172,1.77518 1.72071,2.91797 0.20422,0.54405 0.36657,1.14519 0.44336,1.79297 0.0743,0.62693 0.0693,1.29623 -0.0527,1.98828 -0.11825,0.67077 -0.34178,1.33664 -0.67969,1.98438 -0.32653,0.62594 -0.7493,1.21414 -1.25976,1.75976 -0.52725,0.56248 -1.13137,1.04664 -1.77735,1.46485 -0.24078,0.15587 -0.49618,0.29675 -0.75195,0.4375 a 31.062485,13.256495 16.767576 0 0 14.25195,8.24609 c 1.13679,-1.25694 2.17462,-2.55516 3.08399,-3.89063 1.75043,-2.57061 3.03698,-5.23349 3.82617,-7.91796 0.23137,-0.79743 0.31927,-1.65983 0.2832,-2.57227 -0.0382,-0.96567 -0.21417,-1.96742 -0.49609,-2.96484 -0.62767,-2.22072 -1.74809,-4.32153 -2.83008,-5.92579 -0.37585,-0.54927 -0.91054,-1.14989 -1.57812,-1.78125 -0.26709,-0.25258 -0.56293,-0.50359 -0.85742,-0.7539 a 31.062485,13.256495 16.767576 0 0 -5.49805,-0.32031 z m -37.19141,19.74414 a 13.256495,31.062485 0.75025592 0 0 -3.51172,19.38281 13.256495,31.062485 0.75025592 0 0 -0.0156,0.7207 c 2.58812,0.31679 5.15212,0.53046 7.65625,0.6211 6.63498,0.24014 12.64947,-0.36582 17.60156,-1.89844 0.41536,-0.12808 0.82831,-0.27913 1.24219,-0.42188 a 13.256495,31.062485 0.75025592 0 0 -2.96875,-18.08007 c -2.98465,0.49836 -6.39824,0.71143 -9.97656,0.63085 -3.31984,-0.0747 -6.78742,-0.40326 -10.02735,-0.95507 z"
         transform="scale(0.26458333)" />
      <path
         id="path1471"
         style="fill:#cdf459;fill-opacity:1;stroke-width:0.167033;stroke-linejoin:round;paint-order:stroke markers fill;stop-color:#000000"
         d="m 388.87891,320.67969 c -1.71945,0.0312 -0.75339,-0.24235 -2.25295,0.54179 -5.6e-4,-0.89116 -2.53413,-0.53398 -2.53413,-0.53398 -2.97278,-0.50963 -11.87777,3.86931 -16.10666,11.538 -4.22888,7.66869 -2.68042,19.77836 -0.48123,26.59091 0.18432,0.42938 0.17597,0.95135 0.41211,1.34179 0.74121,0.18943 1.54388,-0.0302 2.30664,0.008 0.75063,-0.0588 1.53971,0.0477 2.27343,-0.0781 0.0205,-0.4418 -0.57087,-0.70465 -0.80078,-1.06836 -3.06913,-3.30001 -4.60929,-7.86676 -4.51367,-12.3457 -0.0449,-1.13133 0.0824,-2.25822 0.082,-3.38477 -0.0691,-0.25205 22.30311,4.89588 22.3125,4.58985 -0.31944,-0.95708 -5.74794,-3.078 -11.30469,-5.25391 4.09036,-2.15822 5.332,-10.30705 5.69141,-16.04883 3.31734,0.66918 6.36193,2.53355 8.4707,5.18164 1.77632,2.12981 2.78821,4.83389 2.99805,7.58399 0.34785,3.22471 0.31416,6.51443 -0.55859,9.66992 -1.11646,4.39358 -3.57811,8.54246 -7.27149,11.25781 -0.22504,0.10732 -0.58349,0.53612 -0.15234,0.60742 4.01271,0.55722 8.04441,1.14502 11.89844,2.43946 0.38079,0.046 0.81288,0.48458 1.14843,0.25976 1.41265,-4.11689 2.38684,-8.38396 3.01172,-12.68945 0.89182,-6.5763 0.52024,-13.54541 -2.39062,-19.60742 -1.65993,-3.48138 -4.1637,-6.57561 -7.35352,-8.76563 -1.42743,-1.05082 -3.06642,-1.89374 -4.88476,-1.83398 z"
         transform="scale(0.26458333)" />
      <path
         id="path1562"
         style="fill:#fda3b8;fill-opacity:1;stroke:none;stroke-width:1.2;stroke-linejoin:round;stroke-miterlimit:4;stroke-dasharray:none;stroke-opacity:1;paint-order:stroke markers fill;stop-color:#000000"
         d="m 82.498839,61.438625 c -1.285338,0.800846 -2.168019,2.092669 -2.845522,3.418533 -1.199475,2.413683 -1.7726,5.093359 -1.989841,7.766315 -0.01517,0.392536 0.391734,0.717497 0.770495,0.607716 0.395087,-0.141102 0.747496,-0.382172 1.128353,-0.558051 1.080778,-0.550651 2.187813,-1.048123 3.305485,-1.518825 0.15813,-0.148376 0.352324,-0.29132 0.352536,-0.531143 0.04411,-0.307922 -0.147979,-0.583409 -0.121269,-0.890731 -0.11569,-1.604356 -0.105352,-3.231284 -0.01262,-4.810394 0.04263,-0.696683 0.09879,-1.435526 0.177377,-2.146623 0.06222,-0.317963 0.175963,-0.658265 0.08355,-0.977008 -0.121703,-0.126257 -0.194532,-0.323895 -0.346818,-0.406043 -0.179729,-0.07594 -0.327573,-0.0073 -0.501722,0.04625 z" />
      <path
         style="fill:#fda3b8;fill-opacity:1;stroke:none;stroke-width:4.53543;stroke-linejoin:round;stroke-miterlimit:4;stroke-dasharray:none;stroke-opacity:1;paint-order:stroke markers fill;stop-color:#000000"
         d="m 462.51671,264.34777 c -2.60468,3.62578 -4.63746,8.65351 -7.19513,12.33318 -4.31913,6.45134 -9.28408,13.47706 -14.12352,19.54863 2.23885,2.75478 5.93251,4.78309 8.24826,7.5826 3.97197,4.39052 7.63591,12.18877 10.15233,17.53149 0.0998,0.54644 1.18895,-0.56517 1.47511,-1.34399 4.36416,-11.13737 6.33692,-24.04716 5.87736,-36.08293 0.078,-6.35096 -1.20697,-12.72869 -3.90047,-18.46401 -0.0632,-0.096 -0.4048,-1.15457 -0.53394,-1.10497 z"
         id="path1564"
         transform="scale(0.26458333)" />
      <path
         id="path1558"
         style="fill:#fda3b8;fill-opacity:1;stroke:none;stroke-width:0.848529;stroke-linejoin:round;stroke-miterlimit:4;stroke-dasharray:none;stroke-opacity:1;paint-order:stroke markers fill;stop-color:#000000"
         d="m 85.216502,88.754272 c -0.619829,0.02221 -1.332442,0.18252 -1.679512,0.749136 -0.263001,0.533611 -0.06871,1.14324 0.0632,1.685832 0.212569,0.794316 0.501986,1.618245 1.111436,2.199373 0.259834,0.228195 0.667252,0.212571 0.921165,-0.01628 0.81902,-0.708428 1.605952,-1.498029 2.088039,-2.48248 0.09259,-0.225856 0.269782,-0.451768 0.185102,-0.705451 -0.01714,-0.18039 -0.03511,-0.36372 -0.186674,-0.485222 -0.623509,-0.694208 -1.602264,-0.932934 -2.502754,-0.944911 z" />
      <path
         style="fill:#cdf459;fill-opacity:1;stroke-width:0.11811;stroke-linejoin:round;paint-order:stroke markers fill;stop-color:#000000"
         d="m 291.93109,303.3689 c -0.77684,0.2598 -1.48562,0.005 -2.19605,0.41045 -1.86376,1.09994 -3.14339,1.51669 -4.5798,3.11316 -2.31091,0.79367 -3.6103,4.90957 -3.95206,7.83382 -0.12216,0.26845 0.0862,0.52905 0.003,0.80868 -0.20502,2.44571 -0.46686,4.94479 -0.0795,7.39212 0.14534,0.74771 0.31074,1.50769 0.63293,2.2002 0.2348,0.14392 0.72664,0.0242 0.71643,-0.32593 0.16738,-1.74632 0.37436,-3.50025 0.87317,-5.19275 0.92869,-2.99116 2.73841,-5.68674 5.06031,-7.79341 1.88875,-1.7569 4.21174,-3.0655 6.70366,-3.73862 0.7256,-0.17625 1.4592,-0.30161 2.19587,-0.39656 0.29584,-0.22496 -0.16771,-0.46345 -0.3137,-0.61332 -1.39678,-1.20618 -2.90174,-2.27701 -4.45809,-3.26574 -0.23419,-0.0949 -0.33624,-0.36778 -0.57513,-0.43234 l -0.0166,-2.4e-4 z"
         id="path1540"
         transform="scale(0.26458333)" />
      <path
         style="fill:#cdf459;fill-opacity:1;stroke-width:0.11811;stroke-linejoin:round;paint-order:stroke markers fill;stop-color:#000000"
         d="m 298.7794,301.99425 c -2.26651,0.0501 -4.56928,0.38433 -6.66089,1.28808 -0.3037,0.22144 0.0559,0.52756 0.27984,0.62028 1.79054,1.0613 3.46178,2.33442 5.01533,3.71517 0.81314,0.0761 1.63689,0.0179 2.45084,0.17031 2.17648,0.33607 4.29541,1.27933 5.9244,2.77561 1.91635,2.0355 3.26872,4.57308 4.16248,7.21888 0.69738,2.17784 1.11041,4.48379 1.0691,6.78759 0.0277,1.71137 -0.0548,3.43666 -0.43549,5.10537 -0.63667,3.26903 -2.09491,6.42162 -4.33576,8.90696 -0.54265,0.6657 -1.25013,1.20223 -1.73169,1.91663 -8.8e-4,0.35332 0.54197,0.39799 0.7478,0.20386 1.11602,0.27102 2.2558,0.50942 3.41148,0.42034 1.2288,-0.001 2.47317,-0.20094 3.61124,-0.65345 0.16005,-0.31877 0.0492,-0.75483 0.10592,-1.11356 0.0352,-1.17342 0.42741,-2.36159 1.11367,-3.32094 0.84265,-1.0746 -1.99268,4.47952 -0.79447,3.86034 2.14562,-8.96282 3.47213,-24.95505 -1.50521,-32.81639 -0.11634,-0.27524 2.66176,6.52625 2.71875,6.77527 -0.0257,0.54062 -0.12367,1.08514 -0.21814,1.6239 -0.74001,-1.98051 -0.87118,-4.47817 -1.90447,-6.32095 -1.93818,-3.34825 -5.7017,-6.08827 -9.48053,-7.16202 -1.11439,-0.3176 -2.38399,-0.0123 -3.5442,-10e-4 z"
         id="path1467"
         transform="scale(0.26458333)" />
      <path
         style="fill:#a2fce5;fill-opacity:1;stroke:none;stroke-width:2.26772;stroke-linejoin:round;stroke-miterlimit:4;stroke-dasharray:none;stroke-opacity:1;paint-order:stroke markers fill;stop-color:#000000"
         d="m 432.00811,415.4381 c -1.8837,1.18259 -3.58768,2.63763 -5.52036,3.76011 -8.78941,5.3724 -18.54555,9.02774 -28.48025,11.65943 -13.5782,3.52189 -27.71456,4.53463 -41.70032,3.6996 -0.41797,0.0809 -1.81282,-0.39079 -2.10668,-0.0267 0.24663,0.71427 1.74491,1.31505 2.1101,1.97105 1.64842,1.27876 3.3473,2.57583 4.52853,4.32122 1.46135,1.98693 2.26148,4.34998 2.72953,6.76203 0.19833,0.66698 0.95796,0.0263 1.39022,0.055 6.87317,-1.48666 13.78303,-2.92118 20.53514,-4.93013 6.81299,-1.94686 13.49927,-4.33994 19.94454,-7.28965 7.01466,-3.1654 14.12028,-6.42838 20.14044,-11.30262 2.30565,-2.04334 4.60023,-4.22688 5.96379,-7.03896 0.20453,-0.50815 0.67254,-0.99818 0.64525,-1.55979 -0.0355,-0.0661 -0.11206,-0.0935 -0.17993,-0.0806 z"
         id="path1556"
         transform="scale(0.26458333)" />
      <path
         style="fill:#fda3b8;fill-opacity:1;stroke:none;stroke-width:3.20704;stroke-linejoin:round;stroke-miterlimit:4;stroke-dasharray:none;stroke-opacity:1;paint-order:stroke markers fill;stop-color:#000000"
         d="m 318.72933,361.11893 c -0.88793,2.30854 -1.46985,4.81057 -2.02684,7.24756 -0.53433,2.33167 -0.70188,4.83674 -1.17862,7.11002 -0.99372,-4.03678 -0.39157,-8.28098 -0.11463,-12.38334 -0.11936,-0.50549 0.41224,-1.27077 0.0155,-1.649 -1.41821,0.37527 -2.63653,1.35708 -4.04487,1.8151 -1.72007,0.82391 -3.62696,1.24566 -5.36159,2.01944 -0.60876,1.57834 -0.35437,3.39302 -0.19259,5.04613 0.56716,3.88453 2.67281,7.94485 6.54792,9.37601 4.43974,1.7012 9.59923,-0.39696 12.37872,-4.06862 1.96503,-2.40152 2.84711,-5.69381 2.3338,-8.7501 -0.32037,-0.94398 -1.55454,-1.15534 -2.29192,-1.70015 -2.15067,-1.08484 -4.05011,-2.57828 -5.92958,-4.05545 -0.0427,-0.0163 -0.0899,-0.0232 -0.13534,-0.008 z"
         id="path1560"
         transform="scale(0.26458333)" />
      <path
         style="fill:#cdf459;fill-opacity:1;stroke-width:0.0835166;stroke-linejoin:round;paint-order:stroke markers fill;stop-color:#000000"
         d="m 280.78361,313.52116 c -0.11394,0.30622 -0.47546,0.61622 -0.62922,0.87148 -1.35886,3.08256 -1.75954,4.73704 -2.73278,7.9554 -0.16869,0.63695 -0.58358,3.56084 -0.70393,4.20607 -1.18454,3.4199 -0.17458,6.55747 -0.034,9.32343 -0.003,0.30998 0.42244,0.28174 0.62873,0.41072 1.96928,0.79309 3.93836,1.59999 5.90436,2.40011 0.96934,0.34896 1.97291,0.6296 2.99347,0.76822 0.27241,-0.0254 0.18049,-0.34919 0.0244,-0.46226 -1.37227,-1.74101 -2.28288,-3.7857 -2.93244,-5.88902 -0.7371,-2.53209 -1.02214,-5.20991 -0.86217,-7.84061 0.0628,-0.2048 -0.14116,-0.37743 -0.32205,-0.24948 -0.17855,0.13448 -0.28639,0.0801 -0.32197,-0.12681 -0.54663,-1.39171 -0.74745,-2.89296 -0.71616,-4.38007 -0.0241,-1.54569 0.0578,-3.06429 0.24058,-4.60046 1.32283,-5.97832 0.56954,-4.23357 0.49214,-4.50415 -0.52163,-1.5251 -0.29537,0.14585 -0.32187,0.21706 z"
         id="path1453"
         transform="scale(0.26458333)" />
      <path
         style="fill:#a2fce5;fill-opacity:1;stroke:none;stroke-width:2.26772;stroke-linejoin:round;stroke-miterlimit:4;stroke-dasharray:none;stroke-opacity:1;paint-order:stroke markers fill;stop-color:#000000"
         d="m 299.16928,419.34126 c -0.37615,0.50173 -0.22991,1.29189 -0.40503,1.89404 -0.76646,5.01479 -1.0764,10.08493 -1.23291,15.15063 0.63823,0.59105 1.62061,0.84636 2.3856,1.31042 4.88217,2.59126 10.14733,4.33205 15.16946,6.60378 0.77065,0.31264 1.47695,0.82044 2.27062,1.05333 0.42481,-0.33934 0.12159,-1.05875 0.32227,-1.531 0.56046,-3.64578 2.28771,-7.09145 4.85058,-9.73853 -0.15175,0.41368 -1.56965,2.11094 -1.33081,2.55957 0.65103,-0.0387 1.8812,-2.0047 2.40921,-2.3398 1.66146,-1.47583 3.56167,-2.63838 5.52146,-3.67582 0.11762,-0.59419 -1.15401,-0.42663 -1.57325,-0.69605 -9.44305,-2.44016 -18.58733,-5.96387 -27.36677,-10.20901 -0.3364,-0.12097 -0.6612,-0.35323 -1.02043,-0.38156 z"
         id="path1554"
         transform="scale(0.26458333)" />
      <path
         style="fill:#fae87c;fill-opacity:1;stroke:none;stroke-width:1.60352;stroke-linejoin:round;stroke-miterlimit:4;stroke-dasharray:none;stroke-opacity:1;paint-order:stroke markers fill;stop-color:#000000"
         d="m 329.33727,430.43068 c -3.12508,1.42888 -5.95748,3.52565 -8.16815,6.15973 -2.03312,4.56553 -1.86293,9.87742 -0.31575,14.56112 1.63733,4.69118 4.59408,8.92114 8.49216,12.01161 4.01791,3.22671 9.23131,5.26222 14.43391,4.68257 3.71326,-0.2894 7.26869,-1.96101 9.9041,-4.58604 3.91744,-3.78154 6.39773,-8.99278 7.0215,-14.38883 0.16604,-2.47921 0.086,-5.04918 -0.91263,-7.36555 -0.74094,-1.93739 -2.02624,-3.59863 -3.47581,-5.05782 0.061,-0.40334 -0.47148,-0.66203 -0.67151,-0.97928 -0.46613,-0.50483 -0.96591,-1.09844 -1.72231,-1.07444 -6.35581,-0.57036 -12.69243,-1.41701 -18.9378,-2.73513 -1.89061,-0.36614 -3.76431,-0.87088 -5.64771,-1.22794 z m 8.87889,12.99067 c 1.53837,-0.0806 2.80087,1.63451 2.24993,3.08271 -0.30727,1.06992 -1.4043,1.73029 -2.48851,1.6761 -0.51337,0.14162 -0.32497,0.85503 -0.3962,1.24693 0.0107,1.61116 -0.0236,3.24421 0.24273,4.83581 0.34607,0.33007 0.95771,0.2318 1.39974,0.39641 1.28548,0.23741 2.57347,0.53037 3.85677,0.74021 0.37335,-0.24059 0.41078,-0.78504 0.79187,-1.04443 1.04552,-1.00611 2.95502,-0.92219 3.74166,0.36478 0.8409,1.19821 0.26442,3.06299 -1.13576,3.53363 -1.27649,0.55008 -2.81053,-0.25917 -3.23411,-1.54265 -0.3074,-0.37196 -0.8355,-0.009 -1.23321,-0.0883 -1.31473,0.0616 -2.6591,0.0891 -3.95667,-0.0336 -0.0868,0.70635 0.1118,1.45911 0.12081,2.18547 -0.0767,0.5673 0.11616,1.03551 0.76585,0.91885 1.46015,0.11558 2.50271,1.77802 1.95022,3.14156 -0.483,1.52807 -2.63224,2.13057 -3.824,1.04288 -1.08686,-0.8453 -1.15857,-2.54987 -0.18437,-3.49117 0.59336,-0.33248 0.45549,-0.86294 0.14428,-1.34976 -0.45094,-0.98213 -0.77749,-2.02774 -1.07136,-3.05755 -1.19216,-0.61542 -2.40558,-1.24166 -3.4661,-2.08492 -0.42093,0.003 -0.61204,0.57796 -1.00265,0.75389 -1.20533,0.85965 -3.10003,0.30316 -3.61081,-1.09726 -0.56271,-1.31059 0.33505,-2.98528 1.76104,-3.18526 1.30155,-0.33509 2.71025,0.63462 2.88885,1.95939 -0.0747,0.50084 0.14557,0.85383 0.67327,0.91841 0.77431,0.25852 1.55541,0.59329 2.36853,0.67655 0.32648,-0.15612 0.057,-0.62906 0.17229,-0.91236 0.0864,-1.72041 0.53512,-3.43394 1.24711,-4.99561 -0.43572,-0.50149 -1.063,-0.98156 -1.18255,-1.70948 -0.37632,-1.48643 0.90971,-2.94478 2.41135,-2.88125 z"
         id="path1552"
         transform="scale(0.26458333)" />
      <path
         id="path-1-06"
         style="fill:#6a0b09;fill-opacity:1;fill-rule:nonzero;stroke:none;stroke-width:3.77953px;stroke-linecap:butt;stroke-linejoin:miter;stroke-opacity:1"
         d="m 314.19141,232.08008 c -0.10573,10e-4 -0.1751,0.0305 -0.23047,0.0644 -0.14088,-0.019 -0.30533,-0.0272 -0.52344,0.0156 -0.82164,0.16124 -3.30284,1.11575 -6.19531,3.60351 -1.82076,1.566 -3.689,3.63526 -5.5,6.33399 -2.99647,4.46528 -5.33567,9.9156 -7.00781,15.63281 -0.7837,2.67951 -1.37598,5.2665 -1.80274,7.60937 -0.45269,2.48524 -0.71499,4.66343 -0.83398,6.41407 -0.0658,0.96838 -0.089,1.81016 -0.0781,2.52734 0.0122,0.80645 0.0679,1.45831 0.1543,1.97852 0.0417,0.25112 0.0952,0.46 0.15234,0.66015 -5.76531,3.76311 -10.47824,7.82078 -14.41211,12.02539 -4.14489,4.43016 -7.42302,9.0066 -10.16015,13.50586 -2.82525,4.64411 -5.13155,9.3042 -7.15625,13.60156 -2.28407,4.84785 -3.95327,8.65154 -6.01954,12.75 -1.14832,2.28678 -2.56539,4.15836 -4.05078,5.76954 -1.71023,1.85506 -3.63251,3.48591 -5.36523,4.88281 -3.44222,2.77507 -4.93908,3.79789 -7.11523,5.7539 -2.84359,2.55591 -4.03172,4.56523 -4.8125,5.5625 0.11019,-0.0692 0.28093,-0.15545 0.41406,-0.23046 0.006,0.0136 0.001,0.0283 0.0117,0.041 0.33828,0.40646 3.31896,1.06865 4.85546,1.54297 0.4794,0.14799 0.99311,0.3557 1.50196,0.56055 -0.42862,1.11671 -0.88281,2.66707 -1.31055,4.5 -0.58515,2.50745 -0.98165,5.02904 -1.13867,7.48828 -0.0836,1.30871 -0.0871,2.38294 -0.0781,3.3164 0.0147,1.53433 0.15268,2.9418 0.41993,4.23829 0.32855,1.59389 0.83497,2.92828 1.4414,3.99804 0.5655,0.99755 1.18651,1.67345 1.68164,2.1836 0.14464,0.14902 0.32654,0.35296 0.4336,0.46093 -0.047,-0.0841 -0.10187,-0.22159 -0.15039,-0.3164 0.0973,-0.11412 0.27934,-0.26653 0.39062,-0.62696 0.35593,-1.15277 1.00813,-5.54304 2.36914,-8.63671 0.1893,-0.43029 0.38296,-0.84306 0.57422,-1.23438 0.0252,0.37974 0.0411,0.73966 0.0762,1.13672 0.22203,2.51306 0.64556,5.28565 1.40821,7.98633 0.006,0.0213 0.0111,0.0428 0.0156,0.0645 0.005,0.0216 0.01,0.0417 0.0176,0.0625 1.2959,3.5624 2.18861,5.91191 3.53906,8.28711 0.01,0.0168 0.0179,0.0322 0.0273,0.0488 0.80756,1.413 1.76142,2.61114 2.80078,3.5664 1.40398,1.29042 2.6791,1.88609 3.5332,2.24219 0.0115,0.009 0.0363,0.0285 0.0469,0.0371 -7.8e-4,-0.005 7.5e-4,-0.0129 0,-0.0176 0.0548,0.0227 0.12489,0.0554 0.17579,0.0762 -0.0557,-0.0439 -0.11965,-0.10922 -0.17774,-0.15821 -0.048,-0.40985 0.0167,-0.99232 0.0449,-1.85937 0.0111,-0.34095 0.0127,-0.71249 -0.0156,-1.10352 -0.0177,-0.24362 -0.0501,-0.53096 -0.0879,-0.85547 -0.15564,-1.33712 -0.27783,-2.32593 -0.39453,-4.14258 -0.10929,-1.70114 -0.19808,-2.98072 -0.27539,-3.83984 0.14507,0.5695 0.37373,1.27521 0.80859,2.12891 2.97602,5.84244 13.82162,20.0969 33.41797,32.21484 1.85583,1.14761 3.73022,2.23392 5.61523,3.27344 -1.02305,2.6639 -1.83975,6.85434 -1.9082,10.91601 -0.0727,4.31454 0.62308,8.23949 1.19141,9.92383 0.0823,0.24389 0.18059,0.46742 0.28515,0.68164 0.005,0.0347 0.002,0.0681 0.0117,0.10352 0.0942,0.3439 0.42898,0.83411 0.96875,1.40234 0.19406,0.24009 0.42086,0.51516 0.51367,0.66211 0.009,-0.0238 0.0418,-0.0813 0.0527,-0.10742 0.86157,0.78866 2.05581,1.6764 3.52929,2.52539 0.95794,0.55194 1.97363,1.05733 3.03321,1.52539 -0.13597,19.35951 6.78371,37.24553 15.60742,50.43359 1.86798,2.79192 3.79689,5.352 5.75195,7.7168 -1.64902,6.41415 -3.47215,18.05454 -3.3789,27.22852 0.0436,4.2863 0.44642,8.06646 1.19726,11.35351 0.83985,3.67673 2.05344,6.46865 3.41602,8.63086 1.36469,2.16557 3.22318,4.24611 5.78906,5.82422 2.29522,1.41165 4.88897,2.25451 7.70508,2.5918 2.99833,0.35911 6.06643,0.12136 8.90625,-0.42383 2.3415,-0.44953 4.46622,-1.08989 6.14453,-1.74219 0.0267,0.14714 0.0452,0.29696 0.0742,0.44336 0.46464,2.34826 1.22386,4.60996 2.34765,6.68359 1.14778,2.1179 2.66422,4.01622 4.58594,5.57813 1.97973,1.60906 4.31198,2.79824 6.96094,3.53516 2.98331,0.91819 5.74668,1.42163 8.28711,1.56445 2.72674,0.1533 5.19472,-0.10494 7.39648,-0.69727 2.39162,-0.6434 4.42705,-1.66833 6.11914,-2.93164 1.90369,-1.42127 3.32421,-3.10672 4.35352,-4.82226 1.56409,-2.60687 2.23158,-5.2808 2.44922,-7.44922 0.022,-0.21915 0.0271,-0.4348 0.041,-0.65235 2.96548,-0.83947 6.43578,-1.38589 10.45703,-1.98828 4.14329,-0.62067 8.68735,-1.29567 12.82032,-2.50586 2.0918,-0.6125 4.12457,-1.37515 6.0039,-2.36328 1.90728,-1.00281 3.66332,-2.24151 5.15625,-3.79882 1.53146,-1.59751 2.73548,-3.47799 3.55078,-5.66602 0.82056,-2.2021 1.2177,-4.63783 1.21875,-7.30274 0.0303,-0.24542 0.0449,-0.48691 0.0684,-0.73046 0.59945,-0.0859 1.38047,-0.3136 1.96289,-0.40235 0.37536,-0.0572 0.863,-0.0783 1.31836,-0.11328 0.002,2.59001 0.44071,5.71811 1.82618,9.10547 1.46221,3.57502 3.97325,7.33735 7.7246,10.09961 1.70498,1.25543 3.65736,2.2928 5.8379,2.96875 2.12078,0.65742 4.43143,0.9644 6.88867,0.80664 0.0113,-7.2e-4 0.024,-0.002 0.0351,-0.004 0.0112,-0.002 0.0219,-10e-4 0.0332,-0.002 0.80584,-0.0403 1.67032,-0.17295 2.55468,-0.37891 0.89201,-0.20773 1.81732,-0.49326 2.73633,-0.8457 1.93005,-0.74016 3.81915,-1.76615 5.40235,-2.99805 0.86797,-0.67537 1.63784,-1.40772 2.2832,-2.18945 0.72562,-0.87895 1.27959,-1.80232 1.64258,-2.75195 0.37861,-0.99051 0.51439,-1.93828 0.48437,-2.80664 2.71317,1.1512 5.4703,2.11882 8.24219,2.83008 6.90162,1.78272 14.10882,2.98422 21,3.33984 7.07218,0.36496 13.84134,-0.15894 19.69727,-1.875 6.86069,-2.0161 13.5199,-5.75939 18.91015,-10.48047 2.82192,-2.4716 5.31244,-5.22311 7.35156,-8.17969 2.11672,-3.06907 3.74331,-6.35152 4.75977,-9.77734 0.48176,-1.61583 0.6242,-3.22838 0.55469,-4.75781 -0.0731,-1.60738 -0.38382,-3.15072 -0.81446,-4.56055 -0.95688,-3.1327 -2.57112,-5.83155 -4.11523,-7.78906 -0.75305,-0.98203 -1.65673,-1.86698 -2.56641,-2.63867 -0.98056,-0.83183 -2.04088,-1.59364 -3.07617,-2.26954 -2.35124,-1.53502 -4.83297,-2.79451 -6.74414,-3.66406 -2.28225,-1.03838 -3.94295,-1.63147 -5.16601,-1.97461 0.78615,-1.38225 1.54995,-2.81828 2.27929,-4.31836 6.00254,-12.34577 9.19126,-27.56444 6.50586,-43.26172 -1.00292,-10.05994 -4.85926,-18.56689 -10.38672,-25.42578 -5.87539,-7.29063 -13.51279,-12.55773 -21.3125,-16.05273 -9.1915,-4.11866 -18.56222,-5.78253 -26.43164,-6.02344 -13.60785,-0.41657 -22.34968,3.03489 -24.75586,4.44141 0.55299,-1.87354 1.15807,-4.0149 1.64258,-6.28321 0.58638,-2.74525 0.93815,-5.39138 0.93555,-7.82421 -4.6e-4,-0.42559 -0.0233,-0.81437 -0.0449,-1.20313 0.41479,0.28807 0.84014,0.57105 1.27929,0.83203 2.02291,1.20217 3.81295,1.84883 5.29688,2.26172 1.88884,0.52555 3.66306,0.56039 5.23828,0.32031 0.61116,-0.0931 1.17535,-0.22456 1.69141,-0.37304 1.12892,-0.32484 1.98917,-0.78751 2.63671,-1.15821 0.0468,-0.008 0.0996,-0.01 0.14063,-0.0234 0.092,-0.0307 0.16717,-0.074 0.23047,-0.1211 0.0577,-0.043 0.0999,-0.0914 0.14062,-0.13867 0,0 0.002,0 0.002,0 0.009,-0.0106 0.0229,-0.0207 0.0312,-0.0312 -0.0717,0.0236 -0.14661,0.0329 -0.22071,0.0273 -0.0654,-0.005 -0.12727,-0.0218 -0.1875,-0.0508 -0.0545,-0.0262 -0.10615,-0.0625 -0.1582,-0.10742 -0.0481,-0.0415 -0.0977,-0.0907 -0.14844,-0.15039 -0.092,-0.10817 -0.19609,-0.25361 -0.3125,-0.44336 -0.10625,-0.17319 -0.22463,-0.38607 -0.35742,-0.64648 -0.2396,-0.46988 -0.52214,-1.09063 -0.85742,-1.90235 -0.30189,-0.73087 -0.64256,-1.60528 -1.02539,-2.64648 -0.6937,-1.88667 -1.50397,-4.2548 -2.44336,-7.14649 -0.79491,-2.44692 -1.6577,-5.19136 -2.58203,-8.21289 0.001,0.004 -0.22396,-0.73668 -0.22266,-0.73242 -1.71622,-5.63928 -3.76061,-12.70544 -5.65039,-20.10547 -0.8202,-3.21175 -1.60457,-6.46172 -2.28711,-9.5625 -0.64145,-2.91411 -1.19093,-5.68902 -1.58789,-8.13281 -0.022,-0.1355 -0.0508,-0.26917 -0.0742,-0.4043 0.79648,-1.46648 1.42131,-2.94855 1.93164,-4.23633 0.21321,-0.53802 0.4231,-1.09618 0.64453,-1.70312 2.15848,-5.67278 3.93541,-12.05567 5.08789,-19.11719 1.25991,-7.79278 1.54847,-15.23007 0.47071,-22.28515 -1.57509,-9.70023 -5.68635,-15.2914 -6.7793,-15.99024 -0.0764,-0.0488 -0.13634,-0.0559 -0.1875,-0.0527 -0.0526,-0.0307 -0.10298,-0.0625 -0.18359,-0.0859 -0.39999,-0.11646 -1.42924,-0.19774 -3.16016,0.0469 -1.23652,0.17475 -2.75764,0.50408 -4.5625,1.03711 -3.55207,1.04904 -7.23659,2.59438 -10.64844,4.27149 -0.006,0.003 -0.22991,0.11208 -0.23633,0.11523 -3.58521,1.75867 -7.64843,3.72436 -11.60351,6.45899 -3.22034,2.22661 -5.65588,4.54531 -6.89844,6.41406 -0.51961,-0.30683 -1.00626,-0.60058 -1.66211,-0.95898 -0.98314,-0.53727 -2.12043,-1.13171 -3.40234,-1.76758 -5.16678,-2.5629 -12.64606,-5.79555 -21.79102,-8.79297 -12.54323,-4.11126 -32.15551,-9.06925 -54.70898,-8.83399 -4.53944,0.0474 -9.20315,0.32064 -13.94727,0.8379 0.27545,-1.22236 0.42659,-2.78796 0.30664,-4.5879 -0.15267,-2.29103 -0.66353,-4.60346 -1.28515,-6.86718 -0.009,-0.0317 -0.0153,-0.0635 -0.0215,-0.0957 -0.006,-0.0323 -0.0148,-0.0646 -0.0254,-0.0957 -1.36574,-4.02258 -3.02387,-8.0958 -5.32226,-11.55859 -1.37016,-2.06431 -2.79757,-3.64781 -4.23828,-4.8418 -2.53367,-2.09976 -4.75716,-2.67545 -5.28711,-2.66992 z m 0.30273,1.05859 c 0.75163,0.54357 2.09094,1.50766 3.48438,3.14649 1.07047,1.25899 2.11688,2.8295 3.10937,4.83398 1.65197,3.33642 2.79718,7.12633 3.77539,11.05859 0.28654,2.41156 0.50494,4.25179 0.58594,6.29883 0.0894,2.26039 -0.0968,3.94697 -0.041,4.97266 -3.50737,0.63943 -6.97895,1.55633 -10.52734,2.77539 0.52223,-2.39968 0.18633,-9.46193 -0.10352,-16.68555 -0.30016,-7.48069 -0.10871,-14.80461 -0.27929,-16.375 -10e-4,-0.01 -0.003,-0.0159 -0.004,-0.0254 z m -1.03125,0.20313 c -0.73602,2.22994 -1.63521,8.43304 -1.79687,16.22656 -0.17162,8.27323 0.20871,16.52522 1.03906,17.4375 -0.6994,0.26165 -1.40147,0.53167 -2.10938,0.81641 -4.86592,1.9572 -9.80236,4.41756 -15.05078,7.26953 0.0109,-0.25116 0.0138,-0.41374 0.0332,-0.74024 0.0376,-0.63306 0.093,-1.39965 0.17969,-2.29883 0.15695,-1.62724 0.41563,-3.6931 0.82617,-6.06445 0.38813,-2.24183 0.90536,-4.71941 1.58594,-7.30078 1.4574,-5.52779 3.44456,-10.72661 5.98047,-15.07617 1.52667,-2.61852 3.09018,-4.65135 4.60547,-6.25586 2.15237,-2.2791 3.89545,-3.40568 4.70703,-4.01367 z m 149.11328,31.15039 c 0.23667,1.13154 3.5599,7.27824 4.28516,15.9707 0.60861,6.72243 0.003,13.74391 -1.50977,21.18164 -1.41983,6.74871 -3.33121,12.75149 -5.51953,18.07031 -0.0577,0.12666 -0.10149,0.21992 -0.1543,0.33594 -0.66167,-1.75165 -1.43966,-3.47786 -2.3457,-5.17969 -2.0743,-3.8962 -4.72856,-7.57663 -7.85742,-11.15429 -2.3264,-2.66011 -4.87094,-5.20814 -7.5625,-7.71094 2.9748,-3.29773 7.95775,-11.12374 10.97851,-15.52734 3.501,-5.10368 8.34719,-12.89322 9.37305,-15.08985 0.19132,-0.40966 0.26087,-0.68376 0.3125,-0.89648 z m -0.36914,0.041 c -0.15463,0.1043 -0.32936,0.22952 -0.53711,0.42188 -1.77889,1.64715 -7.71762,8.63806 -11.50976,13.5293 -3.16864,4.08701 -8.83909,10.91189 -11.22266,14.82617 -2.80177,-2.48424 -5.74578,-4.95548 -8.75391,-7.45899 1.36642,-1.37804 3.13227,-3.63944 5.52539,-6.07617 3.03155,-3.08677 6.46072,-5.96042 9.68164,-7.96875 0.0722,-0.045 0.14335,-0.089 0.21485,-0.13281 3.12495,-1.91495 6.60234,-3.67438 9.91797,-5.00586 1.69002,-0.67868 3.10553,-1.15339 4.25195,-1.49024 1.20643,-0.35447 1.93213,-0.51778 2.43164,-0.64453 z m -118.12891,0.62305 c 22.05136,-0.2532 41.2849,4.59968 53.63477,8.69336 8.97966,2.97653 16.28834,6.20685 21.26953,8.76758 1.23418,0.63446 2.31717,1.22327 3.24219,1.7539 0.92574,0.53105 1.68773,1.00064 2.27344,1.39063 0.29269,0.19489 0.53756,0.36766 0.73437,0.51562 0.19371,0.14563 0.3282,0.25745 0.41016,0.33594 -0.014,-0.0161 -0.01,-0.006 -0.0312,-0.0352 -0.0309,-0.0424 -0.0818,-0.11655 -0.13086,-0.2207 -0.002,-0.005 -0.005,-0.0143 -0.008,-0.0195 0.17696,0.21689 0.33439,0.40573 0.39648,0.52734 0.0201,6.3e-4 0.0609,0.0147 0.084,0.0176 l -0.0137,0.22657 c 7.70285,6.70618 14.63095,12.79208 20.16211,19.47851 2.86637,3.46506 5.20683,6.92269 6.9961,10.47852 1.90675,3.7893 3.1456,7.60988 3.74804,11.55468 0.39594,2.5765 0.95736,5.45753 1.61524,8.43555 0.70133,3.17474 1.51803,6.48349 2.38476,9.73633 2.0011,7.51009 4.22792,14.59041 6.25782,20.24414 0.0885,0.24637 0.17784,0.48922 0.26562,0.73047 1.09562,3.01111 2.19035,5.75021 3.25,8.1543 1.25362,2.84415 2.43168,5.16527 3.50586,6.9746 0.59413,1.00075 1.15177,1.83539 1.66992,2.51954 0.57511,0.75934 1.09735,1.32665 1.57031,1.73437 0.26275,0.2265 0.50994,0.40325 0.74024,0.53516 0.1182,0.0677 0.23092,0.12136 0.33984,0.16601 -0.57711,0.0452 -1.22892,0.0703 -1.98047,0.0586 -0.49422,-0.008 -1.0145,-0.0447 -1.55859,-0.11328 -1.4074,-0.17741 -2.82725,-0.55512 -4.39453,-1.13477 -1.2408,-0.4589 -2.68702,-1.22455 -4.42383,-2.39844 -1.88173,-1.27184 -3.91232,-2.93747 -4.83203,-3.26562 -0.25701,-0.16686 -0.50682,-0.2989 -0.70898,-0.41407 -0.32534,-0.18532 -0.70851,-0.24812 -0.85352,-0.29492 -0.0882,0.12106 -0.36719,0.39719 -0.54102,0.71094 -0.29318,0.52917 -0.78542,1.08 -0.87695,2.11719 -0.0736,0.83386 0.16319,2.41349 0.35156,4.3789 0.21257,2.21789 0.33022,4.48079 0.31055,7.25196 -0.0259,3.65451 -0.31155,7.69695 -0.49219,9.54687 -0.15801,1.61819 -0.22702,2.72814 -0.27539,3.65625 0.0213,-0.7863 0.0163,-1.66971 -0.11914,-2.625 -0.0977,-0.68918 -0.24261,-1.41636 -0.4414,-2.1582 -0.44599,-1.66418 -1.10013,-3.17309 -1.88477,-4.46289 -0.5927,-0.97428 -1.27327,-1.88234 -1.97656,-2.73633 -0.1702,-0.715 -0.42329,-1.31782 -0.79102,-1.75 -0.59293,-0.69685 -1.74597,-0.56736 -2.08398,-0.66016 -0.24895,0.26071 -1.28312,0.71202 -1.53516,1.4961 -0.59676,1.85647 0.96398,7.63847 0.48438,11.45703 -0.58365,4.64692 -1.82918,7.46925 -2.97266,10.39453 -0.11438,0.29261 -0.18636,0.53557 -0.26953,0.79297 -0.58866,-1.01255 -2.95722,-2.70893 -5.66016,-3.85547 -0.99477,-0.42196 -1.85768,-0.71331 -2.61133,-0.97266 -1.77358,-0.61032 -3.48471,-1.40206 -4.91992,-1.17773 -0.2797,0.0437 -0.54897,0.14197 -0.80469,0.26953 -3.90977,0.89881 -21.91647,11.2592 -44.6875,14.90234 -17.7511,2.84001 -34.70174,1.95254 -49.18164,-0.79882 -14.88745,-2.82881 -30.88881,-8.19523 -46.13476,-17.07618 -19.90882,-11.59712 -29.23958,-23.47214 -34.5918,-28.60156 -1.42563,-1.36628 -2.42114,-1.76972 -2.90039,-2.13672 0.014,0.0468 0.0359,0.16457 0.0488,0.22071 -0.18405,0.20423 -0.85731,1.32184 -1.25586,4.91015 -0.18404,1.65702 -0.18926,3.23714 0.008,4.48633 0.0577,0.36565 0.1297,0.68658 0.21289,0.95703 0.0541,0.17598 0.12197,0.33812 0.19141,0.49805 -0.21451,-0.31216 -0.43032,-0.64623 -0.64453,-1.01953 -0.64166,-1.11818 -1.17238,-2.33724 -1.71289,-3.72266 -0.006,-0.0162 -0.0132,-0.0325 -0.0195,-0.0488 -0.93321,-2.40642 -1.40251,-4.49406 -2.31055,-8.26172 l 0.0332,0.12891 c -0.40475,-2.56847 -0.55788,-5.05714 -0.74414,-7.54687 -0.2376,-3.17602 -0.51514,-5.70934 -1.13086,-6.71485 -0.24275,-0.39642 -0.59383,-0.5848 -0.91992,-0.71094 -0.0158,-0.0191 -0.0477,-0.0539 -0.0566,-0.0684 -0.12697,-0.0271 -0.47449,-0.22873 -0.77149,-0.15821 -0.64922,0.15416 -1.63045,1.12083 -2.5332,2.43555 -0.61534,0.89615 -1.49741,2.5544 -2.16211,4.61523 -0.96342,2.987 -1.15141,6.08345 -0.92187,8.10938 -0.0674,-0.18504 -0.12714,-0.32003 -0.19727,-0.52149 -0.3807,-1.09361 -0.75033,-2.34928 -0.97461,-3.84765 -0.18179,-1.21454 -0.25997,-2.5332 -0.1875,-3.97266 0.0433,-0.85952 0.17915,-1.89866 0.42774,-3.09375 0.47616,-2.28916 1.2389,-4.56104 2.0957,-6.89062 0.91708,-2.49349 1.69163,-4.45678 1.85742,-5.58789 0.0173,-0.0204 0.0518,-0.0705 0.0664,-0.084 -0.014,-0.0316 -0.035,-0.12712 -0.0488,-0.17969 0.0139,-0.24884 -6e-4,-0.46095 -0.0781,-0.59375 -0.039,-0.0668 -0.10154,-0.11604 -0.17188,-0.1582 -0.0688,-0.13513 -0.15188,-0.25856 -0.26758,-0.34375 -0.70667,-0.52035 -2.65256,-0.32384 -4.08984,-0.48047 -1.19316,-0.13002 -3.16479,-0.48106 -4.28516,-0.55273 1.1891,-0.61205 2.85288,-1.43517 5.04883,-2.76563 1.42424,-0.8629 4.96855,-3.08871 7.68945,-5.05078 1.8662,-1.34573 4.02254,-3.03335 5.99024,-5.07031 1.71775,-1.77822 3.40104,-3.92945 4.76953,-6.61133 2.09661,-4.12034 3.87029,-8.13677 6.08008,-12.8457 1.99917,-4.26012 4.22447,-8.78416 6.92383,-13.26563 2.60997,-4.33311 5.71038,-8.71007 9.62109,-12.9375 3.82733,-4.1373 8.44497,-8.14983 14.18164,-11.87695 6.11034,-3.48749 11.62744,-6.3894 17.04101,-8.64844 5.70676,-2.38137 11.05623,-3.94246 16.52149,-4.76367 5.33901,-0.67446 10.57724,-1.00407 15.66601,-1.0625 z m 81.56446,21.45703 c 0.0296,0.0342 0.0643,0.0753 0.0664,0.0742 0.003,-0.002 -0.0183,-0.0293 -0.0566,-0.0664 -0.002,-0.002 -0.008,-0.006 -0.01,-0.008 z m -126.61719,3.70703 c -1.65963,-0.0254 -3.33004,0.13145 -4.99805,0.46485 -0.32151,0.0643 -0.64629,0.13619 -0.97461,0.21484 -4.25236,1.02826 -8.45401,3.19423 -12.17773,6.37109 -3.60802,3.07815 -6.48252,6.86298 -8.42383,10.86914 -2.29714,4.74049 -3.05483,9.27049 -2.88672,13.05079 0.0564,1.26839 0.21546,2.41256 0.42774,3.41992 0.9556,4.53478 3.47232,7.33196 4.58984,8.64453 -0.72948,-1.80638 -1.42327,-4.92485 -1.4043,-8.99414 0.004,-0.8917 0.0525,-1.87678 0.1836,-2.94922 0.3896,-3.18713 1.47711,-6.86357 3.75781,-10.67383 1.93387,-3.23083 4.53676,-6.22391 7.62891,-8.65234 3.18923,-2.50468 6.56612,-4.15192 9.82617,-5.02344 0.24419,-0.0639 0.49445,-0.12542 0.74219,-0.18164 1.70733,-0.38747 3.38606,-0.57902 5.04492,-0.56641 1.81181,0.0138 3.59406,0.272 5.35937,0.7793 3.58713,1.03084 6.92225,3.04521 9.93555,5.71094 3.50187,3.09794 6.2367,6.78026 8.13672,9.91211 0.48632,0.80162 0.91751,1.56718 1.29492,2.27929 2.21429,4.17805 3.41062,7.76762 3.91406,9.33399 -0.32538,-1.63119 -1.15235,-5.29404 -2.91406,-9.79297 -0.29927,-0.76426 -0.63731,-1.59638 -1.01953,-2.47852 -1.47649,-3.40757 -3.68349,-7.71639 -6.92188,-11.64257 -2.77511,-3.36452 -6.28802,-6.41716 -10.61914,-8.27344 -2.15151,-0.92212 -4.44208,-1.52123 -6.84765,-1.73633 -0.55033,-0.0492 -1.10109,-0.0774 -1.6543,-0.0859 z m -0.73633,8.90235 c -0.29026,0.006 -0.58057,0.0208 -0.87109,0.0449 -1.15588,0.0519 -2.2347,0.19934 -3.23828,0.41992 -0.75449,0.16583 -1.49278,0.37926 -2.21289,0.63867 -1.67513,0.60344 -3.21818,1.44472 -4.6211,2.47852 -2.8457,2.09696 -4.96973,4.87422 -6.52929,7.77343 -1.82267,3.38832 -2.84076,6.8677 -3.45703,9.63086 -0.0722,0.32372 -0.13885,0.63825 -0.20118,0.94336 -0.82127,4.02011 -0.87478,7.26772 -0.86132,8.80664 0.15508,-1.52909 0.5618,-4.7436 1.7539,-8.57617 0.0905,-0.29104 0.18838,-0.59206 0.29297,-0.89843 0.90092,-2.63914 2.32839,-5.78782 4.41406,-8.70118 1.78878,-2.49864 3.94208,-4.65477 6.47071,-6.20703 1.24014,-0.7613 2.54339,-1.36106 3.91601,-1.79883 0.59155,-0.18866 1.19548,-0.34659 1.81055,-0.47461 0.82203,-0.17109 1.71081,-0.29827 2.67383,-0.35742 a 0.00345708,0.149304 86.966341 0 0 0.0898,-0.008 c 1.78472,-0.20933 3.60402,-0.0894 5.41992,0.43555 1.79239,0.51813 3.4433,1.39354 4.87891,2.52539 1.722,1.35764 2.94536,2.93111 3.76172,4.36328 0.15166,0.26607 0.28729,0.52332 0.4082,0.76953 1.05084,2.13988 1.42258,3.98751 1.54688,4.99805 0.0717,-0.97223 0.17576,-2.96687 -0.55469,-5.38477 -0.0848,-0.28078 -0.18253,-0.57792 -0.29492,-0.88867 -0.5999,-1.6587 -1.61042,-3.64253 -3.30274,-5.51172 -1.41186,-1.55942 -3.20877,-2.93255 -5.35156,-3.85352 -1.8908,-0.81265 -3.90959,-1.21063 -5.94141,-1.16796 z m 99.82813,6.89843 c -1.39006,0.0461 -2.77064,0.19351 -4.13281,0.43555 -5.49212,0.97589 -10.39572,3.43075 -14.55274,6.46484 -4.85984,3.54707 -8.56965,7.77966 -11.21094,11.28321 -0.68057,0.90274 -1.29518,1.76293 -1.8457,2.55859 -3.25714,4.70754 -5.11585,8.72806 -5.91992,10.61328 1.00372,-1.77638 3.24992,-5.60247 6.9414,-9.8164 0.6245,-0.71289 1.32615,-1.4686 2.10157,-2.24805 3.04037,-3.0562 7.16597,-6.42274 12.07812,-8.94141 4.21162,-2.15947 8.65575,-3.51749 13.15821,-3.75586 2.21884,-0.11747 4.39664,0.0401 6.53906,0.46485 1.96113,0.38878 3.87822,0.99868 5.76562,1.8164 0.27379,0.11862 0.55099,0.2419 0.83008,0.37305 a 0.27073785,8.9861816e-4 23.3463 0 0 0.11328,0.0508 c 3.52474,1.52282 7.17719,3.97125 10.52735,7.37891 3.247,3.30273 5.85732,7.15433 7.61523,11.13476 2.07367,4.69541 2.71968,8.98268 2.57812,12.60743 -0.0476,1.21989 -0.18037,2.32714 -0.35546,3.32617 -0.1905,1.08694 -0.42552,2.12609 -0.70899,3.13086 -0.87016,3.08434 -2.1242,5.46984 -3.05078,6.79101 1.20551,-0.90618 3.60891,-2.61754 5.61133,-5.56836 0.66235,-0.97606 1.26548,-2.06613 1.76172,-3.26953 0.45631,-1.10658 0.8689,-2.38129 1.17578,-3.82031 0.91783,-4.30398 0.77777,-9.60716 -1.19531,-15.43555 -1.66335,-4.91343 -4.47941,-9.71112 -8.19922,-13.8164 -3.82819,-4.2249 -8.31266,-7.3879 -12.91407,-9.2461 -0.32574,-0.14374 -0.65044,-0.28043 -0.97265,-0.41015 -2.43966,-0.98224 -4.96425,-1.63178 -7.54102,-1.92969 -1.40766,-0.16275 -2.8072,-0.21796 -4.19726,-0.17188 z m -99.98047,1.41211 c -2.61717,0.0211 -5.12961,0.89851 -7.29883,2.25196 -2.23937,1.39722 -4.12892,3.3048 -5.51953,5.39843 -1.51576,2.28206 -2.43201,4.76718 -2.68164,7.1836 -0.23044,1.35518 -0.35177,2.67183 -0.37695,3.90234 -0.014,0.68518 0.002,1.38204 0.0508,2.08203 0.14882,2.14527 0.59302,4.2614 1.32422,6.20703 0.71346,1.89845 1.65704,3.48029 2.72265,4.78907 -0.43236,-0.0665 -0.85421,-0.14522 -1.26758,-0.24024 -1.08565,-0.24955 -2.08962,-0.59782 -3.02343,-1.05859 -0.0473,-0.0233 -0.097,-0.0413 -0.14844,-0.0527 -0.0514,-0.0115 -0.10138,-0.0256 -0.15039,-0.0449 -2.4963,-0.98451 -4.80814,-2.08935 -7.25196,-2.75 -3.20884,-0.86746 -8.22747,-0.96257 -9.88281,-1.16601 1.23479,1.03794 4.68991,4.80212 7.76563,6.44922 2.35077,1.25887 5.15814,1.99116 8.11133,2.39843 l -0.30079,-0.0976 c 1.40949,0.45803 2.82543,0.70662 4.22266,0.82031 1.03955,0.0846 2.07227,0.0948 3.08984,0.0605 0.33242,-0.0112 0.6711,-0.029 1.01563,-0.0527 2.58257,-0.17817 5.02762,-0.65398 7.79492,-1.125 2.65328,-0.45161 4.99469,-0.77554 7.25195,-0.68945 1.27681,0.0487 2.41234,0.2267 3.45313,0.52148 1.45085,0.41092 2.56199,1.00874 3.36133,1.54102 -0.68972,-0.65085 -1.69358,-1.47818 -3.09766,-2.20313 -0.72829,-0.37602 -1.53179,-0.70371 -2.42187,-0.98047 0.17708,-0.21008 0.16589,-0.36567 -0.3125,-0.20312 1.02688,-0.92455 3.13661,-2.84577 4.71875,-6.29297 0.42127,-0.91789 0.79751,-1.92927 1.0957,-3.02539 0.3731,-1.37147 0.68942,-3.05406 0.78906,-4.98047 0.1275,-2.46497 -0.10382,-5.34966 -1.04492,-8.30273 -0.81016,-2.54219 -2.15083,-5.13638 -4.20898,-7.40235 -0.0375,-0.0413 -0.0783,-0.0815 -0.1211,-0.11718 -0.0428,-0.0357 -0.0859,-0.07 -0.1289,-0.10547 -1.11495,-0.91896 -2.33163,-1.61278 -3.62891,-2.07032 -1.27284,-0.44892 -2.58541,-0.65515 -3.90039,-0.64453 z m 88.4707,12.47071 c -2.04795,0.0364 -3.75668,0.48432 -5.12304,1.13086 -0.67468,0.31924 -1.22115,0.66599 -1.65235,0.98242 -1.25137,0.91829 -1.96663,1.95508 -2.29883,2.44531 0.44518,-0.43433 1.34928,-1.20313 2.66407,-1.84375 0.44913,-0.21884 0.99794,-0.44467 1.65039,-0.62891 1.31684,-0.37185 2.87669,-0.52328 4.66992,-0.29492 1.5775,0.20089 3.14769,0.67192 4.61523,1.33203 1.59175,0.71598 2.88259,1.57137 3.86328,2.34766 0.0429,0.034 0.0851,0.0676 0.12696,0.10156 1.57249,1.14733 2.77124,2.38404 3.71289,3.6211 1.0289,1.35167 1.81507,2.78857 2.42383,4.24804 1.02709,2.46243 1.66702,5.28124 1.95117,8.38477 0.0459,0.50088 0.0849,1.02237 0.11523,1.56836 0.19164,3.44389 -0.0176,7.11881 -0.67187,11.01758 -0.65037,3.87566 -1.58995,7.07081 -2.29492,9.13476 -2.93845,-1.11557 -6.38414,-1.85159 -9.75196,-2.35156 -1.18521,-0.17595 -2.36595,-0.31645 -3.5332,-0.44336 1.00519,-0.66278 2.13578,-1.53943 3.28516,-2.81445 1.35853,-1.50708 2.59917,-3.40129 3.56445,-5.69532 1.16666,-2.77262 1.81456,-5.86679 1.86523,-8.93554 0.0222,-1.34488 -0.0627,-2.80312 -0.28906,-4.31446 -0.17537,-2.46357 -1.0945,-4.87371 -2.67188,-6.96875 -1.44664,-1.92141 -3.40893,-3.52127 -5.66796,-4.56054 -1.64074,-0.75483 -3.4433,-1.2105 -5.27149,-1.25977 -0.60939,-0.0164 -1.22199,0.0121 -1.83203,0.0899 -1.23044,0.1568 -2.43442,0.50942 -3.57226,1.07226 -1.16023,0.5739 -2.22112,1.35211 -3.16016,2.31836 -0.01,0.0103 -0.0209,0.0196 -0.0312,0.0293 -0.0105,0.01 -0.0197,0.0207 -0.0293,0.0312 -1.98475,2.19316 -3.43596,4.70777 -4.42578,7.20507 -1.15352,2.91034 -1.67518,5.76234 -1.79883,8.25977 -0.0964,1.94707 0.0482,3.65341 0.28906,5.06445 0.19197,1.12449 0.47492,2.16718 0.81836,3.1211 1.28892,3.57997 3.31885,5.61915 4.35157,6.62695 -1.40641,0.0101 -2.78978,0.0302 -3.97657,0.0742 -1.63997,0.0609 -3.00047,0.14373 -4.04882,0.22266 -1.46239,0.11009 -2.37317,0.21648 -2.83008,0.26562 0.51136,0.11484 1.286,0.27621 2.80078,0.50586 1.07711,0.1633 2.35151,0.33479 4.00976,0.54492 2.90932,0.36868 6.47552,0.79162 10.30079,1.31836 0.43508,0.0599 0.86943,0.12012 1.30273,0.18164 2.91298,0.41357 6.42811,1.00696 9.82227,1.82617 3.43243,0.82846 6.64577,1.86501 9.10547,3.14454 0.0422,0.022 0.0858,0.0414 0.13085,0.0566 0.0451,0.0152 0.0902,0.0283 0.13477,0.0449 2.76895,1.02836 5.83897,2.09376 9.01367,2.88867 3.57637,0.89548 6.94392,1.36056 10.03125,1.24609 0.89438,-0.0332 1.73978,-0.11487 2.53711,-0.24023 0.82153,-0.12917 1.63482,-0.315 2.42774,-0.56055 1.64545,-0.50957 3.14143,-1.25185 4.45507,-2.19531 1.46698,-1.05358 2.59727,-2.27995 3.47657,-3.54688 1.23602,-1.78091 1.90369,-3.54649 2.32812,-4.6914 -0.73525,1.03115 -1.94063,2.34578 -3.58789,3.42773 -1.15378,0.75783 -2.40839,1.32978 -3.78906,1.72852 -1.22987,0.35518 -2.50373,0.55752 -3.83789,0.66601 -0.64655,0.0526 -1.30072,0.0823 -1.96485,0.0977 -0.64499,0.0149 -1.33203,0.0135 -2.07031,-0.0117 -2.58899,-0.0885 -5.42535,-0.45477 -8.79883,-1.16015 -3.00405,-0.62815 -5.86554,-1.40135 -8.74218,-2.17188 -0.0483,-0.0191 -0.0999,-0.0358 -0.14844,-0.0547 1.04693,-1.9254 2.54114,-4.913 3.8164,-8.78515 1.26028,-3.82664 2.04444,-7.76538 2.15625,-11.48438 0.018,-0.59759 0.0182,-1.17465 0.002,-1.73047 -0.1012,-3.46898 -0.79795,-6.69296 -2.09375,-9.57812 -0.76378,-1.70058 -1.77089,-3.35934 -3.06836,-4.90821 -1.18777,-1.41791 -2.66603,-2.79889 -4.50586,-4.0371 -0.0271,-0.0169 -0.0802,-0.0521 -0.13477,-0.0879 -1.2423,-0.81476 -2.85365,-1.6335 -4.75195,-2.21875 -1.75396,-0.54074 -3.59436,-0.83076 -5.39258,-0.79882 z m -64.48633,12.32226 c -1.10731,-0.006 -2.19591,0.10456 -3.22851,0.33985 -1.09721,0.25 -2.14644,0.64327 -3.09375,1.20312 -1.00398,0.59334 -1.87538,1.36267 -2.56055,2.30274 -0.0752,0.10317 -0.1447,0.20873 -0.20312,0.32226 -0.57719,1.12165 -0.80304,2.21419 -0.81836,3.16797 -0.0118,0.73494 0.0992,1.38014 0.26367,1.9082 0.11227,0.36053 0.26065,0.69428 0.43164,1 1.06241,1.89956 2.73611,2.5149 3.77344,2.82617 0.0558,0.6062 0.13347,1.23006 0.25976,1.875 0.1681,0.85845 0.40482,1.73577 0.72266,2.59571 0.18519,0.50104 0.40903,1.03619 0.67969,1.57812 0.55946,1.12023 1.36982,2.37454 2.51562,3.36524 0.11962,0.10343 0.24322,0.20487 0.38477,0.27539 0.14154,0.0705 0.2989,0.10874 0.45703,0.10742 0.15813,-0.001 0.31468,-0.0414 0.46094,-0.10156 0.14625,-0.0601 0.28322,-0.13925 0.41992,-0.21875 2.25346,-1.31066 4.86807,-3.12067 7.2207,-5.48243 2.11894,-2.12715 4.04385,-4.72134 5.25977,-7.79687 0.0871,-0.22034 0.15895,-0.45059 0.16211,-0.6875 0.003,-0.23691 -0.052,-0.4713 -0.10938,-0.70117 -0.26541,-1.06287 -0.77225,-2.02572 -1.41602,-2.85938 -0.64467,-0.83483 -1.43542,-1.55475 -2.29296,-2.16211 -1.74009,-1.2324 -3.85023,-2.06859 -5.95118,-2.50195 -1.10494,-0.22791 -2.23057,-0.34936 -3.33789,-0.35547 z m 0.0195,5.18164 c 0.74486,-0.0132 1.53899,0.0482 2.35352,0.18946 1.55006,0.26891 3.0242,0.80873 4.16992,1.5332 0.55615,0.35167 1.00418,0.7267 1.3418,1.10547 0.17285,0.19392 0.31591,0.38703 0.42969,0.57617 -0.79079,2.114 -2.01186,4.07679 -3.48828,5.87109 -1.59954,1.94392 -3.4343,3.60925 -5.16602,4.97071 -0.48123,-0.45142 -0.91443,-0.98283 -1.29492,-1.54297 -0.28306,-0.41671 -0.53243,-0.84355 -0.75,-1.25586 -0.37315,-0.70715 -0.70131,-1.44746 -0.98633,-2.19336 -0.53458,-1.399 -0.89922,-2.77282 -1.12891,-3.97461 -0.23816,-1.24615 -0.32408,-2.26804 -0.34179,-3.04688 0.0621,-0.18146 0.13504,-0.37002 0.23828,-0.57226 0.23938,-0.28357 0.54888,-0.54701 0.94726,-0.78125 0.42953,-0.25255 0.96445,-0.47206 1.61328,-0.62891 0.62085,-0.15008 1.31765,-0.23682 2.0625,-0.25 z m -3.9375,18.18555 c -0.25044,0.11174 -1.03399,0.10977 -1.53124,0.32812 -0.0213,0.009 -0.0427,0.0206 -0.0645,0.0312 -0.24479,0.12058 -0.50338,0.31683 -0.875,0.60938 -0.55304,0.43537 -1.23189,0.97647 -2.29492,1.66406 -0.93815,0.60681 -2.00923,1.21855 -3.21094,1.81836 -1.24318,0.62051 -2.48549,1.15725 -3.60156,1.58789 -0.083,0.032 -0.16517,0.0639 -0.24805,0.0957 -2.89949,1.11164 -5.77033,2.0896 -8.14648,2.7129 -0.40029,0.105 -0.79102,0.20277 -1.16992,0.28906 -0.8519,0.194 -1.67718,0.3654 -2.49414,0.50195 -1.517,0.25356 -2.48285,0.29167 -3.03711,0.27149 0.50598,0.21992 1.44474,0.57408 3.05664,0.76757 0.85366,0.10248 1.76557,0.14317 2.67383,0.12696 0.40878,-0.007 0.83109,-0.0212 1.26562,-0.0449 1.91345,-0.10428 4.11004,-0.38816 6.40234,-0.92968 -0.27694,0.79096 -0.53533,1.82747 -0.63476,3.16211 -0.12808,1.71913 0.0143,3.87867 0.77734,6.14062 0.61128,1.81206 1.6472,3.73432 3.2793,5.29102 0.74927,0.71466 1.62658,1.35271 2.63867,1.85351 0.96771,0.47884 2.04998,0.82766 3.24219,0.99805 2.51516,0.43271 5.03029,0.10387 7.33789,-0.8457 2.25426,-0.92763 4.26589,-2.42926 5.84375,-4.29688 1.586,-1.87725 2.72868,-4.11797 3.24609,-6.51172 0.23969,-1.10888 0.33443,-2.23756 0.29102,-3.36523 0.1064,0.0385 0.22753,0.0877 0.33203,0.125 0.11353,0.0405 0.22634,0.0798 0.33984,0.11914 4.00419,1.38859 7.93969,2.04174 11.2168,2.25195 0.54753,0.0351 1.07884,0.0578 1.59375,0.0703 1.14434,0.0279 2.2929,-0.0213 3.36719,-0.15429 2.02845,-0.25118 3.20401,-0.72596 3.83398,-1.01953 -0.70027,0.0339 -1.90963,-0.005 -3.80469,-0.33789 -1.01924,-0.17928 -2.05365,-0.40924 -3.11523,-0.66797 -0.47251,-0.11516 -0.95803,-0.24428 -1.45703,-0.38477 -2.9633,-0.83426 -6.5356,-2.14774 -10.1543,-3.65429 -0.1034,-0.043 -0.20699,-0.0855 -0.31054,-0.12891 -1.39272,-0.58373 -2.93997,-1.3118 -4.49024,-2.15235 -1.49811,-0.81226 -2.83533,-1.64109 -4.00586,-2.46484 -1.32386,-0.93166 -2.17735,-1.67303 -2.87695,-2.27539 -0.47165,-0.40609 -0.81012,-0.6901 -1.12891,-0.87109 -0.0284,-0.0161 -0.0561,-0.0306 -0.084,-0.0449 -0.57893,-0.29703 -1.42856,-0.36692 -1.84766,-0.49024 -0.0611,-0.0678 -0.12211,-0.13474 -0.1543,-0.17578 z m 54.14844,4.06445 c 0.19191,0.12811 0.39999,0.20358 0.61524,0.25977 -0.16682,5.7e-4 -0.30043,0.007 -0.46485,0.008 -0.0475,-0.077 -0.10168,-0.18666 -0.15039,-0.26758 z m -53.61523,1.08789 c 0.7243,0.83828 1.68034,1.68776 2.87305,2.52539 1.38553,0.97307 2.98132,1.8608 4.66406,2.65625 0.11705,0.0553 0.22894,0.0965 0.3457,0.15039 0.3753,1.40686 0.42466,2.86283 0.12891,4.31055 -0.35184,1.72227 -1.16056,3.3985 -2.33594,4.84766 -1.16873,1.44095 -2.65768,2.60419 -4.31055,3.34179 -1.68814,0.75335 -3.51558,1.05137 -5.35547,0.80079 -0.0204,-0.003 -0.04,-0.008 -0.0605,-0.01 -0.83359,-0.0811 -1.5847,-0.28253 -2.25977,-0.57227 -0.70313,-0.30177 -1.33652,-0.7031 -1.9043,-1.17968 -1.24802,-1.04757 -2.16568,-2.44314 -2.79687,-3.89844 -0.78234,-1.80379 -1.09844,-3.62263 -1.19141,-5.10742 -0.10367,-1.65567 0.0584,-2.91903 0.13282,-3.66211 0.25433,-0.0741 0.50441,-0.12989 0.75976,-0.21094 0.0902,-0.0286 0.1813,-0.0584 0.27149,-0.0879 1.20935,-0.39549 2.58251,-0.88271 3.97656,-1.48633 1.33581,-0.5784 2.60216,-1.22559 3.70312,-1.93555 0.0604,-0.0389 0.111,-0.0781 0.16993,-0.11718 -0.32907,2.13986 -0.45224,4.7772 -0.56055,6.17968 -0.004,0.0476 -0.006,0.0965 -0.01,0.14454 -0.10029,1.36657 -0.12823,2.74714 -0.0645,4.13672 0.0548,1.19475 0.17371,2.26529 0.29492,2.95898 0.1085,0.62095 0.28081,1.11088 0.33985,1.33594 0.0407,-0.23089 0.17398,-0.72715 0.26171,-1.34571 0.13488,-0.95089 0.23817,-1.93973 0.37305,-2.89062 0.19645,-1.37656 0.41785,-2.60277 0.68945,-3.9375 l 0.0274,-0.13477 c 0.35327,-1.72417 1.38565,-4.67884 1.83789,-6.8125 z m 135.21875,39.34766 c 0.67068,1.12558 1.29645,2.21899 1.9414,3.59375 0.30554,0.65128 0.57237,1.27331 0.82422,1.89258 0.52488,1.2906 1.16884,2.8927 1.38086,3.59961 -0.003,0.0539 -0.007,0.14577 -0.01,0.19726 0.24793,-0.78913 0.90989,-2.64623 1.57617,-4.94726 0.11468,-0.39607 0.34883,-1.18604 0.52344,-1.76563 0.0476,0.009 0.0869,0.0248 0.14453,0.0274 1.48143,0.0651 10.58206,-3.13639 24.80273,-1.98047 7.44553,0.6052 16.12685,2.47969 24.60547,6.56445 7.16319,3.45103 13.96278,8.39638 19.12891,15.01172 4.83784,6.19497 8.16636,13.76391 9.00195,22.71875 0.006,0.0684 0.016,0.13733 0.0273,0.20508 2.40611,14.41371 -0.38545,28.46936 -5.71093,40.15429 -8.85363,19.42623 -23.32548,29.15089 -25.68164,31.65039 -1.50527,-0.17406 -2.98667,-0.38894 -4.38477,-0.66015 -1.51134,-0.29318 -2.89822,-0.6349 -4.0918,-1.01367 -1.18078,-0.37472 -2.08808,-0.75965 -2.71679,-1.11719 -3.11192,-1.77279 -5.44179,-3.81002 -7.08399,-6.07617 -1.5377,-2.12196 -2.51404,-4.50169 -2.94922,-7.16602 -0.22346,-1.37627 -0.35033,-2.72247 -0.33789,-4.02148 0.0122,-1.27533 0.15871,-2.49455 0.47071,-3.64453 0.30646,-1.12958 0.77904,-2.21608 1.47265,-3.24805 0.68707,-1.02223 1.61674,-2.03052 2.87891,-2.98633 0.36323,-0.28203 0.82635,-0.50365 1.45312,-0.65039 0.63748,-0.14924 1.4134,-0.21361 2.35547,-0.18555 1.93258,0.0576 4.13487,0.47253 6.73047,0.9375 2.48736,0.44559 5.2742,0.92264 7.99609,0.92969 1.37747,0.004 2.77881,-0.11059 4.16016,-0.42383 1.38831,-0.31481 2.75204,-0.82983 4.04102,-1.61718 4.4479,-2.72623 8.82788,-6.86353 11.93164,-11.78907 1.57555,-2.50035 2.83336,-5.21786 3.60547,-8.08008 0.78271,-2.90155 1.06321,-5.93727 0.68359,-9.02148 -0.38533,-3.13126 -1.46487,-6.22685 -3.00781,-9.13086 -1.57481,-2.96397 -3.65164,-5.76574 -6.04297,-8.2793 -2.45028,-2.57551 -5.24424,-4.86208 -8.22266,-6.74218 -3.06521,-1.93489 -6.3291,-3.44187 -9.65039,-4.41407 -3.49221,-1.02248 -7.29907,-1.32982 -11.08594,-1.16015 -3.95192,0.17706 -7.95715,0.87654 -11.74023,1.89258 -3.79128,1.01823 -7.5812,2.41391 -11.10742,4.10937 -3.37653,1.62348 -6.53468,3.53258 -9.1543,5.63281 -2.44828,1.96231 -4.61415,3.89819 -6.54492,5.89649 -1.8809,1.94669 -3.53243,3.94521 -5.02735,6.10156 -1.46116,2.10766 -2.75813,4.34481 -3.97851,6.81445 -1.19667,2.42167 -2.31197,5.05391 -3.44336,8.00586 -1.14684,2.9945 -2.1589,6.54062 -2.91797,10.41992 -0.75008,3.83334 -1.25838,8.01628 -1.39648,12.31836 -0.13681,4.26165 0.0884,8.66392 0.81445,12.96485 0.72134,4.27285 1.94306,8.4782 3.81641,12.34765 3.68374,7.61054 9.69,14.66777 16.83789,20.35352 0.81865,0.6512 1.65751,1.27944 2.50586,1.89453 -0.7028,0.78202 -1.83111,2.0706 -2.94922,3.91992 -0.73894,1.22217 -1.32867,2.46014 -1.73047,3.63672 -0.15339,0.44916 -0.30503,0.91547 -0.44531,1.40234 -0.53623,1.86108 -0.83333,3.80071 -0.56836,5.625 0.005,0.0369 0.0176,0.067 0.0234,0.10352 -0.64175,-0.0713 -1.27395,-0.16862 -1.88476,-0.31836 -1.56716,-0.38419 -3.02812,-1.02594 -4.37695,-1.84375 0.0187,-0.13394 0.0512,-0.27485 0.0586,-0.40234 0.0292,-0.50586 -0.0146,-1.0784 -0.0703,-1.70508 -0.12433,-1.3974 -0.26078,-2.81273 -0.0742,-4.52149 0.0469,-0.42963 0.11215,-0.84995 0.19726,-1.25781 0.22826,-1.0938 0.51659,-2.24371 0.95508,-3.53906 0.71312,-2.10662 1.57139,-3.82324 2.06055,-4.68945 -0.72469,0.67375 -2.14799,1.9969 -3.54492,3.91015 -0.84218,1.15346 -1.5367,2.33537 -2.03907,3.47266 -0.19177,0.43415 -0.38246,0.88651 -0.56445,1.35937 -0.50547,1.31335 -0.88233,2.67899 -1.01367,4.03321 -1.38624,-1.5137 -2.51987,-3.19682 -3.37891,-4.90625 -2.12056,-4.2198 -2.48259,-8.14445 -2.33984,-10.8086 0.0229,-0.42643 0.0581,-0.82131 0.0996,-1.18164 0.18647,-1.61985 0.52643,-3.05513 0.94531,-4.30859 0.83854,-2.50923 2.00569,-4.31058 2.80274,-5.28125 -0.9238,0.77228 -2.66857,2.2332 -4.0879,4.69726 -0.7154,1.24201 -1.35476,2.74981 -1.75585,4.53126 -0.089,0.39528 -0.17467,0.82995 -0.24805,1.30273 -0.0571,0.36772 -0.10689,0.7609 -0.14649,1.17383 -0.55442,0.11112 -1.19811,0.29352 -1.69531,0.37304 -0.43995,0.0704 -1.0285,0.0968 -1.54687,0.14844 0.0681,-3.32012 -0.43122,-6.43059 -1.11133,-9.20312 -0.99333,-4.04941 -2.6037,-8.23656 -3.71875,-11.16992 -0.89493,-2.35429 -1.50171,-3.94971 -2.14453,-5.78126 -0.5949,-1.69501 -1.09756,-3.20825 -1.52149,-4.68359 -0.55642,-1.93644 -0.9255,-3.63389 -1.14453,-5.21484 -0.32528,-2.34792 -0.27906,-4.22558 -0.10351,-5.52344 -0.45542,1.19921 -1.13298,3.03111 -1.4961,5.50977 -0.24527,1.67424 -0.33608,3.56787 -0.17969,5.73632 0.11841,1.64172 0.37321,3.36408 0.77149,5.20704 0.40769,1.88651 0.92989,3.8242 1.60547,6.15624 0.89088,3.07526 2.17315,7.18322 2.88867,10.87696 0.64296,3.31914 0.95731,6.80152 0.37305,10.35351 -0.0213,0.12965 -0.0268,0.26122 -0.0293,0.39258 -0.041,2.164 -0.40336,3.94413 -0.99609,5.41992 -0.57165,1.4233 -1.37498,2.60779 -2.38477,3.61719 -0.99662,0.99624 -2.2245,1.85346 -3.6875,2.5957 -1.44923,0.73527 -3.09925,1.34147 -4.92773,1.85938 -3.68185,1.04287 -7.80271,1.64725 -12.04493,2.28125 -3.48507,0.52085 -6.96771,1.05802 -10.12695,1.88086 -1.34855,-5.47342 -4.48927,-9.45951 -5.82617,-11.36914 0.81489,2.71954 1.41981,7.84159 0.63281,13.07031 -0.20223,1.3436 -0.48929,2.65492 -0.86523,3.91797 -0.45213,1.519 -1.09596,3.16245 -2.13477,4.66601 -0.67432,0.97601 -1.51989,1.90124 -2.5957,2.6836 -0.95251,0.69269 -2.13737,1.31098 -3.61719,1.73633 -0.11106,0.0319 -0.23654,0.0561 -0.35156,0.0859 -0.0272,-0.10289 -0.0437,-0.21827 -0.0762,-0.31445 -0.16209,-0.48007 -0.41712,-0.9943 -0.70313,-1.55469 -0.63775,-1.24957 -1.29199,-2.51142 -1.75781,-4.16601 -0.11712,-0.41601 -0.21552,-0.83209 -0.28906,-1.24219 -0.19724,-1.09981 -0.35796,-2.27332 -0.43555,-3.63867 -0.12619,-2.22046 0.0284,-4.13286 0.1582,-5.11914 -0.42024,0.89583 -1.24779,2.6544 -1.82812,4.95117 -0.34987,1.38467 -0.55106,2.74174 -0.5918,3.98438 -0.0155,0.47437 -0.0236,0.96408 -0.0156,1.4707 0.0306,1.93654 0.31156,3.8775 1.09765,5.54492 0.0989,0.20971 0.21607,0.3843 0.32617,0.57422 -0.19687,4.5e-4 -0.38201,0.009 -0.58593,0.004 -1.71597,-0.0457 -3.70508,-0.32331 -5.94922,-0.88867 -0.0175,-0.06 -0.0255,-0.13007 -0.0449,-0.1875 -0.16209,-0.48007 -0.41712,-0.99625 -0.70313,-1.55664 -0.63775,-1.24958 -1.29199,-2.50947 -1.75781,-4.16406 -0.11712,-0.41601 -0.21552,-0.83209 -0.28906,-1.24219 -0.19724,-1.09981 -0.35796,-2.27332 -0.43555,-3.63867 -0.12619,-2.22046 0.0284,-4.13286 0.1582,-5.11914 -0.42024,0.89583 -1.24779,2.6544 -1.82812,4.95117 -0.34987,1.38467 -0.55106,2.73979 -0.5918,3.98242 -0.0156,0.47437 -0.0236,0.96604 -0.0156,1.47266 0.0186,1.17946 0.15001,2.35272 0.4121,3.47266 -0.0996,-0.067 -0.20793,-0.12573 -0.30468,-0.19532 -1.23022,-0.88473 -2.28297,-2.0154 -3.15625,-3.39843 -0.86186,-1.36494 -1.54422,-2.96966 -2.03321,-4.78711 -0.48476,-1.80177 -0.76987,-3.77425 -0.86132,-5.85547 -0.18468,-4.20277 0.42345,-8.66699 1.5664,-12.77149 1.19029,-4.27449 2.90324,-7.96952 4.77539,-10.63281 3.0365,-4.08368 6.49012,-7.12875 9.98828,-9.375 4.18695,-2.68852 8.42553,-4.22485 12.15039,-5.08789 1.24819,-0.2892 2.44199,-0.50218 3.56641,-0.66016 0.128,0.0268 0.35993,0.0716 0.42383,0.0899 0.0862,-0.0386 0.37772,-0.14139 0.57812,-0.21289 0.72252,-0.0835 1.42275,-0.15289 2.07032,-0.19532 9.40286,-0.61609 17.05751,1.74206 20.09765,2.79493 -2.93123,-1.21012 -10.50969,-4.12909 -20.14453,-3.99805 -0.13981,0.002 -0.29574,0.0105 -0.43945,0.0137 -0.13724,-1.91718 -0.62237,-3.6943 -1.33985,-5.29297 -0.84365,-1.87982 -1.96076,-3.48812 -3.05078,-4.86718 -0.70491,-0.89185 -1.42582,-1.72186 -2.05859,-2.45704 -2.04813,-2.37958 -4.47279,-4.79909 -5.38867,-5.6875 0.78555,1.0055 2.97616,3.6698 4.53515,6.30274 0.48739,0.82313 0.95139,1.755 1.35743,2.75586 0.63059,1.55435 1.09944,3.21768 1.34179,4.93945 0.2171,1.54235 0.23919,3.05926 0.10352,4.60742 -0.63704,0.0735 -1.29064,0.16214 -1.96289,0.26953 -3.90557,0.62391 -8.49863,1.88691 -13.17774,4.41016 -3.91755,2.11258 -7.91689,5.12479 -11.54492,9.35547 -0.45436,0.52925 -0.89626,1.10743 -1.33203,1.70703 0.0167,-0.13375 -0.0255,-0.28497 -0.17773,-0.45508 -1.59223,-1.77963 -21.82158,-9.02882 -37.85938,-33.15039 -7.97713,-11.99796 -14.41022,-27.80201 -15.01367,-45.27344 1.55992,0.48678 3.08807,0.92771 4.36133,1.25977 2.21765,0.57836 3.91281,0.97648 4.91406,1.07812 0.44933,3.46053 1.78819,7.39758 4.47461,11.26758 2.8454,4.09902 6.90631,7.6457 11.73828,9.67188 2.4387,1.02261 4.98211,1.61822 7.55273,1.74609 2.80779,0.13967 5.5173,-0.28352 8.06641,-1.16992 3.6304,-1.25067 6.66868,-3.59804 8.94531,-6.28125 2.43435,-2.86908 4.16951,-6.31422 4.97461,-9.85742 0.0964,-0.42413 0.18037,-0.84921 0.25,-1.27735 0.1054,-0.64797 0.17276,-1.31029 0.21094,-1.97851 0.61502,0.25517 1.61509,0.47042 3.1582,0.53906 1.22914,0.0547 2.76528,0.0194 4.65039,-0.14648 2.90254,-0.25547 6.53829,-0.8138 10.76172,-1.73828 3.57152,-0.78179 7.4511,-1.80144 11.28125,-3.00977 3.59104,-1.13289 7.07493,-2.41214 10.08399,-3.75977 2.90289,-1.30116 6.24832,-2.83425 9.66211,-4.60351 3.65121,-1.89232 7.13993,-3.93162 10.22461,-6.14649 3.64729,-2.61883 6.37784,-5.22951 8.25781,-7.83203 1.21026,-1.67541 1.98454,-3.23575 2.45117,-4.63476 0.69928,-2.09653 0.681,-3.66495 0.47656,-4.46094 0.8449,0.0787 1.75764,0.11381 2.66992,0.32813 0.66585,0.15642 1.47252,0.4172 2.32422,0.76953 2.58726,1.07026 5.03494,2.99029 5.88282,2.86132 0.32316,-0.0491 0.56273,-0.47414 0.67578,-0.56835 10e-4,-0.003 0.008,-0.0107 0.01,-0.0137 0.34204,-0.23921 0.92216,-0.61605 1.53711,-1.29297 1.90494,-2.09686 3.90841,-5.98165 4.97461,-10.48437 0.50249,-2.12208 0.94642,-4.60658 1.09766,-6.875 z m -21.37696,14.6582 c 0.0155,0.0107 0.0294,0.0248 0.0449,0.0352 -0.37546,0.34592 -0.75139,1.64517 -1.86914,3.44336 -0.58917,0.94782 -1.39015,2.03388 -2.54493,3.24609 -1.80804,1.89798 -4.31219,3.92367 -7.78906,6.09961 -2.94472,1.8429 -6.2579,3.58777 -9.82226,5.28125 -3.34525,1.58938 -6.5693,2.97364 -9.50196,4.23828 -2.77074,1.19368 -6.02675,2.39246 -9.46093,3.52149 -3.65269,1.20086 -7.34124,2.26903 -10.74219,3.16797 -4.0249,1.06386 -7.41631,1.83169 -10.09766,2.39648 -1.72783,0.36394 -3.12022,0.63598 -4.20312,0.85937 -1.50561,0.3106 -2.42212,0.53702 -2.92969,0.79297 -0.16798,-1.34562 -0.48123,-2.68528 -0.98438,-3.97461 -0.67808,-1.73761 -1.60832,-3.1996 -2.67382,-4.4082 -1.49223,-1.69264 -3.09247,-2.7093 -4.15625,-3.3125 0.96195,0.80134 2.23638,2.10352 3.23046,3.96289 0.70169,1.31245 1.19127,2.76693 1.4375,4.35742 0.4244,2.74126 0.0605,5.44703 -0.61523,7.89844 -0.0968,0.35122 -0.20126,0.70131 -0.31445,1.04883 -0.94355,2.89679 -2.47849,5.73974 -4.49219,8.11719 -1.89208,2.23385 -4.28891,4.14642 -7.06836,5.16211 -2.06655,0.74545 -4.25117,1.11637 -6.52539,1.03906 -2.08652,-0.0709 -4.19254,-0.51843 -6.25977,-1.33399 -4.11747,-1.62442 -7.73299,-4.5732 -10.40429,-8.10546 -3.20957,-4.24402 -4.56737,-8.60664 -4.9375,-12.12696 l -0.002,-0.0234 c -0.23803,-2.28696 -0.12073,-4.46116 0.35352,-6.52149 0.68657,-2.98278 2.00751,-5.19671 2.99414,-6.50586 -1.14607,1.09734 -3.02875,3.04262 -4.35937,6.04297 -0.81525,1.83825 -1.34587,3.90754 -1.47657,6.15039 -0.85722,-0.51071 -1.91706,-1.06604 -3.24804,-1.6543 -1.85095,-0.81807 -3.86644,-1.58653 -6.01368,-2.4414 -2.24566,-0.89406 -4.02863,-1.64572 -5.87109,-2.52735 -2.0541,-0.98289 -3.72028,-1.94456 -4.67969,-2.3125 0.14436,-1.97529 0.20034,-4.96319 0.43555,-8.13476 0.23116,-3.11705 0.77322,-6.49685 1.08398,-9.06641 12.8066,6.5214 26.04466,10.68983 38.41797,13.03321 15.05127,2.85055 32.85678,3.89953 51.38477,0.65039 22.68436,-3.97802 38.80369,-13.50978 43.66015,-18.09571 z m 64.88868,16.52539 c 2.5532,0.0685 4.99757,0.41027 7.22461,1.08008 2.93517,0.8825 5.8534,2.25436 8.61523,4.03516 2.68357,1.73033 5.19511,3.83064 7.38281,6.18554 2.13738,2.30073 3.94681,4.82334 5.28321,7.42969 1.3121,2.55897 2.14869,5.16248 2.41211,7.67188 0.25978,2.4738 -0.007,4.92689 -0.69922,7.30664 -0.68519,2.3545 -1.78515,4.63123 -3.18946,6.76172 -2.78678,4.22785 -6.6975,7.76038 -10.57226,10.00586 -0.77527,0.44618 -1.62077,0.74619 -2.54102,0.92968 -0.92488,0.18442 -1.92681,0.25203 -3.00976,0.22266 -2.19868,-0.0596 -4.54712,-0.50388 -7.05469,-1.01367 -2.40996,-0.48995 -5.06381,-1.06439 -7.48828,-1.20313 -1.24275,-0.0711 -2.52295,-0.0358 -3.77344,0.21289 -1.26787,0.25221 -2.52444,0.72729 -3.66992,1.54493 -1.77083,1.25598 -3.20158,2.67199 -4.32617,4.2207 -1.13643,1.56501 -1.93309,3.22822 -2.46289,4.93359 -0.53522,1.72279 -0.79119,3.46842 -0.86328,5.1836 -0.0731,1.73987 0.0441,3.46345 0.26562,5.11914 0.48728,3.62537 1.75549,7.00479 3.87109,10.04101 2.24366,3.21999 5.33289,5.9031 9.12305,8.08203 1.18015,0.678 2.56961,1.23452 4.01367,1.69336 1.49619,0.47541 3.14359,0.87588 4.84961,1.20313 3.56207,0.68326 7.49031,1.07043 11.21485,1.15429 3.99423,0.0899 7.81436,-0.16593 11.02343,-0.80078 1.70692,-0.33768 3.28901,-0.79075 4.67383,-1.38476 0.7205,-0.30905 1.40385,-0.66286 2.0332,-1.07031 0.64598,-0.41821 1.2501,-0.90237 1.77735,-1.46485 0.51046,-0.54562 0.93323,-1.13382 1.25976,-1.75976 0.33791,-0.64774 0.56144,-1.31361 0.67969,-1.98438 0.12201,-0.69205 0.12705,-1.36135 0.0527,-1.98828 -0.0768,-0.64778 -0.23914,-1.24892 -0.44336,-1.79297 -0.42899,-1.14279 -1.08075,-2.12725 -1.72071,-2.91797 -0.71925,-0.88869 -1.52395,-1.65607 -2.25976,-2.27734 -1.20893,-1.02073 -2.36691,-1.76362 -3.31836,-2.29297 2.23684,-2.52105 4.47133,-5.39466 6.58594,-8.65039 0.98554,0.67136 2.43417,1.48177 4.96679,2.98828 1.69028,1.00545 3.88593,2.35038 5.82422,3.79492 0.85951,0.64056 1.67644,1.30669 2.38477,1.97656 0.66758,0.63136 1.20227,1.23198 1.57812,1.78125 1.08199,1.60426 2.20241,3.70507 2.83008,5.92579 0.28192,0.99742 0.45792,1.99917 0.49609,2.96484 0.0361,0.91244 -0.0518,1.77484 -0.2832,2.57227 -0.78919,2.68448 -2.07574,5.34735 -3.82617,7.91796 -1.68721,2.47778 -3.78678,4.84307 -6.2207,7.01172 -4.67404,4.16461 -10.47543,7.49832 -16.39063,9.32227 -4.95209,1.53262 -10.96658,2.13858 -17.60156,1.89844 -6.43297,-0.23283 -13.2617,-1.25474 -19.87891,-2.84766 -7.62889,-1.84642 -15.36525,-5.71887 -22.0957,-10.92578 -6.7027,-5.18544 -12.25579,-11.57872 -15.65234,-18.33985 -1.67735,-3.33796 -2.83,-7.05931 -3.54493,-10.96289 -0.71898,-3.92574 -0.98865,-8.00287 -0.91406,-12.00586 0.0752,-4.03817 0.5004,-7.9807 1.15625,-11.59961 0.6644,-3.66607 1.56185,-6.97689 2.56445,-9.72656 1.0536,-2.88698 2.07386,-5.40889 3.15625,-7.69726 1.10108,-2.32788 2.26056,-4.40483 3.56055,-6.34571 1.32936,-1.98473 2.81374,-3.83603 4.5293,-5.65625 1.76497,-1.87265 3.77857,-3.71536 6.10937,-5.61328 2.32468,-1.89356 5.2084,-3.6703 8.375,-5.20703 3.29834,-1.60066 6.86144,-2.9211 10.42774,-3.87891 3.56217,-0.9567 7.28892,-1.59488 10.91406,-1.74414 0.87101,-0.0359 1.73487,-0.0424 2.58594,-0.0195 z M 338.1738,443.26757 a 2.5632619,2.5190681 0 0 0 -2.5625,2.51953 2.5632619,2.5190681 0 0 0 1.28711,2.18359 c -0.19164,0.38842 -0.37894,0.80761 -0.54688,1.27539 -0.53909,1.50157 -0.78494,3.10531 -0.7539,4.59766 -0.61037,-0.14024 -1.2238,-0.3037 -1.84961,-0.51953 -0.38328,-0.13218 -0.72968,-0.27795 -1.06446,-0.42578 a 2.5632619,2.5190681 0 0 0 0.01,-0.2168 2.5632619,2.5190681 0 0 0 -2.5625,-2.51953 2.5632619,2.5190681 0 0 0 -2.56445,2.51953 2.5632619,2.5190681 0 0 0 2.56445,2.51758 2.5632619,2.5190681 0 0 0 2.23633,-1.28906 c 0.24089,0.20342 0.4699,0.40764 0.75195,0.60937 0.857,0.61298 1.79393,1.10323 2.74609,1.48242 0.31831,1.42177 0.87389,2.74513 1.42969,3.89063 a 2.5632619,2.5190681 0 0 0 -1.24219,2.1582 2.5632619,2.5190681 0 0 0 2.5625,2.51758 2.5632619,2.5190681 0 0 0 2.56446,-2.51758 2.5632619,2.5190681 0 0 0 -2.56446,-2.51953 2.5632619,2.5190681 0 0 0 -0.25781,0.0137 c -0.0756,-0.93718 -0.15419,-1.88086 -0.23242,-2.87695 0.0764,0.014 0.1598,0.037 0.23438,0.0488 1.59892,0.25325 3.28316,0.12362 4.74414,-0.10352 a 2.5632619,2.5190681 0 0 0 2.49414,1.94531 2.5632619,2.5190681 0 0 0 2.56445,-2.51953 2.5632619,2.5190681 0 0 0 -2.56445,-2.51758 2.5632619,2.5190681 0 0 0 -2.45313,1.79297 c -1.45117,-0.29068 -3.07269,-0.62624 -4.39453,-0.87304 -0.2598,-0.0485 -0.53775,-0.0975 -0.82227,-0.14649 -0.0189,-0.18708 -0.0358,-0.3696 -0.0566,-0.5664 -0.14424,-1.36133 -0.27997,-2.72701 -0.19726,-4.20508 0.0248,-0.4428 0.0726,-0.85411 0.13086,-1.2461 a 2.5632619,2.5190681 0 0 0 0.36914,0.0293 2.5632619,2.5190681 0 0 0 2.5625,-2.51953 2.5632619,2.5190681 0 0 0 -2.5625,-2.51953 z m -10.38086,63.74414 c 14.60908,15.69492 29.62501,20.59742 32.20312,20.6543 0,0 0,0.002 0,0.002 -1.40795,2.2807 -2.67092,4.91809 -3.70507,7.79101 -1.58686,4.40835 -2.63183,9.37488 -2.74805,14.25782 -0.0202,0.8473 -10e-4,1.69125 0.0371,2.5332 -0.93681,0.1004 -2.00514,0.23054 -3.16211,0.35938 -0.0578,-0.34576 -0.13103,-0.68407 -0.23242,-0.98438 -0.16209,-0.48008 -0.41712,-0.9943 -0.70313,-1.55469 -0.63775,-1.24958 -1.29199,-2.51142 -1.75781,-4.16601 -0.11712,-0.41601 -0.21357,-0.83209 -0.28711,-1.24219 -0.19723,-1.09982 -0.35991,-2.27332 -0.4375,-3.63867 -0.12619,-2.22046 0.0284,-4.13286 0.1582,-5.11914 -0.42024,0.89582 -1.24584,2.6544 -1.82617,4.95117 -0.34987,1.38467 -0.55301,2.74174 -0.59375,3.98437 -0.0155,0.47437 -0.0236,0.96409 -0.0156,1.47071 0.0306,1.93654 0.31155,3.8775 1.09765,5.54492 0.18911,0.40112 0.40119,0.76686 0.62891,1.0918 -2.32162,0.12471 -4.54959,0.0844 -6.60742,-0.27344 -0.15261,-0.0265 -0.28877,-0.0661 -0.4375,-0.0957 -0.0689,-0.58308 -0.15738,-1.19943 -0.33008,-1.71093 -0.16209,-0.48008 -0.41712,-0.9943 -0.70313,-1.55469 -0.63775,-1.24958 -1.29199,-2.51143 -1.75781,-4.16602 -0.11712,-0.41601 -0.21552,-0.83208 -0.28906,-1.24218 -0.19724,-1.09982 -0.35796,-2.27332 -0.43555,-3.63868 -0.12619,-2.22045 0.0284,-4.13286 0.15821,-5.11914 -0.42025,0.89583 -1.2478,2.6544 -1.82813,4.95118 -0.34987,1.38467 -0.55105,2.74174 -0.5918,3.98437 -0.0156,0.47437 -0.0236,0.96409 -0.0156,1.4707 0.0283,1.79394 0.27685,3.58937 0.9375,5.16993 -1.59334,-1.01808 -2.81215,-2.34313 -3.76953,-3.85547 -0.95641,-1.51081 -1.92833,-3.63852 -2.67774,-6.71289 -0.67699,-2.7773 -1.11901,-6.10505 -1.29883,-10.09571 -0.3251,-7.21532 0.48793,-16.43592 0.99024,-23.04687 z m 194.85742,0.78906 c 0.74737,0.72699 1.71716,1.62564 2.7832,2.82031 0.51066,0.57228 0.99958,1.1795 1.38282,1.78516 0.35061,0.55411 0.57467,1.04678 0.66797,1.44727 0.0422,0.18121 0.0537,0.32302 0.0469,0.43164 -0.006,0.10296 -0.029,0.17353 -0.0547,0.23046 -0.0223,0.0495 -0.0622,0.11754 -0.11914,0.19727 -0.0574,0.0803 -0.15412,0.20328 -0.32031,0.35938 -0.13226,0.12092 -0.33159,0.27609 -0.62891,0.45117 -0.28934,0.17038 -0.65384,0.3503 -1.10742,0.52929 -0.88251,0.34828 -2.02096,0.66386 -3.42187,0.91602 -2.63987,0.47516 -5.97283,0.68105 -9.63477,0.57227 -0.74913,-0.0223 -1.50696,-0.0631 -2.26562,-0.11133 2.01458,-1.05558 4.80364,-2.8248 8.06836,-5.48438 1.47862,-1.20455 3.02871,-2.59062 4.60351,-4.14453 z m -161.66992,18.37305 c -0.0965,0.13864 -0.19173,0.27995 -0.28711,0.42187 -0.005,-0.0499 -0.0202,-0.1158 -0.01,-0.14258 0.027,-0.0696 0.1583,-0.16676 0.29688,-0.27929 z m 102.49219,10.20312 c 2.77375,2.00409 5.69502,3.80507 8.70898,5.36524 -0.27948,0.37533 -0.31992,1.02174 -0.51562,1.62304 -0.0994,0.30534 -0.25105,0.68656 -0.49024,1.10938 -0.20457,0.36162 -0.49631,0.79346 -0.93164,1.28711 -0.39029,0.44257 -0.87924,0.91576 -1.48437,1.40625 -1.11836,0.90648 -2.50507,1.76877 -4.00196,2.48437 -0.70252,0.33585 -1.3935,0.62063 -2.04297,0.85157 -0.32545,0.11572 -0.63003,0.21585 -0.91406,0.29882 -0.0292,-0.18228 -0.0576,-0.36004 -0.0918,-0.55273 -0.24509,-1.38134 -0.50244,-2.7776 -0.46484,-4.49609 0.009,-0.43208 0.0385,-0.85779 0.0879,-1.27149 0.1325,-1.10947 0.32007,-2.27891 0.64453,-3.60742 0.47193,-1.9323 1.07658,-3.52723 1.4961,-4.49805 z"
         transform="scale(0.26458333)" />
      <ellipse
         style="fill:#fbfbfb;fill-opacity:1;stroke-width:0.499999;stroke-linejoin:round;paint-order:stroke markers fill;stop-color:#000000"
         id="path1538"
         cx="77.042381"
         cy="84.977295"
         rx="2.3647134"
         ry="3.6958983" />
      <ellipse
         style="fill:#fbfbfb;fill-opacity:1;stroke-width:0.499999;stroke-linejoin:round;paint-order:stroke markers fill;stop-color:#000000"
         id="ellipse1549"
         cx="99.586571"
         cy="89.841599"
         rx="2.3647134"
         ry="3.6958983" />
      <path
         style="fill:#f7f0e5;fill-opacity:1;stroke-width:1.88976;stroke-linejoin:round;paint-order:stroke markers fill;stop-color:#000000"
         d="m 497.4668,431.37695 c -0.85107,-0.0228 -1.71493,-0.0163 -2.58594,0.0195 -1.63592,0.0674 -3.29247,0.24527 -4.94531,0.4961 a 32.350137,35.26695 0 0 0 -12.46094,27.81445 32.350137,35.26695 0 0 0 8.16016,23.41602 c 0.24805,-0.19346 0.48901,-0.38969 0.75195,-0.57617 1.14548,-0.81764 2.40205,-1.29272 3.66992,-1.54493 1.25049,-0.24874 2.53069,-0.284 3.77344,-0.21289 2.42447,0.13874 5.07832,0.71318 7.48828,1.20313 2.50757,0.50979 4.85601,0.95403 7.05469,1.01367 1.08295,0.0294 2.08488,-0.0382 3.00976,-0.22266 0.92025,-0.18349 1.76575,-0.4835 2.54102,-0.92968 3.87476,-2.24548 7.78548,-5.77801 10.57226,-10.00586 1.40431,-2.13049 2.50427,-4.40722 3.18946,-6.76172 0.69253,-2.37975 0.959,-4.83284 0.69922,-7.30664 -0.26342,-2.5094 -1.10001,-5.11291 -2.41211,-7.67188 -1.3364,-2.60635 -3.14583,-5.12896 -5.28321,-7.42969 -2.1877,-2.3549 -4.69924,-4.45521 -7.38281,-6.18554 -2.76183,-1.7808 -5.68006,-3.15266 -8.61523,-4.03516 -2.22704,-0.66981 -4.67141,-1.01154 -7.22461,-1.08008 z"
         transform="scale(0.26458333)"
         id="path1761" />
    </g>
  </g>
</svg>
