<?xml version="1.0" encoding="UTF-8" standalone="no"?>
<!-- Created with Inkscape (http://www.inkscape.org/) -->
<svg xmlns:svg="http://www.w3.org/2000/svg" xmlns="http://www.w3.org/2000/svg" version="1.0" width="383" height="497" id="svg2">
  <defs id="defs4"/>
  <g transform="translate(-1.954894,9.022553)" id="g1864">
    <path d="M 313.73209,100.54197 C 311.44588,95.055073 285.98157,70.178773 270.75138,61.408723 C 254.14851,51.599543 197.59353,23.458893 197.59271,23.457663 C 201.70788,18.428003 223.19824,12.026623 223.19824,12.026623 C 223.19824,12.026623 267.09344,6.5397326 277.15276,11.569383 C 277.15276,11.569383 273.95206,23.457663 273.95206,23.457663 L 288.12656,14.312833 L 288.5838,21.628703 L 295.89967,20.714213 L 306.87347,36.260433 C 306.87347,36.260433 299.5576,42.204573 300.47208,43.119053 C 301.38657,44.033543 308.70243,42.661813 308.70243,42.661813 C 312.8176,44.490783 328.36382,87.281963 328.36382,87.281963 L 313.73209,100.54197 z " style="fill:#a8a3a0;fill-opacity:1;fill-rule:evenodd;stroke:none;stroke-width:3;stroke-linecap:butt;stroke-linejoin:miter;stroke-opacity:1" id="path11436"/>
    <path d="M 20.638726,153.6775 L 145.63873,453.6775 L 356.63873,384.6775 L 216.63873,90.677503 L 20.638726,153.6775 z " style="fill:#c9c5c2;fill-opacity:1;fill-rule:evenodd;stroke:none;stroke-width:1px;stroke-linecap:butt;stroke-linejoin:miter;stroke-opacity:1" id="path14962"/>
    <path d="M 831,593.86218 C 831,604.63173 768.99144,613.36218 692.5,613.36218 C 616.00856,613.36218 554,604.63173 554,593.86218 C 554,583.09263 616.00856,574.36218 692.5,574.36218 C 768.99144,574.36218 831,583.09263 831,593.86218 z " transform="translate(-505.3613,-138.6847)" style="opacity:1;color:#000000;fill:#9c938e;fill-opacity:1;fill-rule:evenodd;stroke:none;stroke-width:2.5;stroke-linecap:round;stroke-linejoin:round;marker:none;marker-start:none;marker-mid:none;marker-end:none;stroke-miterlimit:4;stroke-dasharray:none;stroke-dashoffset:0;stroke-opacity:1;visibility:visible;display:inline;overflow:visible" id="path16711"/>
    <path d="M 129.19794,394.73879 L 122.3213,415.73065 C 113.63501,412.83522 85.723616,426.37652 82.147216,460.97173 C 101.32944,466.76259 153.44717,465.31487 176.97253,443.96108 C 176.97253,443.96108 165.75274,425.86465 165.75274,425.86465 C 165.75274,421.81816 171.90553,403.787 171.90553,403.787 L 129.19794,394.73879 z " style="opacity:1;fill:#000000;fill-opacity:1;fill-rule:evenodd;stroke:#000000;stroke-width:1px;stroke-linecap:butt;stroke-linejoin:miter;stroke-opacity:1" id="path3551"/>
    <path d="M 238.5004,414.64486 L 244.29126,450.4758 C 245.01512,454.45701 260.21613,453.38414 260.21613,448.30423 C 260.21613,448.30423 255.87298,412.11136 255.87298,412.11136 L 238.5004,414.64486 z " style="fill:#000103;fill-opacity:1;fill-rule:evenodd;stroke:#000000;stroke-width:1px;stroke-linecap:butt;stroke-linejoin:miter;stroke-opacity:1" id="path3555"/>
    <path d="M 240.37067,415.58586 L 244.12072,438.73193 C 244.12072,438.73193 245.73752,441.94936 250.91607,440.72535 C 256.09461,439.50133 256.42672,436.95913 256.42672,436.95913 L 253.55242,411.63134" style="fill:#b48454;fill-opacity:1;fill-rule:evenodd;stroke:#000000;stroke-width:1px;stroke-linecap:butt;stroke-linejoin:miter;stroke-opacity:1" id="path8798"/>
    <path d="M 218.2324,401.97736 C 218.2324,401.97736 215.6989,417.17836 245.01512,414.28293 C 274.33134,411.3875 269.9882,396.91036 269.9882,396.91036 L 218.2324,401.97736 z " style="fill:#b78756;fill-opacity:1;fill-rule:evenodd;stroke:#000000;stroke-width:3;stroke-linecap:butt;stroke-linejoin:miter;stroke-opacity:1" id="path3553"/>
    <path d="M 123.63873,391.44534 C 125.41255,394.99298 152.37295,414.77232 189.77694,398.83038 C 195.51742,396.38374 196.61883,373.99687 196.61883,373.99687 L 188.76334,373.49007 C 188.76334,373.49007 203.78219,374.72986 209.78219,372.72986 C 201.9916,374.63597 202.44711,373.74347 202.44711,373.74347 L 204.72774,394.52253 C 219.17172,409.21991 266.5581,409.72672 279.48166,387.42724 L 265.03769,337.50682 L 124.39894,340.04085 L 123.63873,391.44534 z " style="fill:#9b4524;fill-opacity:1;fill-rule:evenodd;stroke:#000000;stroke-width:3;stroke-linecap:butt;stroke-linejoin:round;stroke-opacity:1" id="path2656"/>
    <path d="M 124.13379,169.94339 C 124.13379,169.94339 115.29533,150.49879 98.261216,152.42718 C 81.227106,154.35557 72.227946,165.28311 76.245426,180.22813 C 80.262906,195.17316 86.048076,222.97412 113.04554,231.81257 C 138.52973,240.15561 160.9339,194.20896 160.9339,194.20896 L 124.13379,169.94339 z " style="fill:#63c7ad;fill-opacity:1;fill-rule:evenodd;stroke:#000000;stroke-width:3;stroke-linecap:butt;stroke-linejoin:miter;stroke-opacity:1" id="path13192"/>
    <path d="M 162.04233,183.95653 C 162.04233,183.95653 153.19796,177.01311 143.0351,177.7904 C 134.40152,178.45073 125.34521,186.21481 125.15702,194.307 C 124.96883,202.39918 124.78064,219.71269 130.23816,220.08907 C 135.69568,220.46545 138.89492,219.5245 138.89492,219.5245 L 139.08311,219.5245 L 161.85414,194.307 L 162.04233,183.95653 z " style="fill:#f1c1ad;fill-opacity:1;fill-rule:evenodd;stroke:#000000;stroke-width:3;stroke-linecap:butt;stroke-linejoin:miter;stroke-opacity:1" id="path3584"/>
    <path d="M 245.60309,45.405263 L 249.26102,11.112143 C 249.26102,11.112143 272.1231,9.7404126 274.40931,11.569383 C 276.69552,13.398353 268.00793,59.122513 268.00793,59.122513 L 245.60309,45.405263 z " style="fill:#cbc5c5;fill-opacity:1;fill-rule:evenodd;stroke:none;stroke-width:1px;stroke-linecap:butt;stroke-linejoin:miter;stroke-opacity:1" id="path12311"/>
    <path d="M 362.65695,124.05083 C 362.65695,124.05083 363.57144,106.67564 360.37074,102.56047 C 357.17005,98.445293 350.31142,92.043913 347.56797,92.501153 C 344.82452,92.958393 336.59418,96.616333 336.59418,98.445303 C 336.59418,100.27426 356.71281,140.51153 357.62729,143.71222 C 358.54178,146.91291 351.04652,151.5838 349.85418,149.19912 C 336.59418,122.67911 314.64658,108.04737 314.18933,103.47495 C 313.73209,98.902543 339.33763,78.326663 351.68315,80.612873 C 364.02868,82.899083 371.34454,102.10323 369.97282,110.79082 C 368.60109,119.47841 368.60109,131.36669 362.65695,124.05083 z " style="opacity:1;color:#000000;fill:#dea057;fill-opacity:1;fill-rule:evenodd;stroke:#000000;stroke-width:3.5;stroke-linecap:butt;stroke-linejoin:miter;marker:none;marker-start:none;marker-mid:none;marker-end:none;stroke-miterlimit:4;stroke-dasharray:none;stroke-dashoffset:0;stroke-opacity:1;visibility:visible;display:inline;overflow:visible" id="path11432"/>
    <path d="M 275.32379,61.865963 L 283.55414,16.599043 L 295.44243,22.543183 C 295.44243,22.543183 289.49829,65.523893 286.75484,70.553553 C 284.01139,75.583213 275.32379,61.408723 275.32379,61.865963 z " style="fill:#cbc5c5;fill-opacity:1;fill-rule:evenodd;stroke:none;stroke-width:1px;stroke-linecap:butt;stroke-linejoin:miter;stroke-opacity:1" id="path12313"/>
    <path d="M 329.27831,106.67564 C 332.02176,101.64599 340.37831,95.861113 345.33724,98.634693 C 348.79487,100.56857 350.76867,105.76116 343.91004,113.07703 C 337.05142,120.39289 333.85072,118.10669 333.85072,118.10669 L 329.27831,106.67564 z " style="fill:#f1c1ae;fill-opacity:1;fill-rule:evenodd;stroke:#000000;stroke-width:3;stroke-linecap:butt;stroke-linejoin:miter;stroke-miterlimit:4;stroke-dasharray:none;stroke-opacity:1" id="path10553"/>
    <path d="M 340.70935,138.22532 C 338.88038,117.1922 315.10382,124.50807 322.41968,124.50807 C 329.73555,124.50807 338.03868,117.03972 332.02175,110.79082 C 319.992,98.297283 305.50175,118.10669 313.7321,127.25152 C 319.17811,133.30264 316.93278,135.93911 316.93278,135.93911 C 316.93278,135.93911 342.99556,150.1136 342.99556,150.1136 L 350.31142,137.31083" style="fill:#f1c1ae;fill-opacity:1;fill-rule:evenodd;stroke:#000000;stroke-width:3;stroke-linecap:round;stroke-linejoin:round;stroke-miterlimit:4;stroke-dasharray:none;stroke-opacity:1" id="path9673"/>
    <path d="M 343.98443,131.74273 C 343.98443,131.74273 342.215,137.40803 343.98443,138.85574 C 347.54094,141.76561 353.31123,140.12233 357.88713,135.62256 C 361.53423,132.03612 359.72082,122.21223 352.42321,121.96473 C 347.31404,121.79145 343.98443,132.38937 343.98443,131.74273 z " style="fill:#f1c1ae;fill-opacity:1;fill-rule:evenodd;stroke:#000000;stroke-width:3;stroke-linecap:butt;stroke-linejoin:miter;stroke-miterlimit:4;stroke-dasharray:none;stroke-opacity:1" id="path10557"/>
    <path d="M 338.48802,119.1333 C 338.48802,119.1333 347.76642,108.18556 350.77412,108.7871 C 358.85709,110.4037 357.2405,120.74989 353.68399,123.65976 C 348.19591,128.15001 343.98443,131.41942 340.10461,128.83287 C 335.65158,125.86418 338.81133,119.1333 338.48802,119.1333 z " style="fill:#f1c1ae;fill-opacity:1;fill-rule:evenodd;stroke:#000000;stroke-width:3;stroke-linecap:butt;stroke-linejoin:miter;stroke-miterlimit:4;stroke-dasharray:none;stroke-opacity:1" id="path10555"/>
    <path d="M 230.94948,384.71138 C 230.94948,384.71138 282.56828,371.98346 298.83173,360.66975 C 298.83173,360.66975 286.10381,347.23471 282.56828,341.57786 C 282.56828,341.57786 284.6896,323.90019 281.86117,318.24334 C 281.86117,318.24334 292.46777,288.54486 269.84036,254.60373 C 269.84036,254.60373 341.25814,217.36856 358.93581,171.16513 C 362.22064,162.57969 322.10377,135.14411 312.26676,136.51689 C 304.48858,157.73009 268.21971,229.30206 200.54389,220.6626 C 111.42309,209.28548 33.723116,267.90005 52.477406,314.11587 C 54.913596,307.01261 66.193596,283.24155 99.427616,276.17049 C 101.33594,275.76446 103.00017,279.28265 104.45029,278.94112 C 104.45029,278.94112 106.84008,266.85053 118.5195,263.79612 C 118.5195,263.79612 92.678756,301.43649 118.28165,325.2608 C 123.37544,330.00073 119.30219,338.29053 116.67183,344.21495 C 116.67183,344.21495 109.13607,358.98954 95.538526,367.38726 C 95.538526,367.38726 117.04439,396.15338 167.30987,386.8327 C 167.30987,386.8327 198.63349,338.17977 200.54389,330.26416 C 203.01877,338.39588 223.52486,377.28676 230.94948,384.71138 z " style="opacity:1;fill:#595891;fill-opacity:1;fill-rule:evenodd;stroke:none;stroke-width:3;stroke-linecap:butt;stroke-linejoin:miter;stroke-opacity:1" id="path3624"/>
    <path d="M 159.15273,309.55302 C 159.15273,309.55302 189.13835,307.78916 195.31186,308.37711 C 198.83586,308.71272 195.60583,301.02769 195.60583,301.02769 C 195.60583,301.02769 163.56237,301.32167 161.21056,302.2036 C 158.85875,303.08553 158.56477,308.37711 159.15273,309.55302 z " style="fill:#de9e54;fill-opacity:1;fill-rule:evenodd;stroke:#794000;stroke-width:3;stroke-linecap:butt;stroke-linejoin:miter;stroke-opacity:1" id="path3570"/>
    <path d="M 160.9166,306.02528 C 160.9166,309.75761 157.58878,313.08072 153.12621,313.08072 C 148.66364,313.08072 145.92378,309.16966 145.92378,305.43733 C 145.92378,301.705 149.83955,298.67587 154.30212,298.67587 C 158.76469,298.67587 160.9166,302.29295 160.9166,306.02528 z " style="opacity:1;color:#000000;fill:#de9e54;fill-opacity:1;fill-rule:evenodd;stroke:#794000;stroke-width:3;stroke-linecap:butt;stroke-linejoin:miter;marker:none;marker-start:none;marker-mid:none;marker-end:none;stroke-miterlimit:4;stroke-dasharray:none;stroke-dashoffset:0;stroke-opacity:1;visibility:visible;display:inline;overflow:visible" id="path3561"/>
    <path d="M 215.11727,359.29949 L 227.30104,350.71101 C 229.32826,366.422 246.28245,380.32854 246.28245,380.32854 L 231.55784,384.64661" style="fill:#de9e54;fill-opacity:1;fill-rule:evenodd;stroke:#000000;stroke-width:3;stroke-linecap:butt;stroke-linejoin:miter;stroke-opacity:1" id="path3539"/>
    <path d="M 304.1328,155.58413 L 312.72705,137.05098 C 325.48507,135.94159 354.98001,156.50862 359.60249,170.19114 C 359.60249,170.19114 348.87835,190.71492 348.87835,190.71492 L 304.1328,155.58413 z " style="fill:#9b4524;fill-opacity:1;fill-rule:evenodd;stroke:#000000;stroke-width:1px;stroke-linecap:butt;stroke-linejoin:miter;stroke-opacity:1" id="path3580"/>
    <path d="M 298.69243,164.03728 C 313.48436,164.22218 342.38079,194.33019 343.65119,196.71219 L 348.80769,189.43663 C 345.43501,182.5701 314.67204,155.02943 303.9479,154.65963 C 303.9479,154.65963 299.24713,163.85238 298.69243,164.03728 z " style="fill:#dd9f52;fill-opacity:1;fill-rule:evenodd;stroke:#000000;stroke-width:3;stroke-linecap:butt;stroke-linejoin:miter;stroke-opacity:1" id="path3578"/>
    <path d="M 167.21386,386.93064 L 153.2937,388.42384 C 154.81412,385.383 180.14763,349.16337 180.14763,349.16337 L 188.76334,352.71101" style="fill:#de9e54;fill-opacity:1;fill-rule:evenodd;stroke:#000000;stroke-width:3;stroke-linecap:butt;stroke-linejoin:miter;stroke-opacity:1" id="path3537"/>
    <path d="M 230.94948,384.71138 C 230.94948,384.71138 282.56828,371.98346 298.83173,360.66975 C 298.83173,360.66975 286.10381,347.23471 282.56828,341.57786 C 282.56828,341.57786 284.6896,323.90019 281.86117,318.24334 C 281.86117,318.24334 292.46777,288.54486 269.84036,254.60373 C 269.84036,254.60373 340.97961,218.0649 358.65728,171.86147 C 361.73658,166.52796 329.62419,134.44777 312.26676,136.51689 C 304.48858,157.73009 268.21971,229.30206 200.54389,220.6626 C 111.42309,209.28548 33.723116,267.90005 52.477406,314.11587 C 54.913596,307.01261 66.555956,283.78509 99.789976,276.71403 C 101.6983,276.308 102.72185,279.8019 104.17197,279.46037 C 104.17197,279.46037 104.37451,267.87785 118.5195,263.79612 C 118.5195,263.79612 121.95665,262.76147 120.83295,263.60131 C 112.78444,269.61669 96.068366,304.59063 118.28165,325.2608 C 123.37544,330.00073 119.30219,338.29053 116.67183,344.21495 C 116.67183,344.21495 109.13607,358.98954 95.538526,367.38726 C 95.538526,367.38726 117.04439,396.15338 167.30987,386.8327 C 167.30987,386.8327 198.63349,338.17977 200.54389,330.26416 C 203.01877,338.39588 223.52486,377.28676 230.94948,384.71138 z " style="opacity:1;fill:none;fill-opacity:1;fill-rule:evenodd;stroke:#000000;stroke-width:3.4000001;stroke-linecap:butt;stroke-linejoin:round;stroke-miterlimit:4;stroke-dasharray:none;stroke-opacity:1" id="coat"/>
    <path d="M 235.93235,183.70837 C 235.93235,183.70837 243.61548,177.01787 253.86192,175.11312 C 269.46469,172.21265 278.53667,184.88819 276.4708,192.78559 C 274.37637,200.79219 274.221,217.44405 268.64063,217.82888 C 263.06026,218.2137 259.789,217.25164 259.789,217.25164 L 259.59658,217.25164 L 236.31297,191.46826 L 235.93235,183.70837 z " style="opacity:1;color:#000000;fill:#f1c1ad;fill-opacity:1;fill-rule:evenodd;stroke:#000000;stroke-width:3;stroke-linecap:butt;stroke-linejoin:miter;marker:none;marker-start:none;marker-mid:none;marker-end:none;stroke-miterlimit:4;stroke-dasharray:none;stroke-dashoffset:0;stroke-opacity:1;visibility:visible;display:inline;overflow:visible" id="path3586"/>
    <path d="M 251.52493,196.00072 C 251.52493,196.00072 251.33808,194.49466 250.58398,192.61329 C 249.83051,190.7335 246.29054,191.50354 247.00836,188.28491 C 247.84263,184.54412 253.78198,183.4128 256.79426,183.58015 C 263.56911,183.95653 266.39196,189.41405 266.01558,192.98967 C 265.52306,197.66858 263.5691,195.24795 263.94548,199.01176 C 264.12991,200.85603 272.22586,205.59842 272.03767,207.48033 C 271.84948,209.36223 272.41406,215.00794 263.94549,212.93785 C 255.47693,210.86775 251.33674,196.18891 251.52493,196.00072 z " style="opacity:1;color:#000000;fill:#e59b7e;fill-opacity:1;fill-rule:evenodd;stroke:#000000;stroke-width:3.125;stroke-linecap:butt;stroke-linejoin:miter;marker:none;marker-start:none;marker-mid:none;marker-end:none;stroke-miterlimit:4;stroke-dasharray:none;stroke-dashoffset:0;stroke-opacity:1;visibility:visible;display:inline;overflow:visible" id="path3594"/>
    <path d="M 210.30467,308.08314 C 210.30467,308.08314 238.52643,306.02531 242.05415,306.31928 C 245.58187,306.61326 242.34812,299.55781 242.34812,299.55781 C 242.34812,299.55781 212.06852,299.85179 209.71671,300.73372 C 207.3649,301.61565 210.01069,308.96507 210.30467,308.08314 z " style="fill:#de9e54;fill-opacity:1;fill-rule:evenodd;stroke:#794000;stroke-width:3;stroke-linecap:butt;stroke-linejoin:miter;stroke-opacity:1" id="path3572"/>
    <path d="M 149.43357,198.259 C 149.43357,198.259 148.11624,195.62433 148.869,193.74243 C 149.62176,191.86052 152.89167,191.09049 152.44462,189.41405 C 151.69186,186.5912 147.18,185.75466 144.16424,185.83843 C 137.2012,186.02662 134.56654,191.48414 134.56654,196.1889 C 134.56654,200.89366 140.02406,202.58737 139.2713,204.28109 C 138.51853,205.9748 128.73264,207.8567 128.92083,209.73861 C 129.10902,211.62051 127.4153,218.58355 135.88387,216.51346 C 144.35243,214.44336 149.62176,198.44719 149.43357,198.259 z " style="fill:#e59b7e;fill-opacity:1;fill-rule:evenodd;stroke:#000000;stroke-width:3.125;stroke-linecap:butt;stroke-linejoin:miter;stroke-miterlimit:4;stroke-dasharray:none;stroke-opacity:1" id="path3592"/>
    <path d="M 140.02405,215.19613 C 140.02405,215.19613 129.4854,218.01898 129.10902,212.93784 C 128.73264,207.8567 134.3296,206.84945 137.95397,206.53937 C 139.97346,205.23745 139.27415,200.51728 135.13111,200.1409 C 125.49586,199.01176 118.75855,208.98585 121.95778,217.83079 C 125.15702,226.67574 139.2713,222.72374 139.2713,222.72374 L 140.02405,215.19613 z " style="fill:#e3a155;fill-opacity:1;fill-rule:evenodd;stroke:#000000;stroke-width:3;stroke-linecap:butt;stroke-linejoin:miter;stroke-opacity:1" id="path3588"/>
    <path d="M 150.33342,288.38669 C 150.33342,288.38669 186.49255,285.7409 190.02027,286.03488 C 193.54799,286.32886 187.96244,276.62762 187.96244,276.62762 L 149.74547,280.15535 L 150.33342,288.38669 z " style="fill:#de9e54;fill-opacity:1;fill-rule:evenodd;stroke:#794000;stroke-width:3;stroke-linecap:butt;stroke-linejoin:miter;stroke-opacity:1" id="path3574"/>
    <path d="M 154.15514,285.15293 C 154.15514,288.88526 150.53334,292.20837 146.07077,292.20837 C 141.6082,292.20837 136.51653,290.06117 136.22255,284.85896 C 136.01198,281.13258 141.31423,277.21557 145.7768,277.21557 C 150.23937,277.21557 154.15514,281.4206 154.15514,285.15293 z " style="opacity:1;color:#000000;fill:#de9e54;fill-opacity:1;fill-rule:evenodd;stroke:#794000;stroke-width:3;stroke-linecap:butt;stroke-linejoin:miter;marker:none;marker-start:none;marker-mid:none;marker-end:none;stroke-miterlimit:4;stroke-dasharray:none;stroke-dashoffset:0;stroke-opacity:1;visibility:visible;display:inline;overflow:visible" id="path3564"/>
    <path d="M 100.84184,276.87759 C 71.850456,279.35246 53.819226,306.22252 52.405016,315.41491 C 52.405016,315.41491 56.178396,331.37624 73.264666,337.33523 C 71.496906,331.67837 82.096826,303.49358 113.56976,298.44435 C 113.56976,298.44435 112.5091,287.13064 100.84184,276.87759 z " style="opacity:1;color:#000000;fill:#9b4524;fill-opacity:1;fill-rule:evenodd;stroke:#000000;stroke-width:3;stroke-linecap:butt;stroke-linejoin:miter;marker:none;marker-start:none;marker-mid:none;marker-end:none;stroke-miterlimit:4;stroke-dasharray:none;stroke-dashoffset:0;stroke-opacity:1;visibility:visible;display:inline;overflow:visible" id="path2648"/>
    <path d="M 118.06386,341.56127 C 141.37695,364.62096 273.64523,353.93719 282.51645,340.75402 L 281.25549,315.96756 C 236.65654,340.04086 128.9602,326.35708 124.39894,326.10368 L 118.06386,341.56127 z " style="fill:#000000;fill-opacity:1;fill-rule:evenodd;stroke:#000000;stroke-width:1px;stroke-linecap:butt;stroke-linejoin:miter;stroke-opacity:1" id="path3543"/>
    <path d="M 74.678876,338.04233 C 74.678876,338.04233 93.862336,355.49803 112.5091,343.34563 C 134.71986,328.87052 121.77193,300.55655 113.56975,298.0908 C 100.59891,295.42391 68.668476,321.77887 74.678876,338.04233 z " style="opacity:1;color:#000000;fill:#a8a3a0;fill-opacity:1;fill-rule:evenodd;stroke:#000000;stroke-width:3;stroke-linecap:butt;stroke-linejoin:miter;marker:none;marker-start:none;marker-mid:none;marker-end:none;stroke-miterlimit:4;stroke-dasharray:none;stroke-dashoffset:0;stroke-opacity:1;visibility:visible;display:inline;overflow:visible" id="path2652"/>
    <path d="M 112.15554,336.98167 C 109.68067,335.2139 111.80199,330.61771 116.04463,329.55705 C 116.04463,329.55705 124.17636,334.15324 124.17636,334.15324 C 124.17636,334.15324 135.82391,313.53318 153.16774,323.54665 C 170.08812,333.31563 160.59235,370.9228 133.01519,360.66975 C 133.01519,360.66975 151.12996,355.26188 151.39997,342.99207 C 151.68135,330.2057 130.89387,329.2035 125.23701,345.8205 C 125.23701,345.8205 112.15554,336.98167 112.15554,336.98167 z " style="opacity:1;color:#000000;fill:#cac6c5;fill-opacity:1;fill-rule:evenodd;stroke:#000000;stroke-width:3;stroke-linecap:butt;stroke-linejoin:round;marker:none;marker-start:none;marker-mid:none;marker-end:none;stroke-miterlimit:4;stroke-dasharray:none;stroke-dashoffset:0;stroke-opacity:1;visibility:visible;display:inline;overflow:visible" id="path2654"/>
    <path d="M 207.07092,286.62283 C 207.07092,286.62283 239.99631,283.09511 243.52403,283.38909 C 247.05175,283.68307 243.52404,276.62762 243.52404,276.62762 L 207.65888,273.98184 L 207.07092,286.62283 z " style="fill:#de9e54;fill-opacity:1;fill-rule:evenodd;stroke:#794000;stroke-width:3;stroke-linecap:butt;stroke-linejoin:miter;stroke-opacity:1" id="path3576"/>
    <path d="M 194.84501,323.56965 C 194.84501,323.56965 194.08481,272.88901 192.31099,264.52671 L 211.56962,264.01991 L 210.3026,323.56965 L 194.84501,323.56965 z " style="fill:#dd9f54;fill-opacity:1;fill-rule:evenodd;stroke:#000000;stroke-width:3;stroke-linecap:butt;stroke-linejoin:miter;stroke-opacity:1" id="path3549"/>
    <path d="M 261.27478,303.99756 C 261.27478,308.49159 256.68159,311.90494 251.31061,311.90494 C 245.93963,311.90494 241.46613,308.07763 241.46613,303.5836 C 241.46613,299.67752 247.06093,295.44225 252.43191,295.44225 C 257.80289,295.44225 261.27478,299.50353 261.27478,303.99756 z " style="opacity:1;color:#000000;fill:#de9e54;fill-opacity:1;fill-rule:evenodd;stroke:#794000;stroke-width:3;stroke-linecap:butt;stroke-linejoin:miter;marker:none;marker-start:none;marker-mid:none;marker-end:none;stroke-miterlimit:4;stroke-dasharray:none;stroke-dashoffset:0;stroke-opacity:1;visibility:visible;display:inline;overflow:visible" id="path3566"/>
    <path d="M 170.0047,327.59687 C 170.5047,326.09687 215.97505,320.81346 229.30784,324.83667 C 234.62845,326.44218 227.53402,356.51206 227.53402,356.51206 C 227.53402,356.51206 190.28376,370.95604 168.74448,352.96441 C 168.74448,352.96441 170.0047,327.59687 170.0047,327.59687 z " style="fill:#de9f55;fill-opacity:1;fill-rule:evenodd;stroke:#000000;stroke-width:3;stroke-linecap:butt;stroke-linejoin:miter;stroke-opacity:1" id="path3541"/>
    <path d="M 177.867,333.70577 L 178.62721,351.95081 C 186.22931,358.53929 214.10365,355.49845 217.39789,352.45761 L 217.9047,332.94557 C 215.11727,330.66494 180.65443,330.41153 177.867,333.70577 z " style="fill:#000000;fill-opacity:1;fill-rule:evenodd;stroke:#000000;stroke-width:1px;stroke-linecap:butt;stroke-linejoin:miter;stroke-opacity:1" id="path3545"/>
    <path d="M 260.2257,211.24413 C 260.2257,211.24413 270.19978,210.49137 270.57616,205.41023 C 270.95254,200.32909 267.80205,201.58012 264.17768,201.27004 C 262.15819,199.96812 263.23388,194.49519 267.37692,194.11881 C 277.01217,192.98967 282.05577,200.70548 277.7274,211.24413 C 274.15398,219.94464 261.35483,218.39536 261.35483,218.39536 L 260.2257,211.24413 z " style="opacity:1;color:#000000;fill:#e3a155;fill-opacity:1;fill-rule:evenodd;stroke:#000000;stroke-width:3;stroke-linecap:butt;stroke-linejoin:miter;marker:none;marker-start:none;marker-mid:none;marker-end:none;stroke-miterlimit:4;stroke-dasharray:none;stroke-dashoffset:0;stroke-opacity:1;visibility:visible;display:inline;overflow:visible" id="path3590"/>
    <path d="M 161.6492,191.0398 C 156.83454,192.56022 142.27896,201.20556 139.09632,217.64713 C 134.30307,242.4092 148.54135,270.70438 162.91621,275.16965 C 161.14239,271.1152 162.66281,265.79373 162.66281,265.79373 C 162.66281,265.79373 177.86701,286.57279 180.65444,286.57279 L 182.68166,273.64923 C 188.00313,281.25132 193.3246,294.68169 193.3246,297.72253 C 193.3246,300.76337 204.84511,279.67902 206.71412,278.74452 C 208.7958,277.70368 212.32983,287.5864 212.83663,289.36023 C 213.34344,291.13405 223.22616,275.16965 223.98637,271.87541 C 224.95671,267.67062 230.57486,279.73091 230.57486,279.73091 C 230.57486,279.73091 240.20418,268.58117 238.93716,258.19164 C 238.16052,251.82316 245.27224,264.52672 245.27224,264.52672 C 245.27224,264.52672 252.11413,255.65761 253.38114,240.96022 C 253.38114,240.96022 257.94239,248.56232 257.94239,248.56232 C 260.98323,243.49426 266.33817,221.98503 258.95601,206.7508 C 254.14183,196.816 235.64291,190.7864 235.64291,190.7864 C 235.64291,190.7864 237.20458,173.8025 234.13737,173.21211 C 216.32019,169.7826 165.4532,177.07207 162.15601,175.83562 C 162.15601,175.83562 161.6492,191.0398 161.6492,191.0398 z " style="fill:#cf592b;fill-opacity:1;fill-rule:evenodd;stroke:#000000;stroke-width:3;stroke-linecap:butt;stroke-linejoin:round;stroke-opacity:1" id="path3547"/>
    <path d="M 258.27838,279.5857 C 258.27838,283.78478 254.5344,287.52347 249.51376,287.52347 C 244.49312,287.52347 241.41062,283.12331 241.41062,278.92423 C 241.41062,274.72515 245.81608,271.3172 250.83672,271.3172 C 255.85737,271.3172 258.27838,275.38662 258.27838,279.5857 z " style="opacity:1;color:#000000;fill:#de9e54;fill-opacity:1;fill-rule:evenodd;stroke:#794000;stroke-width:3;stroke-linecap:butt;stroke-linejoin:miter;marker:none;marker-start:none;marker-mid:none;marker-end:none;stroke-miterlimit:4;stroke-dasharray:none;stroke-dashoffset:0;stroke-opacity:1;visibility:visible;display:inline;overflow:visible" id="path3568"/>
    <path d="M 135.72182,119.19471 C 124.13308,116.87696 125.48716,100.11767 124.4228,91.691793 C 123.05916,80.896653 108.50508,81.584403 101.08253,84.428493 C 103.61658,80.188903 112.54434,68.204263 129.63773,69.652853 C 146.73112,71.101453 155.42267,85.297653 154.55351,97.176113" style="fill:#595891;fill-opacity:1;fill-rule:evenodd;stroke:#151342;stroke-width:3;stroke-linecap:butt;stroke-linejoin:round;stroke-opacity:1" id="path6163"/>
    <path d="M 143.83393,108.47513 C 144.41337,101.23216 143.83393,87.615403 133.69379,85.007933" style="fill:none;fill-opacity:0.75;fill-rule:evenodd;stroke:#171640;stroke-width:2.5;stroke-linecap:round;stroke-linejoin:miter;stroke-miterlimit:4;stroke-dasharray:none;stroke-opacity:1" id="path6165"/>
    <path d="M 125.63938,178.73339 C 116.23213,131.9911 153.13156,78.265043 207.23606,78.265043 C 235.62806,78.265043 269.27877,101.36826 269.27877,135.81279 C 269.27877,163.67086 267.58245,176.76693 267.58245,176.76693 C 219.37027,171.72563 170.07769,171.09683 125.63938,178.73339 z " style="fill:#1c1b47;fill-opacity:1;fill-rule:evenodd;stroke:#000000;stroke-width:3;stroke-linecap:butt;stroke-linejoin:miter;stroke-opacity:1" id="path3557"/>
    <path d="M 125.63938,178.73339 C 116.23213,131.9911 153.13156,78.265043 207.23606,78.265043 C 235.62806,78.265043 284.75627,92.979493 270.18454,174.68525 C 269.12812,178.07061 261.16037,173.71407 261.16037,173.71407 C 267.88197,135.4802 261.52476,92.165783 205.73714,92.433143 C 177.639,92.567803 134.07733,119.6031 137.34282,176.85158 C 137.34282,176.85158 129.47636,178.07402 125.63938,178.73339 z " style="fill:#de9e55;fill-opacity:1;fill-rule:evenodd;stroke:#000000;stroke-width:3;stroke-linecap:butt;stroke-linejoin:miter;stroke-opacity:1" id="path3597"/>
    <path d="M 313.73209,102.10323 C 311.44588,96.616333 285.98157,70.178773 270.75138,61.408723 C 254.14851,51.599543 197.59353,23.458893 197.59271,23.457663 C 201.70788,18.428003 223.19824,12.026623 223.19824,12.026623 C 223.19824,12.026623 267.09344,6.5397326 277.15276,11.569383 C 277.15276,11.569383 273.95206,23.457663 273.95206,23.457663 L 288.12656,14.312833 L 288.5838,21.628703 L 295.89967,20.714213 L 306.87347,36.260433 C 306.87347,36.260433 299.5576,42.204573 300.47208,43.119053 C 301.38657,44.033543 308.70243,42.661813 308.70243,42.661813 C 312.8176,44.490783 327.32298,82.077773 328.36382,88.843223" style="fill:none;fill-opacity:1;fill-rule:evenodd;stroke:#000000;stroke-width:3.5;stroke-linecap:round;stroke-linejoin:miter;stroke-miterlimit:4;stroke-dasharray:none;stroke-opacity:1" id="path12315"/>
    <path d="M 216.86334,202.21608 C 219.97551,202.66068 233.31336,197.99243 232.86876,186.87756 C 232.42417,175.76268 222.42078,177.09647 222.42078,177.09647 L 202.1917,187.98904 L 216.86334,202.21608 z " style="fill:#000000;fill-opacity:1;fill-rule:evenodd;stroke:#000000;stroke-width:1px;stroke-linecap:butt;stroke-linejoin:miter;stroke-opacity:1" id="path3601"/>
    <path d="M 236.46781,122.90631 C 236.46781,122.90631 234.27751,113.04995 240.84842,113.59753 C 247.41933,114.1451 245.41155,121.42622 244.13387,122.15632 C 242.85619,122.88642 254.90286,122.17621 251.61741,128.74712 C 248.33195,135.31803 237.01539,135.31803 235.73771,131.66752 C 235.18582,130.09068 177.14711,155.03075 177.14711,155.03075 C 177.14711,155.03075 178.6073,161.60166 175.32185,163.42692 C 172.0364,165.25217 164.91791,163.42692 167.10822,159.22884 C 170.11469,153.46645 166.07521,158.48201 163.27518,154.11813 C 160.92395,150.45368 165.63809,141.68287 175.13933,148.64237 L 236.46781,122.90631 z " style="fill:#ffffff;fill-opacity:1;fill-rule:evenodd;stroke:#000000;stroke-width:2.5;stroke-linecap:butt;stroke-linejoin:miter;stroke-miterlimit:4;stroke-dasharray:none;stroke-opacity:1" id="path7915"/>
    <path d="M 323.74901,330.44827 C 323.74901,333.1295 321.31592,335.30306 318.31455,335.30306 C 315.31317,335.30306 312.88008,333.1295 312.88008,330.44827 C 312.88008,327.76704 315.31317,325.59348 318.31455,325.59348 C 321.31592,325.59348 323.74901,327.76704 323.74901,330.44827 z " transform="translate(-118.3613,-143.6847)" style="opacity:1;color:#000000;fill:#f1c0ae;fill-opacity:1;fill-rule:evenodd;stroke:none;stroke-width:2.5;stroke-linecap:butt;stroke-linejoin:miter;marker:none;marker-start:none;marker-mid:none;marker-end:none;stroke-miterlimit:4;stroke-dasharray:none;stroke-dashoffset:0;stroke-opacity:1;visibility:visible;display:inline;overflow:visible" id="path19343"/>
    <path d="M 203.0809,186.65526 L 199.30184,179.09715 C 199.30184,179.09715 219.97551,161.53564 231.97957,159.31267 C 231.97957,159.31267 236.64782,172.65051 236.20322,174.65119 C 228.81953,174.31088 203.0809,186.65526 203.0809,186.65526 z " style="opacity:1;color:#000000;fill:#d1582d;fill-opacity:1;fill-rule:evenodd;stroke:#000000;stroke-width:3;stroke-linecap:butt;stroke-linejoin:miter;marker:none;marker-start:none;marker-mid:none;marker-end:none;stroke-miterlimit:4;stroke-dasharray:none;stroke-dashoffset:0;stroke-opacity:1;visibility:visible;display:inline;overflow:visible" id="path3603"/>
    <path d="M 154.04027,217.69299 C 153.43538,225.15329 161.63809,253.49307 205.25418,249.1472 C 242.40674,245.44535 249.61268,219.50766 243.16054,214.87018 C 242.15239,213.12402 172.99345,212.04736 154.04027,217.69299 z " style="fill:#ffffff;fill-opacity:1;fill-rule:evenodd;stroke:#000000;stroke-width:3;stroke-linecap:butt;stroke-linejoin:miter;stroke-opacity:1" id="path3611"/>
    <path d="M 204.24603,248.74394 L 203.84277,217.49136" style="fill:none;fill-opacity:0.75;fill-rule:evenodd;stroke:#000000;stroke-width:3;stroke-linecap:butt;stroke-linejoin:miter;stroke-opacity:1" id="path3614"/>
    <path d="M 227.2318,242.2918 L 223.40084,219.1044" style="fill:none;fill-opacity:0.75;fill-rule:evenodd;stroke:#000000;stroke-width:3;stroke-linecap:butt;stroke-linejoin:miter;stroke-opacity:1" id="path3616"/>
    <path d="M 171.58204,244.10646 L 173.19508,214.46692 L 191.34174,214.46692 L 185.89774,249.1472 L 171.58204,244.10646 z " style="fill:#000000;fill-opacity:1;fill-rule:evenodd;stroke:none;stroke-width:1px;stroke-linecap:butt;stroke-linejoin:miter;stroke-opacity:1" id="path3618"/>
    <path d="M 189.69243,205.50762 C 189.69243,205.50762 173.89481,197.60881 161.7833,204.45445 C 149.67178,211.30009 150.72496,218.84784 150.72496,218.84784 L 161.95882,217.9702 C 161.95882,217.9702 156.69295,229.73065 158.62377,230.95935 C 158.62377,230.95935 168.80446,223.76266 168.80446,223.76266 C 168.80446,223.76266 171.26187,232.36358 172.6661,230.60829 C 173.36822,226.57113 192.14984,209.89586 204.43688,211.65115 C 216.72392,213.40644 231.64391,229.20406 231.64391,229.20406 L 232.87261,221.30525 C 232.87261,221.30525 240.24484,221.83184 241.8246,225.51795 C 243.40436,229.20406 241.64907,213.23091 241.64907,213.23091 L 252.88294,213.40644 C 252.88294,213.40644 247.266,196.9067 228.65991,197.43328 C 210.05382,197.95987 189.69243,205.50762 189.69243,205.50762 z " style="fill:#cf592b;fill-opacity:1;fill-rule:evenodd;stroke:#000000;stroke-width:3;stroke-linecap:butt;stroke-linejoin:miter;stroke-opacity:1" id="path3605"/>
    <path d="M 187.80567,199.23393 C 188.88532,198.82906 197.13272,190.40276 201.38641,190.11826 C 209.10914,189.60173 216.20891,193.59511 217.75253,208.88501 C 219.08026,222.03647 208.41603,222.88975 208.41603,222.88975 C 203.74779,224.66813 182.26813,210.87324 193.74441,204.21676 C 200.10814,200.52566 204.19239,207.77352 204.19239,207.77352" style="fill:#f1c1ad;fill-opacity:1;fill-rule:evenodd;stroke:#000000;stroke-width:3;stroke-linecap:round;stroke-linejoin:miter;stroke-opacity:1" id="path3599"/>
    <path d="M 196.18701,184.97071 C 196.18701,184.97071 200.39971,190.58765 197.41571,196.73117 C 194.43172,202.87469 179.33621,208.66715 171.96398,199.01304 C 166.37136,191.68937 169.68211,178.12507 181.44256,177.94954 C 193.20302,177.77401 196.7136,185.4973 196.18701,184.97071 z " style="fill:#f0c1af;fill-opacity:1;fill-rule:evenodd;stroke:none;stroke-width:3;stroke-linecap:butt;stroke-linejoin:miter;stroke-opacity:1" id="path3607"/>
    <path d="M 170.64029,196.0247 C 174.26962,194.41166 192.73387,194.77851 196.76646,196.79481 C 196.76646,196.79481 197.88964,191.24492 197.88964,191.24492 C 196.47823,189.02699 178.23582,186.23878 170.97716,187.44856 C 167.30987,188.05977 170.64029,196.0247 170.64029,196.0247 z " style="fill:#f8f9f8;fill-opacity:1;fill-rule:evenodd;stroke:#000000;stroke-width:3.125;stroke-linecap:butt;stroke-linejoin:miter;stroke-miterlimit:4;stroke-dasharray:none;stroke-opacity:1" id="path3609"/>
    <path d="M 176.01789,187.76734 C 175.96897,189.75918 176.33405,191.8542 179.33761,192.26226 C 182.57592,192.70221 183.79583,190.55557 183.79792,188.22967 C 183.79792,188.22967 179.04233,187.70013 176.01789,187.76734 z " style="fill:#000103;fill-opacity:1;fill-rule:evenodd;stroke:none;stroke-width:1px;stroke-linecap:butt;stroke-linejoin:miter;stroke-opacity:1" id="path3620"/>
    <path d="M 86.186906,450.59995 C 92.740726,454.73921 131.02884,459.39587 170.52423,437.49232 C 170.52423,437.49232 173.62868,443.52873 173.62868,443.52873 C 168.10967,449.73761 126.88959,468.36426 85.497036,458.706 C 85.497036,458.706 86.186906,450.59995 86.186906,450.59995 z " style="fill:#9b4522;fill-opacity:1;fill-rule:evenodd;stroke:none;stroke-width:1px;stroke-linecap:butt;stroke-linejoin:miter;stroke-opacity:1" id="path1773"/>
    <path d="M 105.30008,310.18025 C 105.30008,310.18025 111.71485,313.81528 113.21162,320.44387 L 118.12961,319.58856 C 118.98491,315.52588 115.26654,306.33139 111.07337,306.33139 C 107.01068,307.61433 105.30008,310.18025 105.30008,310.18025 z " style="fill:#fefefe;fill-opacity:1;fill-rule:evenodd;stroke:#6a5d56;stroke-width:2.5;stroke-linecap:butt;stroke-linejoin:miter;stroke-miterlimit:4;stroke-dasharray:none;stroke-opacity:1" id="path2649"/>
    <path d="M 196.18701,184.97071 C 196.18701,184.97071 200.39971,190.58765 197.41571,196.73117 C 194.43172,202.87469 179.33621,208.66715 171.96398,199.01304 C 166.37136,191.68937 169.68211,178.12507 181.44256,177.94954 C 193.20302,177.77401 196.7136,185.4973 196.18701,184.97071 z " style="fill:none;fill-opacity:1;fill-rule:evenodd;stroke:#000000;stroke-width:3;stroke-linecap:butt;stroke-linejoin:miter;stroke-opacity:1" id="path3528"/>
    <path d="M 164.4443,175.13814 C 164.4443,175.13814 165.79204,166.62307 171.20577,163.15263 C 175.90939,163.4466 194.66735,176.11062 197.3697,180.79123 C 196.57674,183.41249 195.64313,183.49296 193.54799,188.14064 C 190.60823,183.73099 177.96723,177.78393 164.4443,175.13814 z " style="fill:#d1582d;fill-opacity:1;fill-rule:evenodd;stroke:#000000;stroke-width:3;stroke-linecap:butt;stroke-linejoin:miter;stroke-opacity:1" id="path3559"/>
    <path d="M 197.70904,255.22878 C 197.70904,255.22878 201.7339,256.17581 206.23228,256.17581 C 210.73066,256.17581 216.17606,254.045 216.17606,254.045" style="fill:none;fill-opacity:0.75;fill-rule:evenodd;stroke:#000000;stroke-width:3;stroke-linecap:round;stroke-linejoin:miter;stroke-opacity:1" id="path5278"/>
    <path d="M 186.92262,340.22447 C 186.28563,340.52509 186.19127,344.11716 187.05498,344.51404 C 187.33771,344.64396 194.68711,345.53751 194.68711,344.11697 C 194.68711,342.69643 195.84293,340.46122 194.42239,339.98771 C 193.00185,339.5142 188.36583,339.54338 186.92262,340.22447 z " style="fill:#de9e55;fill-opacity:1;fill-rule:evenodd;stroke:none;stroke-width:1px;stroke-linecap:butt;stroke-linejoin:miter;stroke-opacity:1" id="path6153"/>
    <path d="M 203.95957,340.52524 C 202.64025,341.58069 202.11253,343.42774 203.95957,343.95548 C 205.80663,344.48319 207.91754,343.95548 207.91754,341.84456 C 207.91754,339.73365 205.54275,340.26138 203.95957,340.52524 z " style="fill:#de9e55;fill-opacity:1;fill-rule:evenodd;stroke:none;stroke-width:1px;stroke-linecap:butt;stroke-linejoin:miter;stroke-opacity:1" id="path6155"/>
    <path d="M 103.42778,442.48344 C 103.4892,441.68508 106.53272,432.2723 111.97808,431.6776 C 111.97808,431.6776 110.97968,426.16811 110.97968,426.16811 C 108.46178,426.53658 99.496946,433.09143 99.324456,442.31997 C 99.324456,442.31997 103.42778,442.48344 103.42778,442.48344 z " style="fill:#9e9591;fill-opacity:1;fill-rule:evenodd;stroke:none;stroke-width:1px;stroke-linecap:butt;stroke-linejoin:miter;stroke-opacity:1" id="path6157"/>
    <path d="M 105.05743,438.43707 C 106.45773,435.46334 108.6452,432.04159 111.97808,431.6776 C 111.97808,431.6776 110.97968,426.16811 110.97968,426.16811 C 108.92679,426.46853 102.34271,431.61825 99.978046,438.23957 C 99.442406,439.73941 105.05743,438.43707 105.05743,438.43707 z " style="fill:#fefefe;fill-opacity:1;fill-rule:evenodd;stroke:none;stroke-width:1px;stroke-linecap:butt;stroke-linejoin:miter;stroke-opacity:1" id="path6161"/>
    <path d="M 169.84609,128.5646 C 158.71205,135.13551 156.33923,117.24803 167.29075,120.53349 C 165.44445,114.63194 171.77047,112.82481 175.32185,114.8752 C 179.27364,117.15677 176.59953,123.45389 176.59953,123.45389 C 179.51993,124.18399 237.19791,147.72975 237.19791,147.72975 C 237.19791,147.72975 241.58732,144.04943 245.22903,146.81712 C 249.79215,150.2851 243.40377,154.48318 243.40377,154.48318 C 251.61741,162.69682 233.18236,166.71237 235.55518,155.03075 C 235.55518,155.03075 169.84609,128.5646 169.84609,128.5646 z " style="fill:#ffffff;fill-opacity:1;fill-rule:evenodd;stroke:#000000;stroke-width:2.5;stroke-linecap:butt;stroke-linejoin:miter;stroke-miterlimit:4;stroke-dasharray:none;stroke-opacity:1" id="path7919"/>
    <path d="M 188.03866,151.58315 C 187.26427,148.48559 190.20396,141.75007 188.03866,141.25796 C 180.03664,136.61163 176.39066,105.07006 206.36587,105.63607 C 235.26394,106.18174 227.5325,142.03236 215.65853,142.03235 C 213.36663,142.81331 217.46544,152.99544 214.62602,153.25357 C 213.94584,153.3154 210.53192,153.6348 208.12599,153.80995 C 207.79468,153.83407 207.87335,146.83133 207.47222,144.63578 C 207.47222,144.63578 207.19142,144.63857 207.19142,144.63857 C 206.63185,147.38598 206.61032,153.68691 206.29515,153.70545 C 203.49133,153.87038 201.34426,154.24278 198.36304,154.16151 C 197.85206,154.14759 197.33244,144.67609 197.33244,144.67609 C 197.33244,144.67609 196.03272,153.7925 195.51473,153.75539 C 191.63998,153.47783 188.57963,152.84541 188.03866,151.58315 z " style="fill:#ffffff;fill-opacity:1;fill-rule:evenodd;stroke:#000000;stroke-width:3;stroke-linecap:butt;stroke-linejoin:miter;stroke-opacity:1" id="path7913"/>
    <path d="M 201.78801,118.89076 C 201.78801,118.89076 197.04236,119.43833 196.85983,125.46166 C 196.72858,129.66166 197.40741,133.6753 199.23266,133.85783 C 201.08482,134.04305 204.16084,128.74712 204.34336,123.81894 C 204.52589,118.89076 202.51811,118.89076 201.78801,118.89076 z " style="fill:#000000;fill-opacity:1;fill-rule:evenodd;stroke:none;stroke-width:1px;stroke-linecap:butt;stroke-linejoin:miter;stroke-opacity:1" id="path7921"/>
    <path d="M 210.37447,117.24804 C 210.37447,117.24804 206.53367,116.51792 206.35114,122.54125 C 206.21989,126.74125 207.78272,131.45664 210.73175,131.11995 C 212.55528,130.91176 213.83468,128.92964 214.0172,124.00146 C 214.19973,119.07328 211.10457,117.24804 210.37447,117.24804 z " style="fill:#000000;fill-opacity:1;fill-rule:evenodd;stroke:none;stroke-width:1px;stroke-linecap:butt;stroke-linejoin:miter;stroke-opacity:1" id="path7923"/>
    <path d="M 197.6418,182.98344 C 197.6418,182.98344 208.43853,181.82665 206.51054,171.80112 L 189.60784,171.80112 C 194.60784,175.30112 197.6418,182.98344 197.6418,182.98344 z " style="fill:#f1c0ae;fill-opacity:1;fill-rule:evenodd;stroke:#000000;stroke-width:2.5;stroke-linecap:butt;stroke-linejoin:miter;stroke-miterlimit:4;stroke-dasharray:none;stroke-opacity:1" id="path12317"/>
    <path d="M 96.638726,151.6775 C 96.638726,151.6775 81.138726,134.9275 95.888726,117.6775 C 110.63873,131.9275 96.638726,151.6775 96.638726,151.6775 z " style="fill:#dc55df;fill-opacity:1;fill-rule:evenodd;stroke:#000000;stroke-width:2.5;stroke-linecap:butt;stroke-linejoin:miter;stroke-miterlimit:4;stroke-dasharray:none;stroke-opacity:1" id="path13196"/>
    <path d="M 71.138726,184.9275 C 71.138726,184.9275 66.888726,181.1775 66.388726,176.4275 C 65.888726,171.6775 70.138726,163.6775 79.388726,164.1775 C 88.638726,164.6775 79.388726,180.9275 79.388726,180.9275 L 71.138726,184.9275 z " style="fill:#ffffff;fill-opacity:1;fill-rule:evenodd;stroke:#000000;stroke-width:2.5;stroke-linecap:butt;stroke-linejoin:miter;stroke-miterlimit:4;stroke-dasharray:none;stroke-opacity:1" id="path13200"/>
    <path d="M 89.888726,179.9275 C 86.388726,179.6775 79.138726,180.4275 79.138726,171.9275 C 79.138726,164.67319 84.917976,161.18168 90.138726,161.9275 C 95.388726,162.6775 99.638726,165.9275 99.388726,171.6775 C 99.214636,175.68152 97.138726,179.9275 89.888726,179.9275 z " style="fill:#ffffff;fill-opacity:1;fill-rule:evenodd;stroke:#000000;stroke-width:2.5;stroke-linecap:butt;stroke-linejoin:miter;stroke-miterlimit:4;stroke-dasharray:none;stroke-opacity:1" id="path13198"/>
    <path d="M 100.0868,152.06397 C 100.0868,152.06397 109.38873,149.1775 113.13873,146.6775 C 116.88873,144.1775 119.63873,139.9275 117.13873,138.9275 C 114.63873,137.9275 109.38873,138.6775 104.38873,143.1775 C 99.388726,147.6775 99.586793,149.81397 100.0868,152.06397 z " style="fill:#7370fe;fill-opacity:1;fill-rule:evenodd;stroke:#000000;stroke-width:2.5;stroke-linecap:butt;stroke-linejoin:miter;stroke-miterlimit:4;stroke-dasharray:none;stroke-opacity:1" id="path13202"/>
    <path d="M 95.138726,151.4275 C 95.138726,151.4275 90.894406,143.4275 85.388726,143.4275 C 78.388726,143.4275 75.138726,146.4275 75.138726,147.9275 C 75.138726,147.9275 82.495676,147.04869 87.638726,151.4275 C 93.323966,156.26793 95.138726,151.4275 95.138726,151.4275 z " style="fill:#fc3939;fill-opacity:1;fill-rule:evenodd;stroke:#000000;stroke-width:2.5;stroke-linecap:butt;stroke-linejoin:miter;stroke-miterlimit:4;stroke-dasharray:none;stroke-opacity:1" id="path13204"/>
    <path d="M 86.783846,211.69359 C 86.783846,211.69359 95.127766,213.85034 102.88873,207.9275 C 112.38873,200.6775 111.74306,185.52854 93.638726,180.6775 C 76.299076,176.03136 62.779236,187.39466 63.888726,202.9275 C 64.888726,216.9275 75.388726,226.4275 80.138726,226.9275 C 80.138726,226.9275 81.388726,208.6775 100.13873,201.4275" style="fill:#de9e54;fill-opacity:1;fill-rule:evenodd;stroke:#000000;stroke-width:3;stroke-linecap:round;stroke-linejoin:miter;stroke-opacity:1" id="path13194"/>
    <path d="M 73.888726,196.6775 C 75.138726,196.4275 76.138726,194.6775 74.388726,194.1775 C 72.638726,193.6775 70.763726,194.4275 71.513726,195.6775 C 72.263726,196.9275 74.138726,196.6775 73.888726,196.6775 z " style="fill:#010000;fill-opacity:1;fill-rule:evenodd;stroke:#000000;stroke-width:1px;stroke-linecap:butt;stroke-linejoin:miter;stroke-opacity:1" id="path13206"/>
    <path d="M 77.802492,194.88873 C 76.910992,194.06501 80.309882,190.37411 80.927492,191.76373 C 81.427492,192.88873 80.009672,196.92808 77.802492,194.88873 z " style="fill:#010000;fill-opacity:1;fill-rule:evenodd;stroke:#000000;stroke-width:1px;stroke-linecap:butt;stroke-linejoin:miter;stroke-opacity:1" id="path13208"/>
    <path d="M 212.5,315.11218 C 212.5,315.80254 212.05228,316.36218 211.5,316.36218 C 210.94772,316.36218 210.5,315.80254 210.5,315.11218 C 210.5,314.42182 210.94772,313.86218 211.5,313.86218 C 212.05228,313.86218 212.5,314.42182 212.5,315.11218 z " transform="matrix(0.868251,0.496127,-0.496127,0.868251,66.08933,-206.8495)" style="opacity:1;color:#000000;fill:#fc3939;fill-opacity:1;fill-rule:evenodd;stroke:#000000;stroke-width:2.5;stroke-linecap:butt;stroke-linejoin:bevel;marker:none;marker-start:none;marker-mid:none;marker-end:none;stroke-miterlimit:4;stroke-dasharray:none;stroke-dashoffset:0;stroke-opacity:1;visibility:visible;display:inline;overflow:visible" id="path14958"/>
    <path d="M 212.5,315.11218 C 212.5,315.80254 212.05228,316.36218 211.5,316.36218 C 210.94772,316.36218 210.5,315.80254 210.5,315.11218 C 210.5,314.42182 210.94772,313.86218 211.5,313.86218 C 212.05228,313.86218 212.5,314.42182 212.5,315.11218 z " transform="matrix(0.779419,0.445367,-0.445367,0.779419,50.63233,-165.6218)" style="opacity:1;color:#000000;fill:#fc3939;fill-opacity:1;fill-rule:evenodd;stroke:#000000;stroke-width:2.78493047;stroke-linecap:butt;stroke-linejoin:bevel;marker:none;marker-start:none;marker-mid:none;marker-end:none;stroke-miterlimit:4;stroke-dasharray:none;stroke-dashoffset:0;stroke-opacity:1;visibility:visible;display:inline;overflow:visible" id="path14960"/>
    <path d="M 110.39157,231.89512 C 109.1608,232.12589 106.31691,235.15484 106.45274,238.55038 C 106.58856,241.94593 109.305,245.47729 111.74979,244.25489 C 114.19458,243.0325 114.87369,239.09367 115.00951,236.7847 C 115.14533,234.47574 114.73786,231.08019 110.39157,231.89512 z " style="fill:#e3a255;fill-opacity:1;fill-rule:evenodd;stroke:#000000;stroke-width:2.5;stroke-linecap:butt;stroke-linejoin:miter;stroke-miterlimit:4;stroke-dasharray:none;stroke-opacity:1" id="path17595"/>
    <path d="M 117.99759,229.20155 C 116.76682,229.43232 114.3304,233.2762 114.46623,236.67174 C 114.60205,240.06729 115.96027,244.00611 118.40506,242.78371 C 120.84985,241.56132 122.47971,237.35085 122.61553,235.04188 C 122.75135,232.73292 122.34388,228.38662 117.99759,229.20155 z " style="fill:#e3a255;fill-opacity:1;fill-rule:evenodd;stroke:#000000;stroke-width:2.5;stroke-linecap:butt;stroke-linejoin:miter;stroke-miterlimit:4;stroke-dasharray:none;stroke-opacity:1" id="path17593"/>
    <path d="M 129.54243,235.83394 C 129.54243,235.83394 128.58851,240.28191 126.01107,240.5877 C 123.84885,240.84424 121.25731,238.82202 121.52895,233.6608 C 121.8006,228.49958 123.21864,227.63611 125.12014,227.22865 C 127.02165,226.82118 127.77675,226.73389 128.0484,231.62347 C 128.32004,236.51306 129.81407,236.10559 129.54243,235.83394 z " style="fill:#e3a255;fill-opacity:1;fill-rule:evenodd;stroke:#000000;stroke-width:2.5;stroke-linecap:butt;stroke-linejoin:miter;stroke-miterlimit:4;stroke-dasharray:none;stroke-opacity:1" id="path17591"/>
    <path d="M 137.55591,223.88163 C 134.56783,222.3876 128.7881,223.07079 128.45586,227.54882 C 128.16371,231.48648 128.99508,237.00462 132.12304,236.7847 C 136.59151,236.47053 134.99323,231.56967 137.55591,223.88163 z " style="fill:#e3a255;fill-opacity:1;fill-rule:evenodd;stroke:#000000;stroke-width:2.5;stroke-linecap:butt;stroke-linejoin:miter;stroke-miterlimit:4;stroke-dasharray:none;stroke-opacity:1" id="path17589"/>
  </g>
</svg>