<?xml version="1.0" encoding="UTF-8"?>
<svg viewBox="0 0 391.81476 599.28302" xmlns="http://www.w3.org/2000/svg">
 <defs>
  <linearGradient id="a" x1="347.18" x2="439.64" y1="388.19" y2="761.79" gradientUnits="userSpaceOnUse">
   <stop stop-color="#d38d5f" offset="0"/>
   <stop stop-color="#a05a2c" offset="1"/>
  </linearGradient>
 </defs>
 <g transform="translate(-156.75 -267.87)">
  <path d="m486.94 267.88c-17.415 0.32127-30.988 11.909-41.562 24.469-9.1206 10.833-16.212 22.961-21.312 32.781-6.8402-0.61967-13.458-0.45193-19.969 0a10.245 10.245 0 0 0 -4.6875 -6.0625c1.6793-1.7143 3.3547-3.52 4.9375-5.5625a10.245 10.245 0 0 0 -12.969 -15.281c-17.564 9.5403-33.857 20.153-46.375 33.562-1.8819-2.9422-4.0454-6.0777-6.5312-9.375-9.0865-12.052-22.092-26.012-40.188-31.062-17.359-4.8444-40.999-3.4652-60.938 10s-34.261 39.735-31.406 79.344c2.9569 41.026 29.797 65.302 55.906 75.281 13.055 4.9894 25.966 6.8032 36.906 5.9375 3.3061-0.26163 6.4024-0.88109 9.375-1.7188 0.83643 2.7846 1.6843 5.3737 2.5938 7.4688 2.2146 5.1015 4.033 8.0286 6.4688 15.031 0.91671 2.6355 1.0378 3.8224 1.0938 4.5938a10.245 10.245 0 0 0 -0.0312 17.375l-1.125 3.5625a10.245 10.245 0 0 0 14.25 12.312c2.5014 6.7999 4.0495 15.335 4.0312 15.469-1.8762 13.759-3.689 17.361-9.3438 26.375s-15.159 22.448-29.625 50.312c-17.056 32.854-11.062 72.125-11.062 72.125a10.245 10.245 0 0 0 2.4688 5.4062l-0.875 3.3125a10.245 10.245 0 0 0 6.5625 12.281l0.4375 6.9375a10.245 10.245 0 0 0 13.719 9l1.2188 1.9062a10.245 10.245 0 0 0 0 0.0312c0.54183 0.84661 1.2005 1.5847 1.8125 2.375-3.4818 7.5178-8.2703 16.627-13.656 25.406-6.7045 10.929-14.473 21.112-17.031 23.375-0.92956 0.8223-3.5094 1.4764-7.625 0.90625s-8.1374-2.0412-11.438-3.0312c2.7082 0.81247 0.28035 0.0543-1.4062-0.96875s-4.036-2.5509-6.75-4.3438c-5.428-3.5857-12.373-8.3563-19.219-13.219s-13.636-9.838-18.719-13.781c-2.5412-1.9716-4.6694-3.6875-6.0625-4.9062-0.56032-0.4902-0.86603-0.80949-1.125-1.0625-1.4128-2.7559-3.2842-6.1212-5.0938-9.9375-2.002-4.2223-3.5844-8.8938-3.75-10.219-0.68948-5.5159-2.5958-12.983-3.4688-20.938s0.77888-15.191 0.875-15.312c1.8203-2.2994 3.6413-4.4048 5.3438-6.375 1.9124 8.4505 3.2384 14.242 5.9688 19.156 2.5558 4.6005 5.0995 7.9751 11 11.25 1.4751 0.81872 3.2915 1.6834 6.1562 1.875s7.2167-1.1236 9.6875-3.8438c4.9417-5.4403 3.756-9.8643 3.125-14.281-0.65353-4.5747-0.37863-15.763-0.625-26.281-0.12319-5.2592-0.39386-10.461-1.3125-15.406s-2.0086-10.117-7.125-14.594c-5.8559-5.1239-13.681-6.7236-19.688-5.9062s-10.597 3.107-14.281 4.7188c-7.9702 3.487-12.854 9.4632-18.875 16.562s-11.704 15.002-15.375 22.062c-3.9929 7.6786-3.6404 15.121-3.3125 22.031s1.3195 12.879 1.9062 15.812c-3e-3 -0.0152 0.48409 3.447 1.0938 7.4688s1.4674 9.1447 2.7188 14.75c2.5026 11.211 6.2567 24.253 14.031 34.719 2.0332 2.7369 3.5801 3.88 5.9688 5.875s5.3325 4.269 8.7188 6.8125c6.7726 5.0869 15.315 11.147 24.094 17.125s17.788 11.889 25.531 16.625 13.325 8.1501 18.969 10.031c16.19 5.3967 36.259 2.0383 50.719-13 1.6939-1.7616 6.8124-7.2899 9.8438-10.531 0.17067 7.2089 0.2848 12.243 0.5625 17.594-1.5153 0.0392-3.1231 0.21255-4.8438 0.5625-3.2918 0.6695-7.5433 2.169-10.625 6.4062-3.4608 4.7586-3.3229 8.3564-3.4688 12.094s0.15793 7.5623 0.75 11.281 1.4281 7.2497 2.7188 10.562c0.64531 1.6564 1.3641 3.2586 2.625 5.0312s3.1705 4.3399 7.6875 5.3438c4.1463 0.92141 7.2014-0.31654 9.5625-1.625 2.1745 2.2114 5.7781 4.7188 10.594 4.7188 4.8643 0 8.559-2.5754 10.688-4.6875 1.8863-1.8718 3.0259-3.6297 3.9688-5.1875 0.61271 1.4517 1.3448 2.9824 2.6875 4.6875 1.8891 2.3991 5.6036 5.2836 10.188 5.625 9.2277 0.68728 16.225-4.8647 20.562-10.719s6.9688-12.74 6.9688-20.25c0-4.9871-0.0965-11.675-1.8438-18.5s-6.053-15.425-15.406-18.188c-5.5309-1.6333-10.786 0.29653-14.062 2.375s-5.5379 4.4683-7.5 6.6562c-0.60932 0.67945-0.90015 1.0557-1.4375 1.6875-1.8307-17.013 0.8499-34.69 4.5937-53.156 2.3324-2.5309 4.1895-4.5158 5.8125-6.2812 17.894 3.4125 39.219 4.5471 63.562 2.3438 0.2474 8.2068-0.35253 19.097-2.0312 29.906-2.4565 15.817-7.1147 31.899-11.219 39.156-4.1495 7.3375-1.8503 14.896 2.2188 19.969s12.221 8.8965 20.125 6c0.57326-0.21008 12.21-2.1394 22.938-2.625s22.557-0.0939 26.781 0.71875c7.0578 1.3578 9.5534-1.3331 11.844-2.6562s4-2.6875 4-2.6875c-0.0388 0.0566-0.0693 0.12282-0.0937 0.125-0.0453 4e-3 -0.13122-1.1565 2.5938 2.5938 3.2333 4.4498 8.5619 5.8337 12.438 5.6562s7.1731-1.4731 10.188-3.4375c6.0288-3.9287 11.083-11.511 10.812-20.875-0.38533-13.333-2.649-25.542-12.75-33.156-5.0505-3.8074-13.07-4.8186-19.281-2.1875s-11.033 7.4781-15.812 14.25c0.19947-0.28263-2.5826 2.0818-7.2188 3.5938s-10.78 2.6463-16.688 3.1562c-5.7988 0.50058-11.415 0.40662-15.094-0.125 0.12204-1.4389 0.056-1.3848 0.40625-3.5 0.79142-4.7796 2.0063-11.072 3.2812-18.281 2.253-12.74 4.5583-28.474 4.9375-45.094 11.565-6.2966 20.764-15.144 28.062-24.812 0.20791-0.0675 0.45351-0.12084 0.65625-0.1875 3.5335-1.1619 6.808-2.4355 9.6875-3.75 1.9079-0.87097 3.6551-1.7315 5.2188-2.625 0.7371-0.4212 1.4535-0.89861 2.1562-1.375v0.0312c0.69461-0.46924 1.318-0.96274 1.9375-1.4375 0.6519-0.49964 1.2862-1.0016 1.875-1.5l0.4375-0.375c1.0585-0.91541 2.0605-1.8594 3-2.7812 5e-3 -5e-3 0.0265 5e-3 0.0312 0 0.46401-0.45492 0.9757-0.95538 1.5312-1.5312a10.245 10.245 0 0 0 0 -0.0312l0.28125-0.3125 0.21875-0.21875c0.7759-0.81065 1.5565-1.6376 2.3438-2.5312 3.0851-3.5016 4.7616-5.8269 5.25-6.5 0.11401-0.11524 0.13047-0.1353 0.40625-0.40625a10.245 10.245 0 0 0 0.0312 -0.0312l0.28125-0.28125a10.245 10.245 0 0 0 0.0312 -0.0312c0.011-0.0102-0.0104-0.0215 0-0.0312 0.0415-0.0388 0.1409-0.11372 0.1875-0.15625 0.0352-0.033 0.12546-0.12541 0.125-0.125 0.41969-0.37696 0.92279-0.78027 1.5938-1.2812 0.0959-0.0717 0.12218-0.0835 0.0937-0.0625 0.90063-0.66564 1.9077-1.3075 2.8125-1.7188 6.6262-3.0119 9.1099-8.2662 10.75-12.219s2.3057-7.4974 2.5625-8.7812c1.1807-5.9036-1.1595-8.0447-2.2812-9.6562s-2.2139-2.7351-3.2812-3.7812c-1.3929-1.3652-2.4613-2.1782-3.625-3.125-0.45388-2.3783-1.0227-5.6925-1.5-9.75-0.8835-7.5098-4.3254-13.291-9.0625-20.719s-10.887-15.214-18.375-21.219c-0.54158-0.4343-1.1032-0.84843-1.6875-1.2812-2.2759-1.686-4.7-3.2186-7.3438-4.4688l-0.34375-0.15625c-11.232-27.553-22.265-49.867-28.531-62.219 5.1982-1.2646 9.9268-2.8405 14.375-4.5938a10.245 10.245 0 0 0 9.2812 4.8438l8.4688-0.46875a10.245 10.245 0 0 0 2.625 -0.5l6.2812-0.5a10.245 10.245 0 0 0 9.4375 -10.375l-0.3125-21.125c2.2547-3.1455 4.4373-6.4365 6.4688-9.9062 0.37914-0.0136 0.74525 0.0629 1.125 0.0312 13.017-1.0848 22.989-10.63 24.625-22.844 0.90244-6.7387-0.53244-13.223-3.8438-19.25s-9.8399-12.375-18.969-12.375c-2.6295 0-5.1307 0.24792-7.5 0.75-2.7693-2.1545-5.6522-4.3354-7.9688-6.4062-1.3893-1.2419-2.4366-2.4197-3.4062-3.5 0.41603-1.5637 0.77409-3.1302 0.96875-4.6875 0.22803-1.8242 0.0811-3.4978-0.0312-5.1875 9.1266-4.704 17.314-11.864 24.281-20.062 9.0429-10.641 16.046-22.961 18.406-35.531 3.2475-17.299 1.2217-37.362-7.0312-55s-23.683-33.026-45.938-37c-2.4279-0.43354-4.8468-0.60568-7.1875-0.5625zm18.219 218.84c0.20833 0.0625 0.625 0.20833 0.625 0.21875-0.0346 0.0127-0.5936-0.21055-0.625-0.21875zm9.375 211.34c-0.25105 0.72535-0.94929 2.9196-0.71875 2.1875 1.5e-4 -3.3e-4 -0.76273 1.1851-1.25 1.9375 0.23982-0.50661 0.76131-1.6161 1.3125-2.7812 0.268-0.56653 0.64915-1.3286 0.65625-1.3438z"/>
  <path d="m325.48 713.67c1.8868 8.4908-26.416 58.021-38.68 68.87-8.5381 7.553-24.057 1.4151-28.774 0s-56.605-37.737-58.964-42.454-9.4342-16.982-10.378-24.529-8.2072-34.098-0.47171-43.869c8.9625-11.321 18.397-23.586 21.699-9.4342s4.2454 19.34 6.604 23.586 12.736 14.623 10.849 1.4151 1.8868-43.397-5.6605-50.001-15.566-2.8303-23.114 0.47171-23.114 22.17-29.246 33.963c-4.2255 8.126-1.4151 26.416-0.47172 31.133s3.7737 36.322 16.038 52.832c5.1868 6.9822 65.568 48.586 78.304 52.832s28.303 1.8868 40.096-10.378 66.04-71.228 66.04-71.228z" fill="#d38d5f"/>
  <path d="m446 719.62c-3.7737 3.7737-18.875 12.719-18.875 12.719 15.111-0.68686 7.3328 70.186-6.5938 94.812-2.9372 5.1937 3.1311 13.795 9.9062 11.312 8.4088-3.0815 42.521-4.7805 55.188-2.3438 2.6966 0.51878 7.5312-3.3125 7.5312-3.3125s8.6319-7.0127 17.156 4.7188c3.1001 4.2665 15.234-1.0104 14.906-12.344-0.67274-23.278-12.687-38.894-29.219-15.469-8.7589 12.411-55.617 14.872-58.031 6.5938-1.5026-10.308 13.5-55.035 8.0312-96.688zm-108.03 12.719c-11.571 38.748-5.9885 73.73-6.125 91.5 0 0-14.164-3.7513-17.938 1.4375s5e-3 27.338 4.25 28.281 9.9062-8.4688 9.9062-8.4688 2.8424 11.312 8.0312 11.312 8.0164-10.841 10.375-11.312 9.4286-2.8273 10.844-0.46875 2.3558 11.899 7.0625 12.25c8.8159 0.65661 16.531-11.316 16.531-20.75s-0.7459-24.17-9.9062-26.875c-7.54-2.2266-15.573 13.653-18.875 14.125s-9.9062-2.3438-9.9062-2.3438c-6.0157-28.925 1.552-57.878 7.5312-86.812l-11.781-1.875z" fill="#c87137"/>
  <path d="m424.94 347.24s30.02-75.382 67.377-68.711 50.334 50.015 44.696 80.052c-4.8958 26.08-39.359 61.373-61.373 50.7s-50.7-62.04-50.7-62.04z" fill="#d38d5f"/>
  <path d="m428.31 332.53 27.831-8.0191-10.378 12.265s8.9625-1.4151 20.284 0.47171 35.378 18.868 35.378 18.868-12.265-1.8868-27.359-2.3586c16.038 1.8868 28.774 18.397 28.774 18.397l-20.284 0.4717c7.4516-0.67742 12.971 29.611 12.736 31.605-0.73738 6.2501 11.321-0.94343 11.321-0.94343l-46.699 23.114z" fill="#a05a2c"/>
  <path d="m343.56 349.9c11.442-17.294 30.638-30.711 52.701-42.694-7.6466 9.8672-23.435 18.571-20.013 30.02 4.0224-8.201 10.856-9.1826 18.012-9.3394l-4.6697 8.6723c15.578-1.5067 25.566-2.7714 39.359-0.6671 2.3766-3.3355 15.26-6.671 24.016-10.007-5.0671 4.225-14.019 8.45-12.675 12.675 20.119-1.6514 37.446 5.0729 54.035 14.009-12.932-1.2406-28.518-3.8078-31.354 0 16.618 1.2254 25.349 7.709 31.354 16.01l-20.013 0.66711s6.0039 7.3381 12.008 20.68 2.0013 28.685 5.3368 37.358 33.355 28.685 33.355 28.685c-19.239 40.724-29.763 61.456-77.384 68.711 0 0 44.696 85.389 50.033 123.41 3.4618 24.665-16.01 89.392-72.714 94.728s-96.73-8.0052-107.4-24.683l-10.674-16.678-2.6684 10.674-1.3342-21.347-6.0039 5.3368 4.0026-15.343-5.3368 2.6684s-4.9605-37.213 10.007-66.043c28.493-54.884 36.023-50.7 40.026-80.052 1.3992-10.261-10.674-34.689-10.674-34.689l-8.0052 8.6723 5.3368-16.678-8.6723 1.3342s8.6723-1.3342 3.3355-16.678-8.6723-14.676-12.008-36.023c-5.3368 18.679-93.394 10.674-98.731-63.375-5.3336-74.003 50.7-86.723 79.385-78.718s48.031 48.698 48.031 48.698z" fill="url(#a)"/>
  <path d="m491.72 299.94c-4.5217 0.0549-9.583 1.2315-14.75 4.5938-12.005 7.812-14.501 31.117-17.17 33.786l6.5135-4.4108 27.344-2-24.031-6.6875c13.547-25.92 29.398-18.853 39.375-20 0 0-7.3335-5.402-17.281-5.2812zm-204.41 24.625c-1.3064 0.0113-2.5721 0.14046-3.8125 0.40625-6.604 1.4151-22.656 10.406-22.656 10.406s22.812-8.0594 33.031-3.7812c12.708 5.3203 25.372 23.778 25.469 32.531l-19.812-2.8125 24.062 8.9688-8.0312 33.469s12.727-23.105 14.625-35.375c2.5957-16.779-23.278-43.982-42.875-43.812zm190.34 101.72c-14.082 0.24916-38.706 3.4197-45.375 7.3438-3.7812 2.2248-7.3438 10.344-7.3438 10.344 20.951-5.6078 56.114-14.083 68.375-10l-5.6562-6c0.63583-1.3014-3.599-1.8008-10-1.6875zm-99.812 77.469s21.116 40.361 34.906 50c14.573 10.186 35.867 3.5684 48.479-2.0625-7.6383-15.882-13.438-27-13.438-27-24.913 0.43044-48.659-7.8557-69.948-20.938z" fill="#a05a2c"/>
  <path d="m459.63 425.95c1.5335-8.4512-1.3342-24.016-9.3394-24.016s-13.342 15.343-12.675 20.68 6.0039 15.343 10.674 16.01 10.329-7.0968 11.341-12.675z"/>
  <path d="m474.25 423.29c-2.2863-8.2794 1.3342-24.016 9.3394-24.016s11.341 15.343 10.674 20.68-3.3355 12.008-8.0052 12.675-10.658-4.4516-12.008-9.3394z"/>
  <path d="m522.34 445.3c-16.01 0-17.345 11.341-16.678 20.013s6.0039 14.676 14.009 14.009 14.424-7.1448 15.343-14.009c1.0481-7.8265-3.9912-20.013-12.675-20.013z"/>
  <path d="m477.12 499.58c10.227-1.5716 24.074-3.5565 25.545-2.9112l0.33355 24.016-6.7535 0.53219-1.8868-5.1888v5.6605l-8.4908 0.47172-3.5046-21.55z" fill="#fff" stroke="#000" stroke-linejoin="round" stroke-width="3"/>
  <path d="m521.41 449.8c-5.5753 2.1613-4.509 6.2906-3.1059 9.2205s4.072 4.3002 6.7696 2.9872 4.0584-4.4352 3.4518-6.9497c-0.69155-2.8669-4.0915-6.4303-7.1154-5.2581z" fill="#fff"/>
  <path d="m405.67 639.14s19.812-28.303 32.548-33.963 34.269-8.4084 49.058-1.4151c15.098 7.139 29.718 31.605 30.661 39.624s2.3586 14.151 2.3586 14.151 8.9625 6.604 8.4908 8.9625-2.3586 11.321-7.5474 13.68-8.9625 6.604-8.9625 6.604-8.6 11.99-16.51 16.51c-9.906 5.6605-34.907 14.151-50.945 6.604s-35.85-25.944-38.68-41.039-8.9625-12.736-8.9625-12.736v-15.095z" fill="#917c6f"/>
  <path d="m331.55 614.41s6.0039 23.349 9.0059 26.684 36.357 12.341 42.694 11.007 18.012-6.3375 21.014-9.3394 4.9865-10.145 8.3388-11.341c4.9672-1.7722 10.34-4.3362 14.009-4.6697s8.6723 0.33355-0.6671 3.002-16.678 6.3375-18.012 9.3394-4.6697 7.0046-4.6697 7.0046 10.007-5.6704 12.341-6.0039 9.673-1.3342 14.009-1.0006 6.671 2.3348 0.6671 4.0026-11.747-1.1183-17.345 0.33356c-3.8997 1.0115-9.3394 4.3362-10.674 5.6704s-4.3362 4.6697-0.6671 4.6697 10.71 9e-3 16.01 0.6671c5.5559 0.68939 13.008 8.0052 4.6697 6.0039s-11.64-3.8-17.678-4.0026c-5.7365-0.19243-11.674 0.33355-17.011 2.6684s-42.694 3.669-49.699 2.6684-15.677-9.3394-15.677-9.3394l0.33355 4.6697-0.33355-11.007-4.3362 2.3349 0.66711-20.013" fill="#c87137" stroke="#28170b" stroke-linecap="round" stroke-linejoin="round" stroke-width="2"/>
  <path d="m518.41 647c-6.1511 8.4898-19.879 16.141-33.969 23.75 12.997-1.758 22.379-0.0704 36.969-12.375-0.56358-0.43651-1.0938-0.84375-1.0938-0.84375s-1.0255-4.362-1.9062-10.531zm-121.09 7.4375-0.125 1.6875s6.1385-2.3448 8.9688 12.75 22.618 33.484 38.656 41.031 41.063-0.96446 50.969-6.625c7.9099-4.52 16.5-16.5 16.5-16.5s1.6781-1.8654 4.3125-3.8125l0.40625-0.90625s-16.989 2.3466-25.938 2.8438c-25.472 1.4151-44.206-4.2906-64.625-12.281-10.659-4.171-29.125-18.188-29.125-18.188z" fill="#6c5d53"/>
  <path d="m455.22 415.55c0.37444-2.0635-0.32577-5.8638-2.2804-5.8638s-3.2577 3.7463-3.0948 5.0494 1.466 3.7464 2.6062 3.9092 2.5219-1.7328 2.769-3.0948z" fill="#fff"/>
  <path d="m485.95 412.14c-1.0691-1.8043-1.735-5.6108 0.0975-6.2909s4.3577 2.3787 4.6584 3.657-0.0708 4.0223-1.083 4.5718-2.9672-0.747-3.6729-1.9379z" fill="#fff"/>
  <path d="m405.67 639.14s19.812-28.303 32.548-33.963 34.269-8.4084 49.058-1.4151c15.098 7.139 29.718 31.605 30.661 39.624s2.3586 14.151 2.3586 14.151 8.9625 6.604 8.4908 8.9625-2.3586 11.321-7.5474 13.68-8.9625 6.604-8.9625 6.604-8.6 11.99-16.51 16.51c-9.906 5.6605-34.907 14.151-50.945 6.604s-35.85-25.944-38.68-41.039-8.9625-12.736-8.9625-12.736v-15.095z" fill="none" stroke="#483e37" stroke-linecap="round" stroke-linejoin="round" stroke-width="3"/>
 </g>
</svg>
